<svg version="1.1" baseProfile="full" shape-rendering="crispEdges" width="200" height="200" xmlns="http://www.w3.org/2000/svg" xmlns:xlink="http://www.w3.org/1999/xlink"><rect x="0" y="0" width="200" height="200" fill="#FFFFFF" />
<rect x="24.2424242424242" y="24.2424242424242" width="42.4242424242424" height="6.06060606060606" fill="#000000" />
<rect x="84.8484848484848" y="24.2424242424242" width="12.1212121212121" height="6.06060606060606" fill="#000000" />
<rect x="103.030303030303" y="24.2424242424242" width="6.06060606060606" height="6.06060606060606" fill="#000000" />
<rect x="121.212121212121" y="24.2424242424242" width="6.06060606060606" height="6.06060606060606" fill="#000000" />
<rect x="133.333333333333" y="24.2424242424242" width="42.4242424242424" height="6.06060606060606" fill="#000000" />
<rect x="24.2424242424242" y="30.3030303030303" width="6.06060606060606" height="30.3030303030303" fill="#000000" />
<rect x="60.6060606060606" y="30.3030303030303" width="6.06060606060606" height="30.3030303030303" fill="#000000" />
<rect x="84.8484848484848" y="30.3030303030303" width="6.06060606060606" height="6.06060606060606" fill="#000000" />
<rect x="115.151515151515" y="30.3030303030303" width="12.1212121212121" height="6.06060606060606" fill="#000000" />
<rect x="133.333333333333" y="30.3030303030303" width="6.06060606060606" height="30.3030303030303" fill="#000000" />
<rect x="169.69696969697" y="30.3030303030303" width="6.06060606060606" height="30.3030303030303" fill="#000000" />
<rect x="36.3636363636364" y="36.3636363636364" width="18.1818181818182" height="18.1818181818182" fill="#000000" />
<rect x="72.7272727272727" y="36.3636363636364" width="24.2424242424242" height="6.06060606060606" fill="#000000" />
<rect x="109.090909090909" y="36.3636363636364" width="6.06060606060606" height="6.06060606060606" fill="#000000" />
<rect x="145.454545454545" y="36.3636363636364" width="18.1818181818182" height="18.1818181818182" fill="#000000" />
<rect x="72.7272727272727" y="42.4242424242424" width="54.5454545454545" height="6.06060606060606" fill="#000000" />
<rect x="72.7272727272727" y="48.4848484848485" width="18.1818181818182" height="6.06060606060606" fill="#000000" />
<rect x="103.030303030303" y="48.4848484848485" width="6.06060606060606" height="6.06060606060606" fill="#000000" />
<rect x="121.212121212121" y="48.4848484848485" width="6.06060606060606" height="6.06060606060606" fill="#000000" />
<rect x="72.7272727272727" y="54.5454545454545" width="24.2424242424242" height="6.06060606060606" fill="#000000" />
<rect x="103.030303030303" y="54.5454545454545" width="24.2424242424242" height="6.06060606060606" fill="#000000" />
<rect x="24.2424242424242" y="60.6060606060606" width="42.4242424242424" height="6.06060606060606" fill="#000000" />
<rect x="72.7272727272727" y="60.6060606060606" width="6.06060606060606" height="12.1212121212121" fill="#000000" />
<rect x="84.8484848484848" y="60.6060606060606" width="6.06060606060606" height="6.06060606060606" fill="#000000" />
<rect x="96.969696969697" y="60.6060606060606" width="6.06060606060606" height="6.06060606060606" fill="#000000" />
<rect x="109.090909090909" y="60.6060606060606" width="6.06060606060606" height="12.1212121212121" fill="#000000" />
<rect x="121.212121212121" y="60.6060606060606" width="6.06060606060606" height="6.06060606060606" fill="#000000" />
<rect x="133.333333333333" y="60.6060606060606" width="42.4242424242424" height="6.06060606060606" fill="#000000" />
<rect x="90.9090909090909" y="66.6666666666667" width="6.06060606060606" height="6.06060606060606" fill="#000000" />
<rect x="24.2424242424242" y="72.7272727272727" width="6.06060606060606" height="6.06060606060606" fill="#000000" />
<rect x="36.3636363636364" y="72.7272727272727" width="30.3030303030303" height="6.06060606060606" fill="#000000" />
<rect x="84.8484848484848" y="72.7272727272727" width="12.1212121212121" height="6.06060606060606" fill="#000000" />
<rect x="103.030303030303" y="72.7272727272727" width="24.2424242424242" height="6.06060606060606" fill="#000000" />
<rect x="133.333333333333" y="72.7272727272727" width="30.3030303030303" height="6.06060606060606" fill="#000000" />
<rect x="48.4848484848485" y="78.7878787878788" width="6.06060606060606" height="6.06060606060606" fill="#000000" />
<rect x="72.7272727272727" y="78.7878787878788" width="6.06060606060606" height="6.06060606060606" fill="#000000" />
<rect x="84.8484848484848" y="78.7878787878788" width="6.06060606060606" height="6.06060606060606" fill="#000000" />
<rect x="103.030303030303" y="78.7878787878788" width="6.06060606060606" height="6.06060606060606" fill="#000000" />
<rect x="121.212121212121" y="78.7878787878788" width="12.1212121212121" height="6.06060606060606" fill="#000000" />
<rect x="139.393939393939" y="78.7878787878788" width="6.06060606060606" height="6.06060606060606" fill="#000000" />
<rect x="163.636363636364" y="78.7878787878788" width="6.06060606060606" height="6.06060606060606" fill="#000000" />
<rect x="30.3030303030303" y="84.8484848484848" width="12.1212121212121" height="6.06060606060606" fill="#000000" />
<rect x="60.6060606060606" y="84.8484848484848" width="18.1818181818182" height="6.06060606060606" fill="#000000" />
<rect x="115.151515151515" y="84.8484848484848" width="12.1212121212121" height="6.06060606060606" fill="#000000" />
<rect x="133.333333333333" y="84.8484848484848" width="6.06060606060606" height="6.06060606060606" fill="#000000" />
<rect x="151.515151515152" y="84.8484848484848" width="6.06060606060606" height="6.06060606060606" fill="#000000" />
<rect x="163.636363636364" y="84.8484848484848" width="12.1212121212121" height="6.06060606060606" fill="#000000" />
<rect x="30.3030303030303" y="90.9090909090909" width="6.06060606060606" height="12.1212121212121" fill="#000000" />
<rect x="42.4242424242424" y="90.9090909090909" width="12.1212121212121" height="6.06060606060606" fill="#000000" />
<rect x="72.7272727272727" y="90.9090909090909" width="6.06060606060606" height="6.06060606060606" fill="#000000" />
<rect x="115.151515151515" y="90.9090909090909" width="6.06060606060606" height="6.06060606060606" fill="#000000" />
<rect x="139.393939393939" y="90.9090909090909" width="6.06060606060606" height="6.06060606060606" fill="#000000" />
<rect x="169.69696969697" y="90.9090909090909" width="6.06060606060606" height="6.06060606060606" fill="#000000" />
<rect x="42.4242424242424" y="96.969696969697" width="6.06060606060606" height="6.06060606060606" fill="#000000" />
<rect x="54.5454545454545" y="96.969696969697" width="12.1212121212121" height="6.06060606060606" fill="#000000" />
<rect x="127.272727272727" y="96.969696969697" width="24.2424242424242" height="6.06060606060606" fill="#000000" />
<rect x="157.575757575758" y="96.969696969697" width="18.1818181818182" height="6.06060606060606" fill="#000000" />
<rect x="24.2424242424242" y="103.030303030303" width="24.2424242424242" height="6.06060606060606" fill="#000000" />
<rect x="54.5454545454545" y="103.030303030303" width="6.06060606060606" height="6.06060606060606" fill="#000000" />
<rect x="66.6666666666667" y="103.030303030303" width="18.1818181818182" height="6.06060606060606" fill="#000000" />
<rect x="121.212121212121" y="103.030303030303" width="6.06060606060606" height="6.06060606060606" fill="#000000" />
<rect x="139.393939393939" y="103.030303030303" width="6.06060606060606" height="6.06060606060606" fill="#000000" />
<rect x="151.515151515152" y="103.030303030303" width="6.06060606060606" height="6.06060606060606" fill="#000000" />
<rect x="163.636363636364" y="103.030303030303" width="6.06060606060606" height="6.06060606060606" fill="#000000" />
<rect x="24.2424242424242" y="109.090909090909" width="6.06060606060606" height="18.1818181818182" fill="#000000" />
<rect x="36.3636363636364" y="109.090909090909" width="6.06060606060606" height="6.06060606060606" fill="#000000" />
<rect x="54.5454545454545" y="109.090909090909" width="12.1212121212121" height="6.06060606060606" fill="#000000" />
<rect x="115.151515151515" y="109.090909090909" width="12.1212121212121" height="6.06060606060606" fill="#000000" />
<rect x="133.333333333333" y="109.090909090909" width="24.2424242424242" height="6.06060606060606" fill="#000000" />
<rect x="163.636363636364" y="109.090909090909" width="12.1212121212121" height="6.06060606060606" fill="#000000" />
<rect x="42.4242424242424" y="115.151515151515" width="12.1212121212121" height="12.1212121212121" fill="#000000" />
<rect x="66.6666666666667" y="115.151515151515" width="12.1212121212121" height="6.06060606060606" fill="#000000" />
<rect x="109.090909090909" y="115.151515151515" width="42.4242424242424" height="6.06060606060606" fill="#000000" />
<rect x="169.69696969697" y="115.151515151515" width="6.06060606060606" height="6.06060606060606" fill="#000000" />
<rect x="60.6060606060606" y="121.212121212121" width="6.06060606060606" height="6.06060606060606" fill="#000000" />
<rect x="90.9090909090909" y="121.212121212121" width="24.2424242424242" height="6.06060606060606" fill="#000000" />
<rect x="121.212121212121" y="121.212121212121" width="30.3030303030303" height="6.06060606060606" fill="#000000" />
<rect x="157.575757575758" y="121.212121212121" width="6.06060606060606" height="6.06060606060606" fill="#000000" />
<rect x="72.7272727272727" y="127.272727272727" width="6.06060606060606" height="6.06060606060606" fill="#000000" />
<rect x="84.8484848484848" y="127.272727272727" width="12.1212121212121" height="6.06060606060606" fill="#000000" />
<rect x="109.090909090909" y="127.272727272727" width="18.1818181818182" height="6.06060606060606" fill="#000000" />
<rect x="145.454545454545" y="127.272727272727" width="12.1212121212121" height="6.06060606060606" fill="#000000" />
<rect x="24.2424242424242" y="133.333333333333" width="42.4242424242424" height="6.06060606060606" fill="#000000" />
<rect x="84.8484848484848" y="133.333333333333" width="6.06060606060606" height="6.06060606060606" fill="#000000" />
<rect x="103.030303030303" y="133.333333333333" width="6.06060606060606" height="6.06060606060606" fill="#000000" />
<rect x="121.212121212121" y="133.333333333333" width="6.06060606060606" height="12.1212121212121" fill="#000000" />
<rect x="133.333333333333" y="133.333333333333" width="6.06060606060606" height="6.06060606060606" fill="#000000" />
<rect x="145.454545454545" y="133.333333333333" width="6.06060606060606" height="6.06060606060606" fill="#000000" />
<rect x="157.575757575758" y="133.333333333333" width="18.1818181818182" height="6.06060606060606" fill="#000000" />
<rect x="24.2424242424242" y="139.393939393939" width="6.06060606060606" height="30.3030303030303" fill="#000000" />
<rect x="60.6060606060606" y="139.393939393939" width="6.06060606060606" height="30.3030303030303" fill="#000000" />
<rect x="72.7272727272727" y="139.393939393939" width="6.06060606060606" height="6.06060606060606" fill="#000000" />
<rect x="90.9090909090909" y="139.393939393939" width="6.06060606060606" height="6.06060606060606" fill="#000000" />
<rect x="109.090909090909" y="139.393939393939" width="6.06060606060606" height="6.06060606060606" fill="#000000" />
<rect x="145.454545454545" y="139.393939393939" width="12.1212121212121" height="6.06060606060606" fill="#000000" />
<rect x="36.3636363636364" y="145.454545454545" width="18.1818181818182" height="18.1818181818182" fill="#000000" />
<rect x="72.7272727272727" y="145.454545454545" width="12.1212121212121" height="6.06060606060606" fill="#000000" />
<rect x="90.9090909090909" y="145.454545454545" width="18.1818181818182" height="6.06060606060606" fill="#000000" />
<rect x="115.151515151515" y="145.454545454545" width="36.3636363636364" height="6.06060606060606" fill="#000000" />
<rect x="157.575757575758" y="145.454545454545" width="6.06060606060606" height="6.06060606060606" fill="#000000" />
<rect x="72.7272727272727" y="151.515151515152" width="6.06060606060606" height="6.06060606060606" fill="#000000" />
<rect x="90.9090909090909" y="151.515151515152" width="6.06060606060606" height="6.06060606060606" fill="#000000" />
<rect x="103.030303030303" y="151.515151515152" width="6.06060606060606" height="6.06060606060606" fill="#000000" />
<rect x="121.212121212121" y="151.515151515152" width="18.1818181818182" height="6.06060606060606" fill="#000000" />
<rect x="145.454545454545" y="151.515151515152" width="30.3030303030303" height="6.06060606060606" fill="#000000" />
<rect x="72.7272727272727" y="157.575757575758" width="18.1818181818182" height="6.06060606060606" fill="#000000" />
<rect x="103.030303030303" y="157.575757575758" width="18.1818181818182" height="6.06060606060606" fill="#000000" />
<rect x="151.515151515152" y="157.575757575758" width="12.1212121212121" height="6.06060606060606" fill="#000000" />
<rect x="169.69696969697" y="157.575757575758" width="6.06060606060606" height="12.1212121212121" fill="#000000" />
<rect x="90.9090909090909" y="163.636363636364" width="12.1212121212121" height="6.06060606060606" fill="#000000" />
<rect x="121.212121212121" y="163.636363636364" width="12.1212121212121" height="6.06060606060606" fill="#000000" />
<rect x="139.393939393939" y="163.636363636364" width="18.1818181818182" height="6.06060606060606" fill="#000000" />
<rect x="24.2424242424242" y="169.69696969697" width="42.4242424242424" height="6.06060606060606" fill="#000000" />
<rect x="72.7272727272727" y="169.69696969697" width="18.1818181818182" height="6.06060606060606" fill="#000000" />
<rect x="96.969696969697" y="169.69696969697" width="18.1818181818182" height="6.06060606060606" fill="#000000" />
<rect x="139.393939393939" y="169.69696969697" width="36.3636363636364" height="6.06060606060606" fill="#000000" />
<svg width="30" height="30" viewBox="0 0 61 84" version="1.1" xmlns="http://www.w3.org/2000/svg" xmlns:xlink="http://www.w3.org/1999/xlink" xml:space="preserve" xmlns:serif="http://www.serif.com/" style="fill-rule:evenodd;clip-rule:evenodd;stroke-linejoin:round;stroke-miterlimit:2;" x="85" y="85" shape-rendering="geometricPrecision">
    <g id="Calque_1-2">
        <path d="M24.67,21.96C23.5,22.8 22.45,23.76 21.53,24.84L7.18,10.49L7.18,7.52L10.23,7.52L24.67,21.96Z" style="fill-rule:nonzero;" />
        <path d="M41.21,60.85L41.21,81.36L39.15,83.43L39.13,83.43L37.07,81.36L37.07,60.85C37.75,60.89 38.44,60.92 39.14,60.92C39.84,60.92 40.53,60.89 41.21,60.85Z" style="fill-rule:nonzero;" />
        <path d="M39.43,19.1C26.78,18.93 18,26.99 17.84,38.96C17.68,50.93 26.24,59.22 38.89,59.39C51.54,59.56 60.32,51.5 60.48,39.53C60.64,27.56 52.09,19.27 39.43,19.1ZM39.06,46.5C35.08,46.45 32.41,43.47 32.47,39.16C32.53,34.89 35.28,31.99 39.26,32.04C43.25,32.09 45.92,35.07 45.86,39.34C45.8,43.65 43.05,46.55 39.06,46.5Z" style="fill-rule:nonzero;" />
        <path d="M15.51,0L15.51,6L5.65,6L5.65,15.2L0,15.2L0,0L15.51,0Z" style="fill-rule:nonzero;" />
        <g transform="matrix(1,0,0,1.76796,0,-56.3416)">
            <rect x="23.16" y="70.936" width="12.494" height="2.429" />
        </g>
        <g transform="matrix(1,0,0,1.76796,19.4658,-56.361)">
            <rect x="23.16" y="70.936" width="12.494" height="2.429" />
        </g>
    </g>
</svg>
</svg>