<svg version="1.1" baseProfile="full" shape-rendering="crispEdges" viewBox="0 0 200 200" xmlns="http://www.w3.org/2000/svg" xmlns:xlink="http://www.w3.org/1999/xlink"><rect x="0" y="0" width="200" height="200" fill="#FFFFFF" />
<rect x="19.5121951219512" y="19.5121951219512" width="34.1463414634146" height="4.8780487804878" fill="#000000" />
<rect x="58.5365853658537" y="19.5121951219512" width="4.8780487804878" height="4.8780487804878" fill="#000000" />
<rect x="68.2926829268293" y="19.5121951219512" width="4.8780487804878" height="9.75609756097561" fill="#000000" />
<rect x="78.0487804878049" y="19.5121951219512" width="4.8780487804878" height="4.8780487804878" fill="#000000" />
<rect x="97.5609756097561" y="19.5121951219512" width="4.8780487804878" height="4.8780487804878" fill="#000000" />
<rect x="107.317073170732" y="19.5121951219512" width="14.6341463414634" height="4.8780487804878" fill="#000000" />
<rect x="131.707317073171" y="19.5121951219512" width="4.8780487804878" height="4.8780487804878" fill="#000000" />
<rect x="146.341463414634" y="19.5121951219512" width="34.1463414634146" height="4.8780487804878" fill="#000000" />
<rect x="19.5121951219512" y="24.390243902439" width="4.8780487804878" height="24.390243902439" fill="#000000" />
<rect x="48.780487804878" y="24.390243902439" width="4.8780487804878" height="24.390243902439" fill="#000000" />
<rect x="78.0487804878049" y="24.390243902439" width="14.6341463414634" height="4.8780487804878" fill="#000000" />
<rect x="107.317073170732" y="24.390243902439" width="4.8780487804878" height="4.8780487804878" fill="#000000" />
<rect x="117.073170731707" y="24.390243902439" width="9.75609756097561" height="4.8780487804878" fill="#000000" />
<rect x="136.585365853659" y="24.390243902439" width="4.8780487804878" height="4.8780487804878" fill="#000000" />
<rect x="146.341463414634" y="24.390243902439" width="4.8780487804878" height="24.390243902439" fill="#000000" />
<rect x="175.609756097561" y="24.390243902439" width="4.8780487804878" height="24.390243902439" fill="#000000" />
<rect x="29.2682926829268" y="29.2682926829268" width="14.6341463414634" height="14.6341463414634" fill="#000000" />
<rect x="63.4146341463415" y="29.2682926829268" width="24.390243902439" height="4.8780487804878" fill="#000000" />
<rect x="97.5609756097561" y="29.2682926829268" width="4.8780487804878" height="4.8780487804878" fill="#000000" />
<rect x="121.951219512195" y="29.2682926829268" width="19.5121951219512" height="4.8780487804878" fill="#000000" />
<rect x="156.09756097561" y="29.2682926829268" width="14.6341463414634" height="14.6341463414634" fill="#000000" />
<rect x="63.4146341463415" y="34.1463414634146" width="4.8780487804878" height="4.8780487804878" fill="#000000" />
<rect x="73.1707317073171" y="34.1463414634146" width="4.8780487804878" height="4.8780487804878" fill="#000000" />
<rect x="87.8048780487805" y="34.1463414634146" width="4.8780487804878" height="4.8780487804878" fill="#000000" />
<rect x="107.317073170732" y="34.1463414634146" width="9.75609756097561" height="4.8780487804878" fill="#000000" />
<rect x="126.829268292683" y="34.1463414634146" width="4.8780487804878" height="4.8780487804878" fill="#000000" />
<rect x="136.585365853659" y="34.1463414634146" width="4.8780487804878" height="4.8780487804878" fill="#000000" />
<rect x="58.5365853658537" y="39.0243902439024" width="19.5121951219512" height="4.8780487804878" fill="#000000" />
<rect x="87.8048780487805" y="39.0243902439024" width="19.5121951219512" height="4.8780487804878" fill="#000000" />
<rect x="117.073170731707" y="39.0243902439024" width="9.75609756097561" height="4.8780487804878" fill="#000000" />
<rect x="131.707317073171" y="39.0243902439024" width="4.8780487804878" height="4.8780487804878" fill="#000000" />
<rect x="58.5365853658537" y="43.9024390243902" width="9.75609756097561" height="4.8780487804878" fill="#000000" />
<rect x="73.1707317073171" y="43.9024390243902" width="19.5121951219512" height="4.8780487804878" fill="#000000" />
<rect x="102.439024390244" y="43.9024390243902" width="4.8780487804878" height="4.8780487804878" fill="#000000" />
<rect x="112.19512195122" y="43.9024390243902" width="4.8780487804878" height="4.8780487804878" fill="#000000" />
<rect x="121.951219512195" y="43.9024390243902" width="4.8780487804878" height="4.8780487804878" fill="#000000" />
<rect x="136.585365853659" y="43.9024390243902" width="4.8780487804878" height="9.75609756097561" fill="#000000" />
<rect x="19.5121951219512" y="48.780487804878" width="34.1463414634146" height="4.8780487804878" fill="#000000" />
<rect x="58.5365853658537" y="48.780487804878" width="4.8780487804878" height="4.8780487804878" fill="#000000" />
<rect x="68.2926829268293" y="48.780487804878" width="4.8780487804878" height="4.8780487804878" fill="#000000" />
<rect x="78.0487804878049" y="48.780487804878" width="4.8780487804878" height="4.8780487804878" fill="#000000" />
<rect x="87.8048780487805" y="48.780487804878" width="4.8780487804878" height="4.8780487804878" fill="#000000" />
<rect x="97.5609756097561" y="48.780487804878" width="4.8780487804878" height="4.8780487804878" fill="#000000" />
<rect x="107.317073170732" y="48.780487804878" width="4.8780487804878" height="4.8780487804878" fill="#000000" />
<rect x="117.073170731707" y="48.780487804878" width="4.8780487804878" height="4.8780487804878" fill="#000000" />
<rect x="126.829268292683" y="48.780487804878" width="4.8780487804878" height="4.8780487804878" fill="#000000" />
<rect x="146.341463414634" y="48.780487804878" width="34.1463414634146" height="4.8780487804878" fill="#000000" />
<rect x="63.4146341463415" y="53.6585365853659" width="4.8780487804878" height="14.6341463414634" fill="#000000" />
<rect x="73.1707317073171" y="53.6585365853659" width="14.6341463414634" height="4.8780487804878" fill="#000000" />
<rect x="112.19512195122" y="53.6585365853659" width="19.5121951219512" height="4.8780487804878" fill="#000000" />
<rect x="24.390243902439" y="58.5365853658537" width="34.1463414634146" height="4.8780487804878" fill="#000000" />
<rect x="78.0487804878049" y="58.5365853658537" width="4.8780487804878" height="4.8780487804878" fill="#000000" />
<rect x="92.6829268292683" y="58.5365853658537" width="14.6341463414634" height="4.8780487804878" fill="#000000" />
<rect x="112.19512195122" y="58.5365853658537" width="4.8780487804878" height="4.8780487804878" fill="#000000" />
<rect x="126.829268292683" y="58.5365853658537" width="4.8780487804878" height="4.8780487804878" fill="#000000" />
<rect x="151.219512195122" y="58.5365853658537" width="9.75609756097561" height="4.8780487804878" fill="#000000" />
<rect x="175.609756097561" y="58.5365853658537" width="4.8780487804878" height="9.75609756097561" fill="#000000" />
<rect x="19.5121951219512" y="63.4146341463415" width="14.6341463414634" height="4.8780487804878" fill="#000000" />
<rect x="39.0243902439024" y="63.4146341463415" width="4.8780487804878" height="4.8780487804878" fill="#000000" />
<rect x="82.9268292682927" y="63.4146341463415" width="9.75609756097561" height="4.8780487804878" fill="#000000" />
<rect x="102.439024390244" y="63.4146341463415" width="19.5121951219512" height="4.8780487804878" fill="#000000" />
<rect x="131.707317073171" y="63.4146341463415" width="4.8780487804878" height="4.8780487804878" fill="#000000" />
<rect x="146.341463414634" y="63.4146341463415" width="9.75609756097561" height="4.8780487804878" fill="#000000" />
<rect x="160.975609756098" y="63.4146341463415" width="9.75609756097561" height="4.8780487804878" fill="#000000" />
<rect x="24.390243902439" y="68.2926829268293" width="4.8780487804878" height="9.75609756097561" fill="#000000" />
<rect x="34.1463414634146" y="68.2926829268293" width="39.0243902439024" height="4.8780487804878" fill="#000000" />
<rect x="78.0487804878049" y="68.2926829268293" width="4.8780487804878" height="4.8780487804878" fill="#000000" />
<rect x="87.8048780487805" y="68.2926829268293" width="4.8780487804878" height="4.8780487804878" fill="#000000" />
<rect x="102.439024390244" y="68.2926829268293" width="4.8780487804878" height="4.8780487804878" fill="#000000" />
<rect x="117.073170731707" y="68.2926829268293" width="4.8780487804878" height="4.8780487804878" fill="#000000" />
<rect x="126.829268292683" y="68.2926829268293" width="4.8780487804878" height="4.8780487804878" fill="#000000" />
<rect x="136.585365853659" y="68.2926829268293" width="4.8780487804878" height="4.8780487804878" fill="#000000" />
<rect x="156.09756097561" y="68.2926829268293" width="4.8780487804878" height="4.8780487804878" fill="#000000" />
<rect x="165.853658536585" y="68.2926829268293" width="4.8780487804878" height="4.8780487804878" fill="#000000" />
<rect x="34.1463414634146" y="73.1707317073171" width="9.75609756097561" height="4.8780487804878" fill="#000000" />
<rect x="53.6585365853659" y="73.1707317073171" width="14.6341463414634" height="4.8780487804878" fill="#000000" />
<rect x="73.1707317073171" y="73.1707317073171" width="4.8780487804878" height="4.8780487804878" fill="#000000" />
<rect x="82.9268292682927" y="73.1707317073171" width="4.8780487804878" height="4.8780487804878" fill="#000000" />
<rect x="92.6829268292683" y="73.1707317073171" width="4.8780487804878" height="4.8780487804878" fill="#000000" />
<rect x="102.439024390244" y="73.1707317073171" width="14.6341463414634" height="4.8780487804878" fill="#000000" />
<rect x="121.951219512195" y="73.1707317073171" width="9.75609756097561" height="4.8780487804878" fill="#000000" />
<rect x="141.463414634146" y="73.1707317073171" width="9.75609756097561" height="4.8780487804878" fill="#000000" />
<rect x="156.09756097561" y="73.1707317073171" width="24.390243902439" height="4.8780487804878" fill="#000000" />
<rect x="19.5121951219512" y="78.0487804878049" width="9.75609756097561" height="4.8780487804878" fill="#000000" />
<rect x="34.1463414634146" y="78.0487804878049" width="19.5121951219512" height="4.8780487804878" fill="#000000" />
<rect x="58.5365853658537" y="78.0487804878049" width="4.8780487804878" height="4.8780487804878" fill="#000000" />
<rect x="68.2926829268293" y="78.0487804878049" width="9.75609756097561" height="4.8780487804878" fill="#000000" />
<rect x="126.829268292683" y="78.0487804878049" width="4.8780487804878" height="4.8780487804878" fill="#000000" />
<rect x="141.463414634146" y="78.0487804878049" width="4.8780487804878" height="4.8780487804878" fill="#000000" />
<rect x="156.09756097561" y="78.0487804878049" width="9.75609756097561" height="4.8780487804878" fill="#000000" />
<rect x="39.0243902439024" y="82.9268292682927" width="4.8780487804878" height="4.8780487804878" fill="#000000" />
<rect x="63.4146341463415" y="82.9268292682927" width="9.75609756097561" height="9.75609756097561" fill="#000000" />
<rect x="131.707317073171" y="82.9268292682927" width="4.8780487804878" height="4.8780487804878" fill="#000000" />
<rect x="146.341463414634" y="82.9268292682927" width="4.8780487804878" height="4.8780487804878" fill="#000000" />
<rect x="160.975609756098" y="82.9268292682927" width="4.8780487804878" height="4.8780487804878" fill="#000000" />
<rect x="170.731707317073" y="82.9268292682927" width="9.75609756097561" height="4.8780487804878" fill="#000000" />
<rect x="24.390243902439" y="87.8048780487805" width="4.8780487804878" height="4.8780487804878" fill="#000000" />
<rect x="34.1463414634146" y="87.8048780487805" width="4.8780487804878" height="4.8780487804878" fill="#000000" />
<rect x="48.780487804878" y="87.8048780487805" width="9.75609756097561" height="4.8780487804878" fill="#000000" />
<rect x="126.829268292683" y="87.8048780487805" width="4.8780487804878" height="4.8780487804878" fill="#000000" />
<rect x="141.463414634146" y="87.8048780487805" width="9.75609756097561" height="4.8780487804878" fill="#000000" />
<rect x="156.09756097561" y="87.8048780487805" width="4.8780487804878" height="4.8780487804878" fill="#000000" />
<rect x="170.731707317073" y="87.8048780487805" width="4.8780487804878" height="4.8780487804878" fill="#000000" />
<rect x="24.390243902439" y="92.6829268292683" width="14.6341463414634" height="4.8780487804878" fill="#000000" />
<rect x="53.6585365853659" y="92.6829268292683" width="19.5121951219512" height="4.8780487804878" fill="#000000" />
<rect x="121.951219512195" y="92.6829268292683" width="4.8780487804878" height="4.8780487804878" fill="#000000" />
<rect x="136.585365853659" y="92.6829268292683" width="14.6341463414634" height="4.8780487804878" fill="#000000" />
<rect x="156.09756097561" y="92.6829268292683" width="14.6341463414634" height="4.8780487804878" fill="#000000" />
<rect x="24.390243902439" y="97.5609756097561" width="9.75609756097561" height="4.8780487804878" fill="#000000" />
<rect x="39.0243902439024" y="97.5609756097561" width="4.8780487804878" height="4.8780487804878" fill="#000000" />
<rect x="48.780487804878" y="97.5609756097561" width="4.8780487804878" height="4.8780487804878" fill="#000000" />
<rect x="73.1707317073171" y="97.5609756097561" width="4.8780487804878" height="14.6341463414634" fill="#000000" />
<rect x="126.829268292683" y="97.5609756097561" width="4.8780487804878" height="4.8780487804878" fill="#000000" />
<rect x="141.463414634146" y="97.5609756097561" width="4.8780487804878" height="4.8780487804878" fill="#000000" />
<rect x="151.219512195122" y="97.5609756097561" width="9.75609756097561" height="4.8780487804878" fill="#000000" />
<rect x="175.609756097561" y="97.5609756097561" width="4.8780487804878" height="4.8780487804878" fill="#000000" />
<rect x="19.5121951219512" y="102.439024390244" width="4.8780487804878" height="9.75609756097561" fill="#000000" />
<rect x="43.9024390243902" y="102.439024390244" width="4.8780487804878" height="4.8780487804878" fill="#000000" />
<rect x="58.5365853658537" y="102.439024390244" width="4.8780487804878" height="4.8780487804878" fill="#000000" />
<rect x="126.829268292683" y="102.439024390244" width="9.75609756097561" height="4.8780487804878" fill="#000000" />
<rect x="141.463414634146" y="102.439024390244" width="14.6341463414634" height="4.8780487804878" fill="#000000" />
<rect x="160.975609756098" y="102.439024390244" width="19.5121951219512" height="4.8780487804878" fill="#000000" />
<rect x="34.1463414634146" y="107.317073170732" width="4.8780487804878" height="4.8780487804878" fill="#000000" />
<rect x="48.780487804878" y="107.317073170732" width="9.75609756097561" height="4.8780487804878" fill="#000000" />
<rect x="63.4146341463415" y="107.317073170732" width="4.8780487804878" height="4.8780487804878" fill="#000000" />
<rect x="126.829268292683" y="107.317073170732" width="4.8780487804878" height="4.8780487804878" fill="#000000" />
<rect x="136.585365853659" y="107.317073170732" width="4.8780487804878" height="4.8780487804878" fill="#000000" />
<rect x="146.341463414634" y="107.317073170732" width="14.6341463414634" height="4.8780487804878" fill="#000000" />
<rect x="165.853658536585" y="107.317073170732" width="9.75609756097561" height="4.8780487804878" fill="#000000" />
<rect x="19.5121951219512" y="112.19512195122" width="9.75609756097561" height="4.8780487804878" fill="#000000" />
<rect x="43.9024390243902" y="112.19512195122" width="4.8780487804878" height="4.8780487804878" fill="#000000" />
<rect x="58.5365853658537" y="112.19512195122" width="4.8780487804878" height="4.8780487804878" fill="#000000" />
<rect x="68.2926829268293" y="112.19512195122" width="4.8780487804878" height="4.8780487804878" fill="#000000" />
<rect x="121.951219512195" y="112.19512195122" width="4.8780487804878" height="4.8780487804878" fill="#000000" />
<rect x="131.707317073171" y="112.19512195122" width="4.8780487804878" height="4.8780487804878" fill="#000000" />
<rect x="141.463414634146" y="112.19512195122" width="4.8780487804878" height="4.8780487804878" fill="#000000" />
<rect x="151.219512195122" y="112.19512195122" width="24.390243902439" height="4.8780487804878" fill="#000000" />
<rect x="19.5121951219512" y="117.073170731707" width="4.8780487804878" height="4.8780487804878" fill="#000000" />
<rect x="34.1463414634146" y="117.073170731707" width="9.75609756097561" height="4.8780487804878" fill="#000000" />
<rect x="48.780487804878" y="117.073170731707" width="14.6341463414634" height="4.8780487804878" fill="#000000" />
<rect x="73.1707317073171" y="117.073170731707" width="4.8780487804878" height="4.8780487804878" fill="#000000" />
<rect x="131.707317073171" y="117.073170731707" width="14.6341463414634" height="4.8780487804878" fill="#000000" />
<rect x="151.219512195122" y="117.073170731707" width="14.6341463414634" height="4.8780487804878" fill="#000000" />
<rect x="170.731707317073" y="117.073170731707" width="9.75609756097561" height="4.8780487804878" fill="#000000" />
<rect x="19.5121951219512" y="121.951219512195" width="9.75609756097561" height="4.8780487804878" fill="#000000" />
<rect x="39.0243902439024" y="121.951219512195" width="9.75609756097561" height="4.8780487804878" fill="#000000" />
<rect x="63.4146341463415" y="121.951219512195" width="19.5121951219512" height="4.8780487804878" fill="#000000" />
<rect x="87.8048780487805" y="121.951219512195" width="19.5121951219512" height="4.8780487804878" fill="#000000" />
<rect x="117.073170731707" y="121.951219512195" width="9.75609756097561" height="4.8780487804878" fill="#000000" />
<rect x="131.707317073171" y="121.951219512195" width="4.8780487804878" height="4.8780487804878" fill="#000000" />
<rect x="141.463414634146" y="121.951219512195" width="14.6341463414634" height="4.8780487804878" fill="#000000" />
<rect x="165.853658536585" y="121.951219512195" width="4.8780487804878" height="4.8780487804878" fill="#000000" />
<rect x="175.609756097561" y="121.951219512195" width="4.8780487804878" height="4.8780487804878" fill="#000000" />
<rect x="19.5121951219512" y="126.829268292683" width="4.8780487804878" height="14.6341463414634" fill="#000000" />
<rect x="39.0243902439024" y="126.829268292683" width="19.5121951219512" height="4.8780487804878" fill="#000000" />
<rect x="63.4146341463415" y="126.829268292683" width="14.6341463414634" height="4.8780487804878" fill="#000000" />
<rect x="82.9268292682927" y="126.829268292683" width="4.8780487804878" height="4.8780487804878" fill="#000000" />
<rect x="112.19512195122" y="126.829268292683" width="4.8780487804878" height="4.8780487804878" fill="#000000" />
<rect x="160.975609756098" y="126.829268292683" width="4.8780487804878" height="4.8780487804878" fill="#000000" />
<rect x="170.731707317073" y="126.829268292683" width="4.8780487804878" height="4.8780487804878" fill="#000000" />
<rect x="29.2682926829268" y="131.707317073171" width="9.75609756097561" height="4.8780487804878" fill="#000000" />
<rect x="43.9024390243902" y="131.707317073171" width="4.8780487804878" height="4.8780487804878" fill="#000000" />
<rect x="63.4146341463415" y="131.707317073171" width="4.8780487804878" height="4.8780487804878" fill="#000000" />
<rect x="73.1707317073171" y="131.707317073171" width="4.8780487804878" height="4.8780487804878" fill="#000000" />
<rect x="82.9268292682927" y="131.707317073171" width="19.5121951219512" height="4.8780487804878" fill="#000000" />
<rect x="107.317073170732" y="131.707317073171" width="24.390243902439" height="4.8780487804878" fill="#000000" />
<rect x="141.463414634146" y="131.707317073171" width="4.8780487804878" height="4.8780487804878" fill="#000000" />
<rect x="156.09756097561" y="131.707317073171" width="19.5121951219512" height="4.8780487804878" fill="#000000" />
<rect x="34.1463414634146" y="136.585365853659" width="9.75609756097561" height="4.8780487804878" fill="#000000" />
<rect x="48.780487804878" y="136.585365853659" width="9.75609756097561" height="4.8780487804878" fill="#000000" />
<rect x="92.6829268292683" y="136.585365853659" width="4.8780487804878" height="4.8780487804878" fill="#000000" />
<rect x="102.439024390244" y="136.585365853659" width="4.8780487804878" height="4.8780487804878" fill="#000000" />
<rect x="112.19512195122" y="136.585365853659" width="9.75609756097561" height="4.8780487804878" fill="#000000" />
<rect x="126.829268292683" y="136.585365853659" width="4.8780487804878" height="4.8780487804878" fill="#000000" />
<rect x="136.585365853659" y="136.585365853659" width="24.390243902439" height="4.8780487804878" fill="#000000" />
<rect x="175.609756097561" y="136.585365853659" width="4.8780487804878" height="9.75609756097561" fill="#000000" />
<rect x="58.5365853658537" y="141.463414634146" width="14.6341463414634" height="4.8780487804878" fill="#000000" />
<rect x="82.9268292682927" y="141.463414634146" width="4.8780487804878" height="4.8780487804878" fill="#000000" />
<rect x="107.317073170732" y="141.463414634146" width="14.6341463414634" height="4.8780487804878" fill="#000000" />
<rect x="136.585365853659" y="141.463414634146" width="4.8780487804878" height="4.8780487804878" fill="#000000" />
<rect x="156.09756097561" y="141.463414634146" width="4.8780487804878" height="9.75609756097561" fill="#000000" />
<rect x="165.853658536585" y="141.463414634146" width="4.8780487804878" height="9.75609756097561" fill="#000000" />
<rect x="19.5121951219512" y="146.341463414634" width="34.1463414634146" height="4.8780487804878" fill="#000000" />
<rect x="58.5365853658537" y="146.341463414634" width="4.8780487804878" height="19.5121951219512" fill="#000000" />
<rect x="78.0487804878049" y="146.341463414634" width="4.8780487804878" height="4.8780487804878" fill="#000000" />
<rect x="102.439024390244" y="146.341463414634" width="4.8780487804878" height="4.8780487804878" fill="#000000" />
<rect x="117.073170731707" y="146.341463414634" width="24.390243902439" height="4.8780487804878" fill="#000000" />
<rect x="146.341463414634" y="146.341463414634" width="4.8780487804878" height="4.8780487804878" fill="#000000" />
<rect x="19.5121951219512" y="151.219512195122" width="4.8780487804878" height="24.390243902439" fill="#000000" />
<rect x="48.780487804878" y="151.219512195122" width="4.8780487804878" height="24.390243902439" fill="#000000" />
<rect x="73.1707317073171" y="151.219512195122" width="4.8780487804878" height="4.8780487804878" fill="#000000" />
<rect x="87.8048780487805" y="151.219512195122" width="24.390243902439" height="4.8780487804878" fill="#000000" />
<rect x="121.951219512195" y="151.219512195122" width="9.75609756097561" height="4.8780487804878" fill="#000000" />
<rect x="136.585365853659" y="151.219512195122" width="4.8780487804878" height="4.8780487804878" fill="#000000" />
<rect x="156.09756097561" y="151.219512195122" width="14.6341463414634" height="4.8780487804878" fill="#000000" />
<rect x="175.609756097561" y="151.219512195122" width="4.8780487804878" height="4.8780487804878" fill="#000000" />
<rect x="29.2682926829268" y="156.09756097561" width="14.6341463414634" height="14.6341463414634" fill="#000000" />
<rect x="68.2926829268293" y="156.09756097561" width="4.8780487804878" height="4.8780487804878" fill="#000000" />
<rect x="82.9268292682927" y="156.09756097561" width="4.8780487804878" height="4.8780487804878" fill="#000000" />
<rect x="102.439024390244" y="156.09756097561" width="4.8780487804878" height="4.8780487804878" fill="#000000" />
<rect x="112.19512195122" y="156.09756097561" width="4.8780487804878" height="4.8780487804878" fill="#000000" />
<rect x="136.585365853659" y="156.09756097561" width="29.2682926829268" height="4.8780487804878" fill="#000000" />
<rect x="170.731707317073" y="156.09756097561" width="9.75609756097561" height="4.8780487804878" fill="#000000" />
<rect x="68.2926829268293" y="160.975609756098" width="19.5121951219512" height="4.8780487804878" fill="#000000" />
<rect x="107.317073170732" y="160.975609756098" width="4.8780487804878" height="14.6341463414634" fill="#000000" />
<rect x="126.829268292683" y="160.975609756098" width="4.8780487804878" height="4.8780487804878" fill="#000000" />
<rect x="141.463414634146" y="160.975609756098" width="4.8780487804878" height="4.8780487804878" fill="#000000" />
<rect x="156.09756097561" y="160.975609756098" width="9.75609756097561" height="4.8780487804878" fill="#000000" />
<rect x="175.609756097561" y="160.975609756098" width="4.8780487804878" height="4.8780487804878" fill="#000000" />
<rect x="58.5365853658537" y="165.853658536585" width="9.75609756097561" height="4.8780487804878" fill="#000000" />
<rect x="73.1707317073171" y="165.853658536585" width="14.6341463414634" height="4.8780487804878" fill="#000000" />
<rect x="92.6829268292683" y="165.853658536585" width="9.75609756097561" height="4.8780487804878" fill="#000000" />
<rect x="117.073170731707" y="165.853658536585" width="14.6341463414634" height="4.8780487804878" fill="#000000" />
<rect x="136.585365853659" y="165.853658536585" width="19.5121951219512" height="4.8780487804878" fill="#000000" />
<rect x="160.975609756098" y="165.853658536585" width="4.8780487804878" height="4.8780487804878" fill="#000000" />
<rect x="58.5365853658537" y="170.731707317073" width="4.8780487804878" height="4.8780487804878" fill="#000000" />
<rect x="68.2926829268293" y="170.731707317073" width="24.390243902439" height="4.8780487804878" fill="#000000" />
<rect x="97.5609756097561" y="170.731707317073" width="4.8780487804878" height="4.8780487804878" fill="#000000" />
<rect x="121.951219512195" y="170.731707317073" width="14.6341463414634" height="4.8780487804878" fill="#000000" />
<rect x="141.463414634146" y="170.731707317073" width="4.8780487804878" height="4.8780487804878" fill="#000000" />
<rect x="156.09756097561" y="170.731707317073" width="14.6341463414634" height="4.8780487804878" fill="#000000" />
<rect x="19.5121951219512" y="175.609756097561" width="34.1463414634146" height="4.8780487804878" fill="#000000" />
<rect x="63.4146341463415" y="175.609756097561" width="19.5121951219512" height="4.8780487804878" fill="#000000" />
<rect x="92.6829268292683" y="175.609756097561" width="9.75609756097561" height="4.8780487804878" fill="#000000" />
<rect x="126.829268292683" y="175.609756097561" width="14.6341463414634" height="4.8780487804878" fill="#000000" />
<rect x="151.219512195122" y="175.609756097561" width="4.8780487804878" height="4.8780487804878" fill="#000000" />
<rect x="170.731707317073" y="175.609756097561" width="4.8780487804878" height="4.8780487804878" fill="#000000" />
<svg width="36" height="36" viewBox="0 0 61 84" version="1.1" xmlns="http://www.w3.org/2000/svg" xmlns:xlink="http://www.w3.org/1999/xlink" xml:space="preserve" xmlns:serif="http://www.serif.com/" style="fill-rule:evenodd;clip-rule:evenodd;stroke-linejoin:round;stroke-miterlimit:2;" x="82" y="82" shape-rendering="geometricPrecision">
    <g id="Calque_1-2">
        <path d="M24.67,21.96C23.5,22.8 22.45,23.76 21.53,24.84L7.18,10.49L7.18,7.52L10.23,7.52L24.67,21.96Z" style="fill-rule:nonzero;" />
        <path d="M41.21,60.85L41.21,81.36L39.15,83.43L39.13,83.43L37.07,81.36L37.07,60.85C37.75,60.89 38.44,60.92 39.14,60.92C39.84,60.92 40.53,60.89 41.21,60.85Z" style="fill-rule:nonzero;" />
        <path d="M39.43,19.1C26.78,18.93 18,26.99 17.84,38.96C17.68,50.93 26.24,59.22 38.89,59.39C51.54,59.56 60.32,51.5 60.48,39.53C60.64,27.56 52.09,19.27 39.43,19.1ZM39.06,46.5C35.08,46.45 32.41,43.47 32.47,39.16C32.53,34.89 35.28,31.99 39.26,32.04C43.25,32.09 45.92,35.07 45.86,39.34C45.8,43.65 43.05,46.55 39.06,46.5Z" style="fill-rule:nonzero;" />
        <path d="M15.51,0L15.51,6L5.65,6L5.65,15.2L0,15.2L0,0L15.51,0Z" style="fill-rule:nonzero;" />
        <g transform="matrix(1,0,0,1.76796,0,-56.3416)">
            <rect x="23.16" y="70.936" width="12.494" height="2.429" />
        </g>
        <g transform="matrix(1,0,0,1.76796,19.4658,-56.361)">
            <rect x="23.16" y="70.936" width="12.494" height="2.429" />
        </g>
    </g>
</svg>
</svg>