<?xml version="1.0" encoding="UTF-8" standalone="no"?>
<!DOCTYPE svg PUBLIC "-//W3C//DTD SVG 1.1//EN" "http://www.w3.org/Graphics/SVG/1.1/DTD/svg11.dtd">
<svg width="100%" height="100%" viewBox="0 0 922 422" version="1.1" xmlns="http://www.w3.org/2000/svg" xmlns:xlink="http://www.w3.org/1999/xlink" xml:space="preserve" xmlns:serif="http://www.serif.com/" style="fill-rule:evenodd;clip-rule:evenodd;">
    <g transform="matrix(1,0,0,1,23.6221,23.6208)">
        <rect id="Plan-de-travail1" serif:id="Plan de travail1" x="0" y="0" width="874.015" height="374.21" style="fill:none;"/>
        <g transform="matrix(4.16667,0,0,4.16667,0,0)">
            <g transform="matrix(13,0,0,13,120.318,47.7538)">
                <path d="M0.086,-0L0.353,-0C0.546,0.003 0.697,-0.144 0.693,-0.331C0.693,-0.394 0.679,-0.451 0.649,-0.501C0.62,-0.552 0.58,-0.591 0.528,-0.62C0.476,-0.649 0.417,-0.663 0.353,-0.663L0.086,-0.663L0.086,-0ZM0.188,-0.571L0.351,-0.571C0.42,-0.571 0.477,-0.548 0.521,-0.502C0.564,-0.456 0.586,-0.399 0.586,-0.331C0.588,-0.199 0.489,-0.091 0.351,-0.093L0.188,-0.093L0.188,-0.571Z" style="fill:rgb(239,70,83);fill-rule:nonzero;"/>
            </g>
            <g transform="matrix(13,0,0,13,129.889,47.7538)">
                <path d="M0.04,-0.234C0.04,-0.164 0.063,-0.106 0.11,-0.06C0.156,-0.014 0.215,0.01 0.286,0.01C0.329,0.01 0.37,-0.001 0.408,-0.021C0.447,-0.042 0.477,-0.072 0.498,-0.109L0.426,-0.161C0.393,-0.108 0.346,-0.081 0.286,-0.081C0.246,-0.081 0.212,-0.093 0.185,-0.117C0.157,-0.141 0.143,-0.171 0.14,-0.207L0.504,-0.207C0.506,-0.22 0.508,-0.235 0.508,-0.251C0.51,-0.376 0.417,-0.48 0.282,-0.478C0.211,-0.478 0.154,-0.456 0.108,-0.409C0.063,-0.363 0.04,-0.304 0.04,-0.234ZM0.143,-0.279C0.149,-0.312 0.165,-0.339 0.19,-0.36C0.215,-0.381 0.246,-0.391 0.281,-0.391C0.315,-0.391 0.344,-0.381 0.369,-0.36C0.393,-0.339 0.407,-0.312 0.41,-0.279L0.143,-0.279Z" style="fill:rgb(239,70,83);fill-rule:nonzero;"/>
            </g>
            <g transform="matrix(13,0,0,13,140,47.7538)">
                <path d="M0.041,-0.232C0.041,-0.161 0.063,-0.103 0.108,-0.058C0.152,-0.013 0.208,0.01 0.276,0.01C0.349,0.01 0.404,-0.015 0.443,-0.064L0.443,0.195L0.54,0.195L0.54,-0.469L0.443,-0.469L0.443,-0.405C0.404,-0.454 0.349,-0.478 0.276,-0.478C0.209,-0.478 0.153,-0.456 0.108,-0.409C0.063,-0.363 0.041,-0.304 0.041,-0.232L0.041,-0.232ZM0.137,-0.232C0.137,-0.276 0.151,-0.314 0.179,-0.345C0.207,-0.376 0.243,-0.392 0.288,-0.392C0.332,-0.392 0.369,-0.376 0.398,-0.345C0.428,-0.313 0.442,-0.276 0.442,-0.232C0.442,-0.188 0.428,-0.152 0.398,-0.122C0.369,-0.092 0.332,-0.077 0.288,-0.077C0.243,-0.077 0.207,-0.092 0.179,-0.122C0.151,-0.151 0.137,-0.188 0.137,-0.232Z" style="fill:rgb(239,70,83);fill-rule:nonzero;"/>
            </g>
            <g transform="matrix(13,0,0,13,147.953,47.7538)">
                <path d="M0.068,-0.184C0.068,-0.125 0.085,-0.079 0.119,-0.043C0.153,-0.008 0.201,0.01 0.264,0.01C0.304,0.01 0.341,-0.001 0.364,-0.016C0.387,-0.031 0.401,-0.045 0.41,-0.059L0.41,-0L0.507,-0L0.507,-0.469L0.411,-0.469L0.411,-0.205C0.411,-0.167 0.398,-0.137 0.374,-0.115C0.349,-0.093 0.317,-0.082 0.279,-0.082C0.207,-0.082 0.165,-0.127 0.165,-0.205L0.165,-0.469L0.068,-0.469L0.068,-0.184Z" style="fill:rgb(239,70,83);fill-rule:nonzero;"/>
            </g>
            <g transform="matrix(13,0,0,13,155.513,47.7538)">
                <path d="M0.466,-0.061C0.514,-0.107 0.538,-0.166 0.538,-0.234C0.538,-0.303 0.514,-0.361 0.466,-0.408C0.419,-0.455 0.359,-0.478 0.289,-0.478C0.218,-0.478 0.158,-0.455 0.111,-0.408C0.063,-0.361 0.04,-0.303 0.04,-0.234C0.04,-0.166 0.063,-0.107 0.111,-0.061C0.158,-0.014 0.218,0.01 0.289,0.01C0.359,0.01 0.419,-0.014 0.466,-0.061ZM0.18,-0.344C0.208,-0.373 0.245,-0.388 0.289,-0.388C0.333,-0.388 0.369,-0.373 0.398,-0.344C0.427,-0.314 0.441,-0.278 0.441,-0.234C0.441,-0.191 0.427,-0.154 0.398,-0.125C0.369,-0.096 0.333,-0.081 0.289,-0.081C0.245,-0.081 0.208,-0.096 0.18,-0.125C0.151,-0.154 0.136,-0.191 0.136,-0.234C0.136,-0.278 0.151,-0.314 0.18,-0.344Z" style="fill:rgb(239,70,83);fill-rule:nonzero;"/>
            </g>
            <g transform="matrix(13,0,0,13,163.016,47.7538)">
                <path d="M0.171,-0.469L0.074,-0.469L0.074,-0L0.171,-0L0.171,-0.469ZM0.08,-0.583C0.091,-0.572 0.105,-0.566 0.123,-0.566C0.14,-0.566 0.155,-0.572 0.166,-0.583C0.177,-0.594 0.183,-0.608 0.183,-0.626C0.183,-0.644 0.177,-0.658 0.166,-0.669C0.155,-0.68 0.14,-0.686 0.123,-0.686C0.105,-0.686 0.091,-0.68 0.08,-0.669C0.068,-0.658 0.063,-0.644 0.063,-0.626C0.063,-0.608 0.068,-0.594 0.08,-0.583L0.08,-0.583Z" style="fill:rgb(239,70,83);fill-rule:nonzero;"/>
            </g>
        </g>
        <g transform="matrix(4.16667,0,0,4.16667,0,0)">
            <g transform="matrix(13,0,0,13,120.318,61.7538)">
                <path d="M-0.072,0.184C-0.047,0.198 -0.013,0.205 0.033,0.205C0.08,0.205 0.124,0.189 0.159,0.159C0.193,0.129 0.215,0.079 0.215,0.017L0.215,-0.469L0.061,-0.469L0.061,0.005C0.061,0.051 0.041,0.073 -0.001,0.073C-0.016,0.073 -0.035,0.07 -0.059,0.063L-0.072,0.184ZM0.142,-0.529C0.167,-0.529 0.187,-0.537 0.204,-0.552C0.219,-0.568 0.227,-0.588 0.227,-0.613C0.227,-0.663 0.192,-0.697 0.142,-0.697C0.093,-0.697 0.058,-0.663 0.058,-0.613C0.058,-0.563 0.093,-0.529 0.142,-0.529L0.142,-0.529Z" style="fill:rgb(239,70,83);fill-rule:nonzero;"/>
            </g>
            <g transform="matrix(13,0,0,13,123.989,61.7538)">
                <path d="M0.104,-0.059C0.151,-0.013 0.211,0.01 0.286,0.01C0.331,0.01 0.372,0 0.408,-0.019C0.444,-0.038 0.471,-0.062 0.49,-0.092L0.393,-0.178C0.365,-0.144 0.327,-0.12 0.288,-0.12C0.262,-0.12 0.239,-0.126 0.219,-0.14C0.199,-0.152 0.187,-0.171 0.184,-0.195L0.5,-0.195C0.503,-0.214 0.505,-0.232 0.505,-0.25C0.505,-0.325 0.476,-0.387 0.431,-0.423C0.386,-0.459 0.33,-0.478 0.271,-0.478C0.2,-0.478 0.143,-0.456 0.1,-0.41C0.056,-0.365 0.034,-0.306 0.034,-0.234C0.034,-0.163 0.057,-0.104 0.104,-0.059ZM0.275,-0.357C0.299,-0.357 0.319,-0.35 0.336,-0.335C0.354,-0.321 0.362,-0.304 0.363,-0.285L0.184,-0.285C0.19,-0.326 0.224,-0.357 0.275,-0.357Z" style="fill:rgb(239,70,83);fill-rule:nonzero;"/>
            </g>
            <g transform="matrix(13,0,0,13,133.976,61.7538)">
                <path d="M0.222,-0L0.222,-0.261C0.222,-0.285 0.229,-0.304 0.245,-0.318C0.26,-0.331 0.279,-0.338 0.3,-0.338C0.32,-0.338 0.338,-0.331 0.354,-0.318C0.369,-0.304 0.376,-0.285 0.376,-0.261L0.376,-0L0.53,-0L0.53,-0.261C0.53,-0.285 0.538,-0.304 0.554,-0.318C0.57,-0.331 0.588,-0.338 0.609,-0.338C0.63,-0.338 0.648,-0.331 0.664,-0.318C0.679,-0.305 0.686,-0.286 0.686,-0.261L0.686,-0L0.84,-0L0.84,-0.305C0.84,-0.36 0.819,-0.407 0.786,-0.435C0.753,-0.463 0.709,-0.478 0.664,-0.478C0.602,-0.478 0.543,-0.452 0.506,-0.4C0.494,-0.425 0.475,-0.445 0.448,-0.458C0.421,-0.472 0.392,-0.478 0.359,-0.478C0.3,-0.478 0.246,-0.459 0.214,-0.419L0.209,-0.469L0.068,-0.469L0.068,-0L0.222,-0Z" style="fill:rgb(239,70,83);fill-rule:nonzero;"/>
            </g>
            <g transform="matrix(13,0,0,13,145.69,61.7538)">
                <path d="M0.104,-0.059C0.151,-0.013 0.211,0.01 0.286,0.01C0.331,0.01 0.372,0 0.408,-0.019C0.444,-0.038 0.471,-0.062 0.49,-0.092L0.393,-0.178C0.365,-0.144 0.327,-0.12 0.288,-0.12C0.262,-0.12 0.239,-0.126 0.219,-0.14C0.199,-0.152 0.187,-0.171 0.184,-0.195L0.5,-0.195C0.503,-0.214 0.505,-0.232 0.505,-0.25C0.505,-0.325 0.476,-0.387 0.431,-0.423C0.386,-0.459 0.33,-0.478 0.271,-0.478C0.2,-0.478 0.143,-0.456 0.1,-0.41C0.056,-0.365 0.034,-0.306 0.034,-0.234C0.034,-0.163 0.057,-0.104 0.104,-0.059ZM0.275,-0.357C0.299,-0.357 0.319,-0.35 0.336,-0.335C0.354,-0.321 0.362,-0.304 0.363,-0.285L0.184,-0.285C0.19,-0.326 0.224,-0.357 0.275,-0.357Z" style="fill:rgb(239,70,83);fill-rule:nonzero;"/>
            </g>
            <g transform="matrix(13,0,0,13,155.677,61.7538)">
                <path d="M0.222,-0L0.222,-0.261C0.222,-0.285 0.229,-0.304 0.245,-0.318C0.26,-0.331 0.279,-0.338 0.3,-0.338C0.32,-0.338 0.338,-0.331 0.354,-0.318C0.369,-0.304 0.376,-0.285 0.376,-0.261L0.376,-0L0.53,-0L0.53,-0.261C0.53,-0.285 0.538,-0.304 0.554,-0.318C0.57,-0.331 0.588,-0.338 0.609,-0.338C0.63,-0.338 0.648,-0.331 0.664,-0.318C0.679,-0.305 0.686,-0.286 0.686,-0.261L0.686,-0L0.84,-0L0.84,-0.305C0.84,-0.36 0.819,-0.407 0.786,-0.435C0.753,-0.463 0.709,-0.478 0.664,-0.478C0.602,-0.478 0.543,-0.452 0.506,-0.4C0.494,-0.425 0.475,-0.445 0.448,-0.458C0.421,-0.472 0.392,-0.478 0.359,-0.478C0.3,-0.478 0.246,-0.459 0.214,-0.419L0.209,-0.469L0.068,-0.469L0.068,-0L0.222,-0Z" style="fill:rgb(239,70,83);fill-rule:nonzero;"/>
            </g>
            <g transform="matrix(13,0,0,13,167.391,61.7538)">
                <path d="M0.104,-0.059C0.151,-0.013 0.211,0.01 0.286,0.01C0.331,0.01 0.372,0 0.408,-0.019C0.444,-0.038 0.471,-0.062 0.49,-0.092L0.393,-0.178C0.365,-0.144 0.327,-0.12 0.288,-0.12C0.262,-0.12 0.239,-0.126 0.219,-0.14C0.199,-0.152 0.187,-0.171 0.184,-0.195L0.5,-0.195C0.503,-0.214 0.505,-0.232 0.505,-0.25C0.505,-0.325 0.476,-0.387 0.431,-0.423C0.386,-0.459 0.33,-0.478 0.271,-0.478C0.2,-0.478 0.143,-0.456 0.1,-0.41C0.056,-0.365 0.034,-0.306 0.034,-0.234C0.034,-0.163 0.057,-0.104 0.104,-0.059ZM0.267,-0.612L0.326,-0.529L0.455,-0.529L0.315,-0.71L0.219,-0.71L0.079,-0.529L0.208,-0.529L0.267,-0.612ZM0.275,-0.357C0.299,-0.357 0.319,-0.35 0.336,-0.335C0.354,-0.321 0.362,-0.304 0.363,-0.285L0.184,-0.285C0.19,-0.326 0.224,-0.357 0.275,-0.357Z" style="fill:rgb(239,70,83);fill-rule:nonzero;"/>
            </g>
            <g transform="matrix(13,0,0,13,174.395,61.7538)">
                <rect x="0.068" y="-0.688" width="0.154" height="0.688" style="fill:rgb(239,70,83);fill-rule:nonzero;"/>
            </g>
            <g transform="matrix(13,0,0,13,178.156,61.7538)">
                <path d="M0.104,-0.059C0.151,-0.013 0.211,0.01 0.286,0.01C0.331,0.01 0.372,0 0.408,-0.019C0.444,-0.038 0.471,-0.062 0.49,-0.092L0.393,-0.178C0.365,-0.144 0.327,-0.12 0.288,-0.12C0.262,-0.12 0.239,-0.126 0.219,-0.14C0.199,-0.152 0.187,-0.171 0.184,-0.195L0.5,-0.195C0.503,-0.214 0.505,-0.232 0.505,-0.25C0.505,-0.325 0.476,-0.387 0.431,-0.423C0.386,-0.459 0.33,-0.478 0.271,-0.478C0.2,-0.478 0.143,-0.456 0.1,-0.41C0.056,-0.365 0.034,-0.306 0.034,-0.234C0.034,-0.163 0.057,-0.104 0.104,-0.059ZM0.275,-0.357C0.299,-0.357 0.319,-0.35 0.336,-0.335C0.354,-0.321 0.362,-0.304 0.363,-0.285L0.184,-0.285C0.19,-0.326 0.224,-0.357 0.275,-0.357Z" style="fill:rgb(239,70,83);fill-rule:nonzero;"/>
            </g>
            <g transform="matrix(13,0,0,13,188.142,61.7538)">
                <path d="M0.144,-0.441C0.169,-0.5 0.21,-0.535 0.262,-0.535C0.307,-0.535 0.332,-0.509 0.332,-0.476C0.332,-0.461 0.327,-0.447 0.318,-0.435C0.309,-0.423 0.29,-0.404 0.262,-0.378C0.258,-0.375 0.257,-0.374 0.253,-0.37C0.241,-0.359 0.233,-0.351 0.228,-0.346C0.222,-0.34 0.215,-0.333 0.206,-0.322C0.197,-0.311 0.19,-0.301 0.187,-0.293C0.179,-0.277 0.17,-0.25 0.17,-0.224C0.17,-0.213 0.172,-0.2 0.176,-0.183L0.3,-0.183C0.3,-0.191 0.301,-0.199 0.302,-0.206C0.306,-0.221 0.307,-0.228 0.317,-0.24C0.321,-0.247 0.325,-0.251 0.327,-0.253C0.329,-0.256 0.334,-0.26 0.34,-0.268C0.347,-0.274 0.352,-0.279 0.354,-0.281C0.359,-0.288 0.37,-0.297 0.384,-0.31C0.398,-0.322 0.411,-0.334 0.422,-0.345C0.455,-0.377 0.495,-0.429 0.493,-0.484C0.493,-0.547 0.467,-0.598 0.425,-0.627C0.382,-0.657 0.329,-0.673 0.267,-0.673C0.208,-0.673 0.156,-0.657 0.113,-0.626C0.07,-0.596 0.039,-0.554 0.019,-0.501L0.144,-0.441ZM0.239,0.01C0.264,0.01 0.285,0.002 0.301,-0.014C0.316,-0.029 0.324,-0.049 0.324,-0.074C0.324,-0.124 0.29,-0.159 0.239,-0.159C0.19,-0.159 0.155,-0.124 0.155,-0.074C0.155,-0.025 0.19,0.01 0.239,0.01L0.239,0.01Z" style="fill:rgb(239,70,83);fill-rule:nonzero;"/>
            </g>
        </g>
        <g transform="matrix(4.16667,0,0,4.16667,0,0)">
            <g transform="matrix(13,0,0,13,41.7213,47.7538)">
                <path d="M0.232,-0.567L0.232,-0L0.334,-0L0.334,-0.567L0.553,-0.567L0.553,-0.663L0.014,-0.663L0.014,-0.567L0.232,-0.567Z" style="fill:rgb(239,70,83);fill-rule:nonzero;"/>
            </g>
            <g transform="matrix(13,0,0,13,47.8534,47.7538)">
                <path d="M0.068,-0.184C0.068,-0.125 0.085,-0.079 0.119,-0.043C0.153,-0.008 0.201,0.01 0.264,0.01C0.304,0.01 0.341,-0.001 0.364,-0.016C0.387,-0.031 0.401,-0.045 0.41,-0.059L0.41,-0L0.507,-0L0.507,-0.469L0.411,-0.469L0.411,-0.205C0.411,-0.167 0.398,-0.137 0.374,-0.115C0.349,-0.093 0.317,-0.082 0.279,-0.082C0.207,-0.082 0.165,-0.127 0.165,-0.205L0.165,-0.469L0.068,-0.469L0.068,-0.184Z" style="fill:rgb(239,70,83);fill-rule:nonzero;"/>
            </g>
            <g transform="matrix(13,0,0,13,57.8887,47.7538)">
                <path d="M0.041,-0.237C0.041,-0.165 0.063,-0.106 0.108,-0.06C0.153,-0.014 0.209,0.01 0.276,0.01C0.349,0.01 0.404,-0.015 0.443,-0.064L0.443,-0L0.54,-0L0.54,-0.687L0.443,-0.687L0.443,-0.405C0.404,-0.454 0.349,-0.478 0.276,-0.478C0.208,-0.478 0.152,-0.456 0.108,-0.411C0.063,-0.366 0.041,-0.308 0.041,-0.237L0.041,-0.237ZM0.288,-0.392C0.332,-0.392 0.369,-0.377 0.398,-0.347C0.428,-0.317 0.442,-0.28 0.442,-0.237C0.442,-0.193 0.428,-0.155 0.398,-0.124C0.369,-0.093 0.332,-0.077 0.288,-0.077C0.243,-0.077 0.207,-0.093 0.179,-0.124C0.151,-0.155 0.137,-0.192 0.137,-0.237C0.137,-0.281 0.151,-0.317 0.179,-0.347C0.207,-0.377 0.243,-0.392 0.288,-0.392Z" style="fill:rgb(239,70,83);fill-rule:nonzero;"/>
            </g>
            <g transform="matrix(13,0,0,13,65.8692,47.7538)">
                <path d="M0.04,-0.234C0.04,-0.164 0.063,-0.106 0.11,-0.06C0.156,-0.014 0.215,0.01 0.286,0.01C0.329,0.01 0.37,-0.001 0.408,-0.021C0.447,-0.042 0.477,-0.072 0.498,-0.109L0.426,-0.161C0.393,-0.108 0.346,-0.081 0.286,-0.081C0.246,-0.081 0.212,-0.093 0.185,-0.117C0.157,-0.141 0.143,-0.171 0.14,-0.207L0.504,-0.207C0.506,-0.22 0.508,-0.235 0.508,-0.251C0.51,-0.376 0.417,-0.48 0.282,-0.478C0.211,-0.478 0.154,-0.456 0.108,-0.409C0.063,-0.363 0.04,-0.304 0.04,-0.234ZM0.143,-0.279C0.149,-0.312 0.165,-0.339 0.19,-0.36C0.215,-0.381 0.246,-0.391 0.281,-0.391C0.315,-0.391 0.344,-0.381 0.369,-0.36C0.393,-0.339 0.407,-0.312 0.41,-0.279L0.143,-0.279Z" style="fill:rgb(239,70,83);fill-rule:nonzero;"/>
            </g>
            <g transform="matrix(13,0,0,13,72.8848,47.7538)">
                <path d="M0.315,-0L0.499,-0.469L0.395,-0.469L0.257,-0.095L0.119,-0.469L0.015,-0.469L0.2,-0L0.315,-0Z" style="fill:rgb(239,70,83);fill-rule:nonzero;"/>
            </g>
            <g transform="matrix(13,0,0,13,79.5766,47.7538)">
                <path d="M0.171,-0.255C0.171,-0.306 0.187,-0.344 0.212,-0.362C0.237,-0.381 0.262,-0.389 0.29,-0.389C0.309,-0.389 0.328,-0.385 0.348,-0.378L0.358,-0.467L0.35,-0.47C0.339,-0.474 0.315,-0.478 0.293,-0.478C0.237,-0.478 0.197,-0.454 0.171,-0.405L0.171,-0.469L0.074,-0.469L0.074,-0L0.171,-0L0.171,-0.255Z" style="fill:rgb(239,70,83);fill-rule:nonzero;"/>
            </g>
            <g transform="matrix(13,0,0,13,84.269,47.7538)">
                <path d="M0.043,-0.133C0.043,-0.089 0.06,-0.054 0.094,-0.028C0.128,-0.003 0.171,0.01 0.224,0.01C0.287,0.01 0.341,-0.016 0.37,-0.061L0.37,-0L0.465,-0L0.465,-0.293C0.465,-0.351 0.445,-0.396 0.407,-0.429C0.368,-0.462 0.315,-0.478 0.25,-0.478C0.21,-0.478 0.172,-0.469 0.137,-0.45C0.101,-0.431 0.073,-0.409 0.053,-0.383L0.114,-0.323C0.145,-0.359 0.195,-0.388 0.248,-0.388C0.284,-0.388 0.313,-0.378 0.335,-0.359C0.357,-0.339 0.368,-0.315 0.368,-0.285L0.368,-0.26C0.337,-0.274 0.298,-0.282 0.25,-0.282C0.188,-0.282 0.139,-0.268 0.101,-0.241C0.062,-0.213 0.043,-0.177 0.043,-0.133L0.043,-0.133ZM0.141,-0.137C0.141,-0.185 0.187,-0.208 0.252,-0.208C0.299,-0.208 0.345,-0.197 0.368,-0.186C0.368,-0.153 0.356,-0.126 0.332,-0.103C0.307,-0.081 0.276,-0.069 0.238,-0.069C0.21,-0.069 0.187,-0.075 0.168,-0.087C0.15,-0.1 0.141,-0.116 0.141,-0.137L0.141,-0.137Z" style="fill:rgb(239,70,83);fill-rule:nonzero;"/>
            </g>
            <g transform="matrix(13,0,0,13,91.1957,47.7538)">
                <path d="M0.171,-0.469L0.074,-0.469L0.074,-0L0.171,-0L0.171,-0.469ZM0.08,-0.583C0.091,-0.572 0.105,-0.566 0.123,-0.566C0.14,-0.566 0.155,-0.572 0.166,-0.583C0.177,-0.594 0.183,-0.608 0.183,-0.626C0.183,-0.644 0.177,-0.658 0.166,-0.669C0.155,-0.68 0.14,-0.686 0.123,-0.686C0.105,-0.686 0.091,-0.68 0.08,-0.669C0.068,-0.658 0.063,-0.644 0.063,-0.626C0.063,-0.608 0.068,-0.594 0.08,-0.583L0.08,-0.583Z" style="fill:rgb(239,70,83);fill-rule:nonzero;"/>
            </g>
            <g transform="matrix(13,0,0,13,94.3836,47.7538)">
                <path d="M0.038,-0.099C0.056,-0.065 0.084,-0.039 0.119,-0.02C0.155,-0 0.195,0.01 0.241,0.01C0.292,0.01 0.336,-0.003 0.372,-0.029C0.408,-0.055 0.426,-0.089 0.426,-0.131C0.426,-0.174 0.411,-0.206 0.38,-0.229C0.348,-0.252 0.313,-0.265 0.258,-0.278C0.225,-0.286 0.212,-0.29 0.192,-0.297C0.164,-0.307 0.157,-0.318 0.154,-0.34C0.154,-0.37 0.185,-0.39 0.232,-0.39C0.282,-0.39 0.323,-0.369 0.353,-0.326L0.417,-0.382C0.4,-0.41 0.376,-0.433 0.343,-0.451C0.311,-0.469 0.273,-0.478 0.232,-0.478C0.183,-0.478 0.142,-0.466 0.108,-0.44C0.075,-0.414 0.059,-0.38 0.059,-0.339C0.059,-0.294 0.075,-0.261 0.108,-0.239C0.141,-0.217 0.176,-0.204 0.231,-0.192C0.268,-0.184 0.293,-0.175 0.308,-0.167C0.322,-0.159 0.329,-0.147 0.329,-0.131C0.329,-0.1 0.292,-0.079 0.241,-0.079C0.184,-0.079 0.137,-0.108 0.11,-0.157L0.038,-0.099Z" style="fill:rgb(239,70,83);fill-rule:nonzero;"/>
            </g>
        </g>
        <g transform="matrix(4.16667,0,0,4.16667,0,0)">
            <g transform="matrix(13,0,0,13,14.547,61.7538)">
                <path d="M0.092,-0L0.246,-0L0.246,-0.343L0.37,-0.343L0.37,-0.469L0.24,-0.469L0.24,-0.501C0.24,-0.548 0.274,-0.568 0.319,-0.568C0.342,-0.568 0.363,-0.564 0.381,-0.557L0.397,-0.682C0.362,-0.692 0.329,-0.697 0.297,-0.697C0.228,-0.697 0.172,-0.675 0.14,-0.64C0.108,-0.605 0.092,-0.56 0.092,-0.51L0.092,-0.469L0.015,-0.469L0.015,-0.343L0.092,-0.343L0.092,-0Z" style="fill:rgb(239,70,83);fill-rule:nonzero;"/>
            </g>
            <g transform="matrix(13,0,0,13,19.3013,61.7538)">
                <path d="M0.211,0.01C0.265,0.01 0.311,-0.014 0.336,-0.048L0.336,-0L0.482,-0L0.482,-0.278C0.482,-0.341 0.462,-0.39 0.422,-0.425C0.381,-0.461 0.325,-0.478 0.254,-0.478C0.208,-0.478 0.167,-0.469 0.132,-0.449C0.096,-0.43 0.066,-0.407 0.043,-0.382L0.128,-0.291C0.155,-0.321 0.196,-0.343 0.241,-0.343C0.295,-0.343 0.329,-0.317 0.329,-0.279L0.329,-0.27C0.299,-0.278 0.268,-0.282 0.235,-0.282C0.129,-0.284 0.036,-0.224 0.037,-0.133C0.037,-0.089 0.053,-0.055 0.086,-0.029C0.119,-0.003 0.161,0.01 0.211,0.01ZM0.184,-0.142C0.184,-0.172 0.214,-0.189 0.262,-0.189C0.288,-0.189 0.31,-0.185 0.329,-0.177C0.329,-0.152 0.321,-0.133 0.305,-0.118C0.289,-0.103 0.269,-0.095 0.245,-0.095C0.209,-0.095 0.184,-0.114 0.184,-0.142Z" style="fill:rgb(239,70,83);fill-rule:nonzero;"/>
            </g>
            <g transform="matrix(13,0,0,13,26.3661,61.7538)">
                <path d="M0.068,-0L0.222,-0L0.222,-0.469L0.068,-0.469L0.068,-0ZM0.058,-0.613C0.058,-0.563 0.093,-0.529 0.142,-0.529C0.167,-0.529 0.187,-0.537 0.204,-0.552C0.219,-0.568 0.227,-0.588 0.227,-0.613C0.227,-0.663 0.192,-0.697 0.142,-0.697C0.093,-0.697 0.058,-0.663 0.058,-0.613Z" style="fill:rgb(239,70,83);fill-rule:nonzero;"/>
            </g>
            <g transform="matrix(13,0,0,13,30.1239,61.7538)">
                <path d="M0.222,-0.226C0.222,-0.308 0.265,-0.345 0.329,-0.345C0.349,-0.345 0.369,-0.341 0.388,-0.335L0.397,-0.469C0.377,-0.475 0.358,-0.478 0.34,-0.478C0.286,-0.478 0.24,-0.451 0.218,-0.405L0.213,-0.469L0.068,-0.469L0.068,-0L0.222,-0L0.222,-0.226Z" style="fill:rgb(239,70,83);fill-rule:nonzero;"/>
            </g>
            <g transform="matrix(13,0,0,13,35.1892,61.7538)">
                <path d="M0.104,-0.059C0.151,-0.013 0.211,0.01 0.286,0.01C0.331,0.01 0.372,0 0.408,-0.019C0.444,-0.038 0.471,-0.062 0.49,-0.092L0.393,-0.178C0.365,-0.144 0.327,-0.12 0.288,-0.12C0.262,-0.12 0.239,-0.126 0.219,-0.14C0.199,-0.152 0.187,-0.171 0.184,-0.195L0.5,-0.195C0.503,-0.214 0.505,-0.232 0.505,-0.25C0.505,-0.325 0.476,-0.387 0.431,-0.423C0.386,-0.459 0.33,-0.478 0.271,-0.478C0.2,-0.478 0.143,-0.456 0.1,-0.41C0.056,-0.365 0.034,-0.306 0.034,-0.234C0.034,-0.163 0.057,-0.104 0.104,-0.059ZM0.275,-0.357C0.299,-0.357 0.319,-0.35 0.336,-0.335C0.354,-0.321 0.362,-0.304 0.363,-0.285L0.184,-0.285C0.19,-0.326 0.224,-0.357 0.275,-0.357Z" style="fill:rgb(239,70,83);fill-rule:nonzero;"/>
            </g>
            <g transform="matrix(13,0,0,13,45.1731,61.7538)">
                <path d="M0.211,0.01C0.265,0.01 0.311,-0.014 0.336,-0.048L0.336,-0L0.482,-0L0.482,-0.278C0.482,-0.341 0.462,-0.39 0.422,-0.425C0.381,-0.461 0.325,-0.478 0.254,-0.478C0.208,-0.478 0.167,-0.469 0.132,-0.449C0.096,-0.43 0.066,-0.407 0.043,-0.382L0.128,-0.291C0.155,-0.321 0.196,-0.343 0.241,-0.343C0.295,-0.343 0.329,-0.317 0.329,-0.279L0.329,-0.27C0.299,-0.278 0.268,-0.282 0.235,-0.282C0.129,-0.284 0.036,-0.224 0.037,-0.133C0.037,-0.089 0.053,-0.055 0.086,-0.029C0.119,-0.003 0.161,0.01 0.211,0.01ZM0.184,-0.142C0.184,-0.172 0.214,-0.189 0.262,-0.189C0.288,-0.189 0.31,-0.185 0.329,-0.177C0.329,-0.152 0.321,-0.133 0.305,-0.118C0.289,-0.103 0.269,-0.095 0.245,-0.095C0.209,-0.095 0.184,-0.114 0.184,-0.142Z" style="fill:rgb(239,70,83);fill-rule:nonzero;"/>
            </g>
            <g transform="matrix(13,0,0,13,52.1618,61.7538)">
                <path d="M0.087,-0.343L0.087,-0.167C0.087,-0.107 0.104,-0.062 0.138,-0.034C0.171,-0.005 0.216,0.01 0.272,0.01C0.316,0.01 0.366,-0.001 0.397,-0.017L0.386,-0.142C0.359,-0.131 0.334,-0.125 0.311,-0.125C0.264,-0.125 0.241,-0.147 0.241,-0.192L0.241,-0.343L0.378,-0.343L0.378,-0.469L0.236,-0.469L0.236,-0.619L0.087,-0.619L0.087,-0.469L0.013,-0.469L0.013,-0.343L0.087,-0.343Z" style="fill:rgb(239,70,83);fill-rule:nonzero;"/>
            </g>
            <g transform="matrix(13,0,0,13,57.4556,61.7538)">
                <path d="M0.087,-0.343L0.087,-0.167C0.087,-0.107 0.104,-0.062 0.138,-0.034C0.171,-0.005 0.216,0.01 0.272,0.01C0.316,0.01 0.366,-0.001 0.397,-0.017L0.386,-0.142C0.359,-0.131 0.334,-0.125 0.311,-0.125C0.264,-0.125 0.241,-0.147 0.241,-0.192L0.241,-0.343L0.378,-0.343L0.378,-0.469L0.236,-0.469L0.236,-0.619L0.087,-0.619L0.087,-0.469L0.013,-0.469L0.013,-0.343L0.087,-0.343Z" style="fill:rgb(239,70,83);fill-rule:nonzero;"/>
            </g>
            <g transform="matrix(13,0,0,13,62.6035,61.7538)">
                <path d="M0.104,-0.059C0.151,-0.013 0.211,0.01 0.286,0.01C0.331,0.01 0.372,0 0.408,-0.019C0.444,-0.038 0.471,-0.062 0.49,-0.092L0.393,-0.178C0.365,-0.144 0.327,-0.12 0.288,-0.12C0.262,-0.12 0.239,-0.126 0.219,-0.14C0.199,-0.152 0.187,-0.171 0.184,-0.195L0.5,-0.195C0.503,-0.214 0.505,-0.232 0.505,-0.25C0.505,-0.325 0.476,-0.387 0.431,-0.423C0.386,-0.459 0.33,-0.478 0.271,-0.478C0.2,-0.478 0.143,-0.456 0.1,-0.41C0.056,-0.365 0.034,-0.306 0.034,-0.234C0.034,-0.163 0.057,-0.104 0.104,-0.059ZM0.275,-0.357C0.299,-0.357 0.319,-0.35 0.336,-0.335C0.354,-0.321 0.362,-0.304 0.363,-0.285L0.184,-0.285C0.19,-0.326 0.224,-0.357 0.275,-0.357Z" style="fill:rgb(239,70,83);fill-rule:nonzero;"/>
            </g>
            <g transform="matrix(13,0,0,13,69.6048,61.7538)">
                <path d="M0.208,-0.261C0.208,-0.285 0.216,-0.304 0.232,-0.318C0.247,-0.331 0.266,-0.338 0.287,-0.338C0.307,-0.338 0.325,-0.331 0.341,-0.318C0.357,-0.304 0.365,-0.285 0.365,-0.261L0.365,-0L0.519,-0L0.519,-0.305C0.519,-0.416 0.434,-0.478 0.346,-0.478C0.287,-0.478 0.232,-0.459 0.201,-0.419L0.196,-0.469L0.055,-0.469L0.055,-0L0.208,-0L0.208,-0.261Z" style="fill:rgb(239,70,83);fill-rule:nonzero;"/>
            </g>
            <g transform="matrix(13,0,0,13,76.9046,61.7538)">
                <path d="M0.087,-0.343L0.087,-0.167C0.087,-0.107 0.104,-0.062 0.138,-0.034C0.171,-0.005 0.216,0.01 0.272,0.01C0.316,0.01 0.366,-0.001 0.397,-0.017L0.386,-0.142C0.359,-0.131 0.334,-0.125 0.311,-0.125C0.264,-0.125 0.241,-0.147 0.241,-0.192L0.241,-0.343L0.378,-0.343L0.378,-0.469L0.236,-0.469L0.236,-0.619L0.087,-0.619L0.087,-0.469L0.013,-0.469L0.013,-0.343L0.087,-0.343Z" style="fill:rgb(239,70,83);fill-rule:nonzero;"/>
            </g>
            <g transform="matrix(13,0,0,13,82.1984,61.7538)">
                <path d="M0.068,-0L0.222,-0L0.222,-0.469L0.068,-0.469L0.068,-0ZM0.058,-0.613C0.058,-0.563 0.093,-0.529 0.142,-0.529C0.167,-0.529 0.187,-0.537 0.204,-0.552C0.219,-0.568 0.227,-0.588 0.227,-0.613C0.227,-0.663 0.192,-0.697 0.142,-0.697C0.093,-0.697 0.058,-0.663 0.058,-0.613Z" style="fill:rgb(239,70,83);fill-rule:nonzero;"/>
            </g>
            <g transform="matrix(13,0,0,13,85.9561,61.7538)">
                <path d="M0.105,-0.06C0.153,-0.014 0.213,0.01 0.285,0.01C0.357,0.01 0.417,-0.014 0.465,-0.06C0.513,-0.106 0.537,-0.165 0.537,-0.234C0.537,-0.304 0.513,-0.363 0.465,-0.409C0.417,-0.456 0.357,-0.478 0.285,-0.478C0.213,-0.478 0.153,-0.456 0.105,-0.409C0.057,-0.363 0.033,-0.304 0.033,-0.234C0.033,-0.165 0.057,-0.106 0.105,-0.06ZM0.186,-0.234C0.186,-0.264 0.195,-0.288 0.214,-0.308C0.232,-0.327 0.256,-0.337 0.285,-0.337C0.314,-0.337 0.338,-0.327 0.357,-0.308C0.376,-0.288 0.385,-0.264 0.385,-0.234C0.385,-0.205 0.376,-0.18 0.357,-0.16C0.338,-0.14 0.314,-0.13 0.285,-0.13C0.256,-0.13 0.232,-0.14 0.214,-0.16C0.195,-0.18 0.186,-0.205 0.186,-0.234Z" style="fill:rgb(239,70,83);fill-rule:nonzero;"/>
            </g>
            <g transform="matrix(13,0,0,13,93.3637,61.7538)">
                <path d="M0.208,-0.261C0.208,-0.285 0.216,-0.304 0.232,-0.318C0.247,-0.331 0.266,-0.338 0.287,-0.338C0.307,-0.338 0.325,-0.331 0.341,-0.318C0.357,-0.304 0.365,-0.285 0.365,-0.261L0.365,-0L0.519,-0L0.519,-0.305C0.519,-0.416 0.434,-0.478 0.346,-0.478C0.287,-0.478 0.232,-0.459 0.201,-0.419L0.196,-0.469L0.055,-0.469L0.055,-0L0.208,-0L0.208,-0.261Z" style="fill:rgb(239,70,83);fill-rule:nonzero;"/>
            </g>
        </g>
        <g transform="matrix(0,4.16667,4.16667,0,582.788,225.488)">
            <path d="M-29.343,-29.343L29.343,-29.343" style="fill:none;fill-rule:nonzero;stroke:rgb(239,70,83);stroke-width:1px;"/>
        </g>
        <g transform="matrix(4.16667,0,0,4.16667,-25,1240.16)">
            <path d="M0,-297.638L-15,-297.638M221.764,-297.638L236.764,-297.638M0,0L-15,0M221.764,0L236.764,0M6,-303.638L6,-318.638M6,6L6,21M215.764,-303.638L215.764,-318.638M215.764,6L215.764,21" style="fill:none;fill-rule:nonzero;stroke:white;stroke-width:1.25px;stroke-miterlimit:10;"/>
        </g>
        <g transform="matrix(4.16667,0,0,4.16667,0,0)">
            <clipPath id="_clip1">
                <rect x="-26.669" y="-26.669" width="263.102" height="350.976" clip-rule="nonzero"/>
            </clipPath>
            <g clip-path="url(#_clip1)">
                <g transform="matrix(1,0,0,1,-6,297.638)">
                    <path d="M0,-297.638L-15,-297.638M221.764,-297.638L236.764,-297.638M0,0L-15,0M221.764,0L236.764,0M6,-303.638L6,-318.638M6,6L6,21M215.764,-303.638L215.764,-318.638M215.764,6L215.764,21" style="fill:none;fill-rule:nonzero;stroke:black;stroke-width:0.25px;stroke-miterlimit:10;"/>
                </g>
                <g transform="matrix(1,0,0,1,-8.6693,303.307)">
                    <path d="M0,-308.976L-18,-308.976M227.102,-308.976L245.102,-308.976M0,0L-18,0M227.102,0L245.102,0M3,-311.976L3,-329.976M3,3L3,21M224.102,-311.976L224.102,-329.976M224.102,3L224.102,21" style="fill:none;fill-rule:nonzero;stroke:white;stroke-width:1.25px;stroke-miterlimit:10;"/>
                </g>
                <g transform="matrix(1,0,0,1,-8.6693,303.307)">
                    <path d="M0,-308.976L-18,-308.976M227.102,-308.976L245.102,-308.976M0,0L-18,0M227.102,0L245.102,0M3,-311.976L3,-329.976M3,3L3,21M224.102,-311.976L224.102,-329.976M224.102,3L224.102,21" style="fill:none;fill-rule:nonzero;stroke:black;stroke-width:0.25px;stroke-miterlimit:10;"/>
                </g>
                <g transform="matrix(0,-1,-1,0,104.882,-18.5001)">
                    <circle cx="-5" cy="0" r="5" style="fill:none;stroke:white;stroke-width:1.25px;stroke-miterlimit:10;"/>
                </g>
                <g transform="matrix(0,1,1,0,110.882,-13.5001)">
                    <path d="M-6,-6L6,-6" style="fill:none;fill-rule:nonzero;stroke:white;stroke-width:1.25px;stroke-miterlimit:10;"/>
                </g>
                <g transform="matrix(0,-1,-1,0,104.882,-16.5001)">
                    <circle cx="-3" cy="0" r="3" style="fill:none;stroke:white;stroke-width:1.25px;stroke-miterlimit:10;"/>
                </g>
            </g>
        </g>
    </g>
</svg>
