<?xml version="1.0" encoding="UTF-8" standalone="no"?>
<!DOCTYPE svg PUBLIC "-//W3C//DTD SVG 1.1//EN" "http://www.w3.org/Graphics/SVG/1.1/DTD/svg11.dtd">
<svg width="100%" height="100%" viewBox="0 0 922 411" version="1.1" xmlns="http://www.w3.org/2000/svg" xmlns:xlink="http://www.w3.org/1999/xlink" xml:space="preserve" xmlns:serif="http://www.serif.com/" style="fill-rule:evenodd;clip-rule:evenodd;">
    <g transform="matrix(1,0,0,1,23.6221,23.6208)">
        <rect id="Plan-de-travail1" serif:id="Plan de travail1" x="0" y="0" width="874.015" height="363.111" style="fill:none;"/>
        <g transform="matrix(4.16667,0,0,4.16667,0,0)">
            <g transform="matrix(16,0,0,16,113.231,49.8163)">
                <path d="M0.189,-0L0.189,-0.475L0.4,-0.047L0.473,-0.047L0.684,-0.475L0.684,-0L0.787,-0L0.787,-0.663L0.666,-0.663L0.437,-0.191L0.207,-0.663L0.086,-0.663L0.086,-0L0.189,-0Z" style="fill:rgb(72,159,113);fill-rule:nonzero;"/>
            </g>
            <g transform="matrix(16,0,0,16,127.201,49.8163)">
                <path d="M0.04,-0.234C0.04,-0.164 0.063,-0.106 0.11,-0.06C0.156,-0.014 0.215,0.01 0.286,0.01C0.329,0.01 0.37,-0.001 0.408,-0.021C0.447,-0.042 0.477,-0.072 0.498,-0.109L0.426,-0.161C0.393,-0.108 0.346,-0.081 0.286,-0.081C0.246,-0.081 0.212,-0.093 0.185,-0.117C0.157,-0.141 0.143,-0.171 0.14,-0.207L0.504,-0.207C0.506,-0.22 0.508,-0.235 0.508,-0.251C0.51,-0.376 0.417,-0.48 0.282,-0.478C0.211,-0.478 0.154,-0.456 0.108,-0.409C0.063,-0.363 0.04,-0.304 0.04,-0.234ZM0.143,-0.279C0.149,-0.312 0.165,-0.339 0.19,-0.36C0.215,-0.381 0.246,-0.391 0.281,-0.391C0.315,-0.391 0.344,-0.381 0.369,-0.36C0.393,-0.339 0.407,-0.312 0.41,-0.279L0.143,-0.279Z" style="fill:rgb(72,159,113);fill-rule:nonzero;"/>
            </g>
            <g transform="matrix(16,0,0,16,135.976,49.8163)">
                <path d="M0.171,-0.255C0.171,-0.306 0.187,-0.344 0.212,-0.362C0.237,-0.381 0.262,-0.389 0.29,-0.389C0.309,-0.389 0.328,-0.385 0.348,-0.378L0.358,-0.467L0.35,-0.47C0.339,-0.474 0.315,-0.478 0.293,-0.478C0.237,-0.478 0.197,-0.454 0.171,-0.405L0.171,-0.469L0.074,-0.469L0.074,-0L0.171,-0L0.171,-0.255Z" style="fill:rgb(72,159,113);fill-rule:nonzero;"/>
            </g>
            <g transform="matrix(16,0,0,16,141.688,49.8163)">
                <path d="M0.288,0.01C0.334,0.01 0.377,-0.001 0.415,-0.024C0.453,-0.047 0.483,-0.078 0.505,-0.118L0.432,-0.169C0.399,-0.113 0.349,-0.081 0.288,-0.081C0.245,-0.081 0.209,-0.096 0.18,-0.125C0.151,-0.155 0.137,-0.191 0.137,-0.235C0.137,-0.278 0.151,-0.315 0.18,-0.344C0.209,-0.373 0.246,-0.388 0.29,-0.388C0.348,-0.388 0.401,-0.354 0.431,-0.299L0.505,-0.35C0.461,-0.431 0.384,-0.478 0.292,-0.478C0.153,-0.481 0.037,-0.369 0.04,-0.235C0.04,-0.166 0.063,-0.108 0.111,-0.061C0.158,-0.014 0.217,0.01 0.288,0.01Z" style="fill:rgb(72,159,113);fill-rule:nonzero;"/>
            </g>
            <g transform="matrix(16,0,0,16,150.26,49.8163)">
                <path d="M0.171,-0.469L0.074,-0.469L0.074,-0L0.171,-0L0.171,-0.469ZM0.08,-0.583C0.091,-0.572 0.105,-0.566 0.123,-0.566C0.14,-0.566 0.155,-0.572 0.166,-0.583C0.177,-0.594 0.183,-0.608 0.183,-0.626C0.183,-0.644 0.177,-0.658 0.166,-0.669C0.155,-0.68 0.14,-0.686 0.123,-0.686C0.105,-0.686 0.091,-0.68 0.08,-0.669C0.068,-0.658 0.063,-0.644 0.063,-0.626C0.063,-0.608 0.068,-0.594 0.08,-0.583L0.08,-0.583Z" style="fill:rgb(72,159,113);fill-rule:nonzero;"/>
            </g>
        </g>
        <g transform="matrix(4.16667,0,0,4.16667,0,0)">
            <g transform="matrix(16,0,0,16,113.231,68.5558)">
                <path d="M0.217,-0L0.222,-0.036C0.235,-0.022 0.254,-0.011 0.279,-0.003C0.304,0.005 0.331,0.01 0.359,0.01C0.425,0.01 0.478,-0.013 0.518,-0.059C0.558,-0.104 0.578,-0.163 0.578,-0.233C0.578,-0.305 0.558,-0.363 0.518,-0.41C0.478,-0.456 0.425,-0.478 0.359,-0.478C0.296,-0.478 0.249,-0.459 0.217,-0.419L0.217,-0.687L0.068,-0.687L0.068,-0L0.217,-0ZM0.32,-0.341C0.35,-0.341 0.375,-0.331 0.394,-0.312C0.414,-0.292 0.423,-0.266 0.423,-0.234C0.423,-0.204 0.414,-0.178 0.394,-0.158C0.374,-0.138 0.35,-0.128 0.32,-0.128C0.291,-0.128 0.267,-0.138 0.248,-0.158C0.229,-0.178 0.22,-0.203 0.22,-0.234C0.22,-0.266 0.229,-0.291 0.248,-0.311C0.267,-0.331 0.291,-0.341 0.32,-0.341Z" style="fill:rgb(72,159,113);fill-rule:nonzero;"/>
            </g>
            <g transform="matrix(16,0,0,16,123.02,68.5558)">
                <path d="M0.104,-0.059C0.151,-0.013 0.211,0.01 0.286,0.01C0.331,0.01 0.372,0 0.408,-0.019C0.444,-0.038 0.471,-0.062 0.49,-0.092L0.393,-0.178C0.365,-0.144 0.327,-0.12 0.288,-0.12C0.262,-0.12 0.239,-0.126 0.219,-0.14C0.199,-0.152 0.187,-0.171 0.184,-0.195L0.5,-0.195C0.503,-0.214 0.505,-0.232 0.505,-0.25C0.505,-0.325 0.476,-0.387 0.431,-0.423C0.386,-0.459 0.33,-0.478 0.271,-0.478C0.2,-0.478 0.143,-0.456 0.1,-0.41C0.056,-0.365 0.034,-0.306 0.034,-0.234C0.034,-0.163 0.057,-0.104 0.104,-0.059ZM0.275,-0.357C0.299,-0.357 0.319,-0.35 0.336,-0.335C0.354,-0.321 0.362,-0.304 0.363,-0.285L0.184,-0.285C0.19,-0.326 0.224,-0.357 0.275,-0.357Z" style="fill:rgb(72,159,113);fill-rule:nonzero;"/>
            </g>
            <g transform="matrix(16,0,0,16,131.638,68.5558)">
                <path d="M0.211,0.01C0.265,0.01 0.311,-0.014 0.336,-0.048L0.336,-0L0.482,-0L0.482,-0.278C0.482,-0.341 0.462,-0.39 0.422,-0.425C0.381,-0.461 0.325,-0.478 0.254,-0.478C0.208,-0.478 0.167,-0.469 0.132,-0.449C0.096,-0.43 0.066,-0.407 0.043,-0.382L0.128,-0.291C0.155,-0.321 0.196,-0.343 0.241,-0.343C0.295,-0.343 0.329,-0.317 0.329,-0.279L0.329,-0.27C0.299,-0.278 0.268,-0.282 0.235,-0.282C0.129,-0.284 0.036,-0.224 0.037,-0.133C0.037,-0.089 0.053,-0.055 0.086,-0.029C0.119,-0.003 0.161,0.01 0.211,0.01ZM0.184,-0.142C0.184,-0.172 0.214,-0.189 0.262,-0.189C0.288,-0.189 0.31,-0.185 0.329,-0.177C0.329,-0.152 0.321,-0.133 0.305,-0.118C0.289,-0.103 0.269,-0.095 0.245,-0.095C0.209,-0.095 0.184,-0.114 0.184,-0.142Z" style="fill:rgb(72,159,113);fill-rule:nonzero;"/>
            </g>
            <g transform="matrix(16,0,0,16,140.333,68.5558)">
                <path d="M0.235,0.015C0.294,0.015 0.348,-0.005 0.38,-0.044L0.385,-0L0.526,-0L0.526,-0.469L0.372,-0.469L0.372,-0.203C0.372,-0.179 0.364,-0.16 0.349,-0.146C0.334,-0.133 0.315,-0.126 0.294,-0.126C0.273,-0.126 0.255,-0.133 0.239,-0.146C0.223,-0.16 0.215,-0.179 0.215,-0.203L0.215,-0.469L0.062,-0.469L0.062,-0.159C0.062,-0.048 0.146,0.015 0.235,0.015Z" style="fill:rgb(72,159,113);fill-rule:nonzero;"/>
            </g>
            <g transform="matrix(16,0,0,16,149.826,68.5558)">
                <path d="M0.28,0.01C0.378,0.01 0.453,-0.031 0.504,-0.112L0.388,-0.197C0.362,-0.153 0.328,-0.13 0.285,-0.13C0.256,-0.13 0.232,-0.14 0.214,-0.16C0.195,-0.18 0.186,-0.205 0.186,-0.234C0.186,-0.264 0.195,-0.288 0.214,-0.308C0.232,-0.327 0.256,-0.337 0.285,-0.337C0.33,-0.337 0.367,-0.312 0.384,-0.269L0.503,-0.353C0.483,-0.39 0.455,-0.419 0.416,-0.443C0.377,-0.467 0.334,-0.478 0.285,-0.478C0.213,-0.478 0.153,-0.456 0.105,-0.409C0.057,-0.363 0.033,-0.304 0.033,-0.234C0.033,-0.164 0.057,-0.106 0.103,-0.06C0.149,-0.013 0.208,0.01 0.28,0.01L0.28,0.01Z" style="fill:rgb(72,159,113);fill-rule:nonzero;"/>
            </g>
            <g transform="matrix(16,0,0,16,158.201,68.5558)">
                <path d="M0.105,-0.06C0.153,-0.014 0.213,0.01 0.285,0.01C0.357,0.01 0.417,-0.014 0.465,-0.06C0.513,-0.106 0.537,-0.165 0.537,-0.234C0.537,-0.304 0.513,-0.363 0.465,-0.409C0.417,-0.456 0.357,-0.478 0.285,-0.478C0.213,-0.478 0.153,-0.456 0.105,-0.409C0.057,-0.363 0.033,-0.304 0.033,-0.234C0.033,-0.165 0.057,-0.106 0.105,-0.06ZM0.186,-0.234C0.186,-0.264 0.195,-0.288 0.214,-0.308C0.232,-0.327 0.256,-0.337 0.285,-0.337C0.314,-0.337 0.338,-0.327 0.357,-0.308C0.376,-0.288 0.385,-0.264 0.385,-0.234C0.385,-0.205 0.376,-0.18 0.357,-0.16C0.338,-0.14 0.314,-0.13 0.285,-0.13C0.256,-0.13 0.232,-0.14 0.214,-0.16C0.195,-0.18 0.186,-0.205 0.186,-0.234Z" style="fill:rgb(72,159,113);fill-rule:nonzero;"/>
            </g>
            <g transform="matrix(16,0,0,16,167.319,68.5558)">
                <path d="M0.235,0.015C0.294,0.015 0.348,-0.005 0.38,-0.044L0.385,-0L0.526,-0L0.526,-0.469L0.372,-0.469L0.372,-0.203C0.372,-0.179 0.364,-0.16 0.349,-0.146C0.334,-0.133 0.315,-0.126 0.294,-0.126C0.273,-0.126 0.255,-0.133 0.239,-0.146C0.223,-0.16 0.215,-0.179 0.215,-0.203L0.215,-0.469L0.062,-0.469L0.062,-0.159C0.062,-0.048 0.146,0.015 0.235,0.015Z" style="fill:rgb(72,159,113);fill-rule:nonzero;"/>
            </g>
            <g transform="matrix(16,0,0,16,176.811,68.5558)">
                <path d="M0.222,0.195L0.222,-0.035C0.249,-0.007 0.302,0.01 0.359,0.01C0.425,0.01 0.478,-0.013 0.518,-0.059C0.558,-0.104 0.578,-0.163 0.578,-0.233C0.578,-0.305 0.558,-0.363 0.518,-0.41C0.478,-0.456 0.425,-0.478 0.359,-0.478C0.296,-0.478 0.249,-0.459 0.217,-0.419L0.212,-0.469L0.068,-0.469L0.068,0.195L0.222,0.195ZM0.32,-0.341C0.35,-0.341 0.375,-0.331 0.394,-0.312C0.414,-0.292 0.423,-0.266 0.423,-0.234C0.423,-0.204 0.414,-0.178 0.394,-0.158C0.374,-0.138 0.35,-0.128 0.32,-0.128C0.291,-0.128 0.267,-0.138 0.248,-0.158C0.229,-0.178 0.22,-0.203 0.22,-0.234C0.22,-0.266 0.229,-0.291 0.248,-0.311C0.267,-0.331 0.291,-0.341 0.32,-0.341Z" style="fill:rgb(72,159,113);fill-rule:nonzero;"/>
            </g>
            <g transform="matrix(16,0,0,16,190.268,68.5558)">
                <path d="M0.097,-0.199L0.208,-0.199L0.236,-0.663L0.068,-0.663L0.097,-0.199ZM0.212,-0.015C0.228,-0.031 0.237,-0.05 0.237,-0.074C0.237,-0.098 0.228,-0.118 0.212,-0.134C0.196,-0.15 0.175,-0.158 0.151,-0.158C0.127,-0.158 0.107,-0.15 0.091,-0.134C0.075,-0.118 0.066,-0.098 0.066,-0.074C0.066,-0.05 0.075,-0.031 0.091,-0.015C0.107,0.002 0.127,0.01 0.151,0.01C0.175,0.01 0.196,0.002 0.212,-0.015Z" style="fill:rgb(72,159,113);fill-rule:nonzero;"/>
            </g>
        </g>
        <g transform="matrix(4.16667,0,0,4.16667,0,0)">
            <g transform="matrix(16,0,0,16,50.195,49.8163)">
                <path d="M0.202,0.01C0.272,0.01 0.328,-0.012 0.369,-0.054C0.409,-0.097 0.429,-0.155 0.429,-0.231L0.429,-0.663L0.326,-0.663L0.326,-0.238C0.326,-0.141 0.28,-0.085 0.201,-0.085C0.152,-0.085 0.108,-0.11 0.07,-0.161L0.003,-0.092C0.047,-0.027 0.118,0.01 0.202,0.01Z" style="fill:rgb(72,159,113);fill-rule:nonzero;"/>
            </g>
            <g transform="matrix(16,0,0,16,58.3302,49.8163)">
                <path d="M0.04,-0.234C0.04,-0.164 0.063,-0.106 0.11,-0.06C0.156,-0.014 0.215,0.01 0.286,0.01C0.329,0.01 0.37,-0.001 0.408,-0.021C0.447,-0.042 0.477,-0.072 0.498,-0.109L0.426,-0.161C0.393,-0.108 0.346,-0.081 0.286,-0.081C0.246,-0.081 0.212,-0.093 0.185,-0.117C0.157,-0.141 0.143,-0.171 0.14,-0.207L0.504,-0.207C0.506,-0.22 0.508,-0.235 0.508,-0.251C0.51,-0.376 0.417,-0.48 0.282,-0.478C0.211,-0.478 0.154,-0.456 0.108,-0.409C0.063,-0.363 0.04,-0.304 0.04,-0.234ZM0.143,-0.279C0.149,-0.312 0.165,-0.339 0.19,-0.36C0.215,-0.381 0.246,-0.391 0.281,-0.391C0.315,-0.391 0.344,-0.381 0.369,-0.36C0.393,-0.339 0.407,-0.312 0.41,-0.279L0.143,-0.279Z" style="fill:rgb(72,159,113);fill-rule:nonzero;"/>
            </g>
            <g transform="matrix(16,0,0,16,70.7804,49.8163)">
                <path d="M0.103,-0.141C0.103,-0.093 0.117,-0.057 0.146,-0.03C0.174,-0.003 0.213,0.01 0.262,0.01C0.304,0.01 0.338,0.003 0.365,-0.011L0.352,-0.094C0.327,-0.083 0.301,-0.078 0.276,-0.078C0.227,-0.078 0.199,-0.103 0.199,-0.152L0.199,-0.387L0.347,-0.387L0.347,-0.469L0.198,-0.469L0.198,-0.619L0.104,-0.619L0.104,-0.469L0.019,-0.469L0.019,-0.387L0.103,-0.387L0.103,-0.141Z" style="fill:rgb(72,159,113);fill-rule:nonzero;"/>
            </g>
            <g transform="matrix(16,0,0,16,76.7125,49.8163)">
                <path d="M0.04,-0.234C0.04,-0.164 0.063,-0.106 0.11,-0.06C0.156,-0.014 0.215,0.01 0.286,0.01C0.329,0.01 0.37,-0.001 0.408,-0.021C0.447,-0.042 0.477,-0.072 0.498,-0.109L0.426,-0.161C0.393,-0.108 0.346,-0.081 0.286,-0.081C0.246,-0.081 0.212,-0.093 0.185,-0.117C0.157,-0.141 0.143,-0.171 0.14,-0.207L0.504,-0.207C0.506,-0.22 0.508,-0.235 0.508,-0.251C0.51,-0.376 0.417,-0.48 0.282,-0.478C0.211,-0.478 0.154,-0.456 0.108,-0.409C0.063,-0.363 0.04,-0.304 0.04,-0.234ZM0.143,-0.279C0.149,-0.312 0.165,-0.339 0.19,-0.36C0.215,-0.381 0.246,-0.391 0.281,-0.391C0.315,-0.391 0.344,-0.381 0.369,-0.36C0.393,-0.339 0.407,-0.312 0.41,-0.279L0.143,-0.279Z" style="fill:rgb(72,159,113);fill-rule:nonzero;"/>
            </g>
        </g>
        <g transform="matrix(4.16667,0,0,4.16667,0,0)">
            <g transform="matrix(16,0,0,16,14.4997,68.8163)">
                <path d="M0.032,-0.089C0.079,-0.023 0.151,0.01 0.247,0.01C0.302,0.01 0.349,-0.004 0.386,-0.032C0.422,-0.06 0.441,-0.096 0.441,-0.138C0.441,-0.181 0.423,-0.215 0.391,-0.239C0.359,-0.262 0.322,-0.276 0.273,-0.288C0.206,-0.304 0.182,-0.312 0.182,-0.329C0.182,-0.348 0.202,-0.359 0.237,-0.359C0.282,-0.359 0.318,-0.337 0.339,-0.31L0.43,-0.387C0.411,-0.412 0.386,-0.434 0.353,-0.452C0.32,-0.47 0.282,-0.478 0.239,-0.478C0.181,-0.478 0.135,-0.464 0.099,-0.436C0.063,-0.407 0.045,-0.371 0.045,-0.327C0.045,-0.285 0.061,-0.252 0.09,-0.229C0.119,-0.206 0.152,-0.191 0.198,-0.18C0.211,-0.176 0.23,-0.172 0.24,-0.17C0.25,-0.167 0.263,-0.164 0.27,-0.162C0.29,-0.156 0.299,-0.15 0.299,-0.139C0.299,-0.12 0.282,-0.11 0.248,-0.11C0.202,-0.11 0.161,-0.131 0.125,-0.173L0.032,-0.089Z" style="fill:rgb(72,159,113);fill-rule:nonzero;"/>
            </g>
            <g transform="matrix(16,0,0,16,22.1454,68.8163)">
                <path d="M0.105,-0.06C0.153,-0.014 0.213,0.01 0.285,0.01C0.357,0.01 0.417,-0.014 0.465,-0.06C0.513,-0.106 0.537,-0.165 0.537,-0.234C0.537,-0.304 0.513,-0.363 0.465,-0.409C0.417,-0.456 0.357,-0.478 0.285,-0.478C0.213,-0.478 0.153,-0.456 0.105,-0.409C0.057,-0.363 0.033,-0.304 0.033,-0.234C0.033,-0.165 0.057,-0.106 0.105,-0.06ZM0.186,-0.234C0.186,-0.264 0.195,-0.288 0.214,-0.308C0.232,-0.327 0.256,-0.337 0.285,-0.337C0.314,-0.337 0.338,-0.327 0.357,-0.308C0.376,-0.288 0.385,-0.264 0.385,-0.234C0.385,-0.205 0.376,-0.18 0.357,-0.16C0.338,-0.14 0.314,-0.13 0.285,-0.13C0.256,-0.13 0.232,-0.14 0.214,-0.16C0.195,-0.18 0.186,-0.205 0.186,-0.234Z" style="fill:rgb(72,159,113);fill-rule:nonzero;"/>
            </g>
            <g transform="matrix(16,0,0,16,31.2677,68.8163)">
                <path d="M0.235,0.015C0.294,0.015 0.348,-0.005 0.38,-0.044L0.385,-0L0.526,-0L0.526,-0.469L0.372,-0.469L0.372,-0.203C0.372,-0.179 0.364,-0.16 0.349,-0.146C0.334,-0.133 0.315,-0.126 0.294,-0.126C0.273,-0.126 0.255,-0.133 0.239,-0.146C0.223,-0.16 0.215,-0.179 0.215,-0.203L0.215,-0.469L0.062,-0.469L0.062,-0.159C0.062,-0.048 0.146,0.015 0.235,0.015Z" style="fill:rgb(72,159,113);fill-rule:nonzero;"/>
            </g>
            <g transform="matrix(16,0,0,16,40.4997,68.8163)">
                <path d="M0.087,-0.343L0.087,-0.167C0.087,-0.107 0.104,-0.062 0.138,-0.034C0.171,-0.005 0.216,0.01 0.272,0.01C0.316,0.01 0.366,-0.001 0.397,-0.017L0.386,-0.142C0.359,-0.131 0.334,-0.125 0.311,-0.125C0.264,-0.125 0.241,-0.147 0.241,-0.192L0.241,-0.343L0.378,-0.343L0.378,-0.469L0.236,-0.469L0.236,-0.619L0.087,-0.619L0.087,-0.469L0.013,-0.469L0.013,-0.343L0.087,-0.343Z" style="fill:rgb(72,159,113);fill-rule:nonzero;"/>
            </g>
            <g transform="matrix(16,0,0,16,47.016,68.8163)">
                <path d="M0.068,-0L0.222,-0L0.222,-0.469L0.068,-0.469L0.068,-0ZM0.058,-0.613C0.058,-0.563 0.093,-0.529 0.142,-0.529C0.167,-0.529 0.187,-0.537 0.204,-0.552C0.219,-0.568 0.227,-0.588 0.227,-0.613C0.227,-0.663 0.192,-0.697 0.142,-0.697C0.093,-0.697 0.058,-0.663 0.058,-0.613Z" style="fill:rgb(72,159,113);fill-rule:nonzero;"/>
            </g>
            <g transform="matrix(16,0,0,16,51.6417,68.8163)">
                <path d="M0.104,-0.059C0.151,-0.013 0.211,0.01 0.286,0.01C0.331,0.01 0.372,0 0.408,-0.019C0.444,-0.038 0.471,-0.062 0.49,-0.092L0.393,-0.178C0.365,-0.144 0.327,-0.12 0.288,-0.12C0.262,-0.12 0.239,-0.126 0.219,-0.14C0.199,-0.152 0.187,-0.171 0.184,-0.195L0.5,-0.195C0.503,-0.214 0.505,-0.232 0.505,-0.25C0.505,-0.325 0.476,-0.387 0.431,-0.423C0.386,-0.459 0.33,-0.478 0.271,-0.478C0.2,-0.478 0.143,-0.456 0.1,-0.41C0.056,-0.365 0.034,-0.306 0.034,-0.234C0.034,-0.163 0.057,-0.104 0.104,-0.059ZM0.275,-0.357C0.299,-0.357 0.319,-0.35 0.336,-0.335C0.354,-0.321 0.362,-0.304 0.363,-0.285L0.184,-0.285C0.19,-0.326 0.224,-0.357 0.275,-0.357Z" style="fill:rgb(72,159,113);fill-rule:nonzero;"/>
            </g>
            <g transform="matrix(16,0,0,16,60.2596,68.8163)">
                <path d="M0.208,-0.261C0.208,-0.285 0.216,-0.304 0.232,-0.318C0.247,-0.331 0.266,-0.338 0.287,-0.338C0.307,-0.338 0.325,-0.331 0.341,-0.318C0.357,-0.304 0.365,-0.285 0.365,-0.261L0.365,-0L0.519,-0L0.519,-0.305C0.519,-0.416 0.434,-0.478 0.346,-0.478C0.287,-0.478 0.232,-0.459 0.201,-0.419L0.196,-0.469L0.055,-0.469L0.055,-0L0.208,-0L0.208,-0.261Z" style="fill:rgb(72,159,113);fill-rule:nonzero;"/>
            </g>
            <g transform="matrix(16,0,0,16,69.3384,68.8163)">
                <path d="M0.032,-0.089C0.079,-0.023 0.151,0.01 0.247,0.01C0.302,0.01 0.349,-0.004 0.386,-0.032C0.422,-0.06 0.441,-0.096 0.441,-0.138C0.441,-0.181 0.423,-0.215 0.391,-0.239C0.359,-0.262 0.322,-0.276 0.273,-0.288C0.206,-0.304 0.182,-0.312 0.182,-0.329C0.182,-0.348 0.202,-0.359 0.237,-0.359C0.282,-0.359 0.318,-0.337 0.339,-0.31L0.43,-0.387C0.411,-0.412 0.386,-0.434 0.353,-0.452C0.32,-0.47 0.282,-0.478 0.239,-0.478C0.181,-0.478 0.135,-0.464 0.099,-0.436C0.063,-0.407 0.045,-0.371 0.045,-0.327C0.045,-0.285 0.061,-0.252 0.09,-0.229C0.119,-0.206 0.152,-0.191 0.198,-0.18C0.211,-0.176 0.23,-0.172 0.24,-0.17C0.25,-0.167 0.263,-0.164 0.27,-0.162C0.29,-0.156 0.299,-0.15 0.299,-0.139C0.299,-0.12 0.282,-0.11 0.248,-0.11C0.202,-0.11 0.161,-0.131 0.125,-0.173L0.032,-0.089Z" style="fill:rgb(72,159,113);fill-rule:nonzero;"/>
            </g>
            <g transform="matrix(16,0,0,16,80.6511,68.8163)">
                <path d="M0.097,-0.199L0.208,-0.199L0.236,-0.663L0.068,-0.663L0.097,-0.199ZM0.212,-0.015C0.228,-0.031 0.237,-0.05 0.237,-0.074C0.237,-0.098 0.228,-0.118 0.212,-0.134C0.196,-0.15 0.175,-0.158 0.151,-0.158C0.127,-0.158 0.107,-0.15 0.091,-0.134C0.075,-0.118 0.066,-0.098 0.066,-0.074C0.066,-0.05 0.075,-0.031 0.091,-0.015C0.107,0.002 0.127,0.01 0.151,0.01C0.175,0.01 0.196,0.002 0.212,-0.015Z" style="fill:rgb(72,159,113);fill-rule:nonzero;"/>
            </g>
        </g>
        <g transform="matrix(0,4.16667,4.16667,0,536.234,225.488)">
            <path d="M-29.343,-29.343L29.343,-29.343" style="fill:none;fill-rule:nonzero;stroke:rgb(72,159,113);stroke-width:1px;"/>
        </g>
        <g transform="matrix(4.16667,0,0,4.16667,-25,1240.16)">
            <path d="M0,-297.638L-15,-297.638M221.764,-297.638L236.764,-297.638M0,0L-15,0M221.764,0L236.764,0M6,-303.638L6,-318.638M6,6L6,21M215.764,-303.638L215.764,-318.638M215.764,6L215.764,21" style="fill:none;fill-rule:nonzero;stroke:white;stroke-width:1.25px;stroke-miterlimit:10;"/>
        </g>
        <g transform="matrix(4.16667,0,0,4.16667,0,0)">
            <clipPath id="_clip1">
                <rect x="-26.669" y="-26.669" width="263.102" height="350.976" clip-rule="nonzero"/>
            </clipPath>
            <g clip-path="url(#_clip1)">
                <g transform="matrix(1,0,0,1,-6,297.638)">
                    <path d="M0,-297.638L-15,-297.638M221.764,-297.638L236.764,-297.638M0,0L-15,0M221.764,0L236.764,0M6,-303.638L6,-318.638M6,6L6,21M215.764,-303.638L215.764,-318.638M215.764,6L215.764,21" style="fill:none;fill-rule:nonzero;stroke:black;stroke-width:0.25px;stroke-miterlimit:10;"/>
                </g>
                <g transform="matrix(1,0,0,1,-8.6693,303.307)">
                    <path d="M0,-308.976L-18,-308.976M227.102,-308.976L245.102,-308.976M0,0L-18,0M227.102,0L245.102,0M3,-311.976L3,-329.976M3,3L3,21M224.102,-311.976L224.102,-329.976M224.102,3L224.102,21" style="fill:none;fill-rule:nonzero;stroke:white;stroke-width:1.25px;stroke-miterlimit:10;"/>
                </g>
                <g transform="matrix(1,0,0,1,-8.6693,303.307)">
                    <path d="M0,-308.976L-18,-308.976M227.102,-308.976L245.102,-308.976M0,0L-18,0M227.102,0L245.102,0M3,-311.976L3,-329.976M3,3L3,21M224.102,-311.976L224.102,-329.976M224.102,3L224.102,21" style="fill:none;fill-rule:nonzero;stroke:black;stroke-width:0.25px;stroke-miterlimit:10;"/>
                </g>
                <g transform="matrix(0,-1,-1,0,104.882,-18.5001)">
                    <circle cx="-5" cy="0" r="5" style="fill:none;stroke:white;stroke-width:1.25px;stroke-miterlimit:10;"/>
                </g>
                <g transform="matrix(0,1,1,0,110.882,-13.5001)">
                    <path d="M-6,-6L6,-6" style="fill:none;fill-rule:nonzero;stroke:white;stroke-width:1.25px;stroke-miterlimit:10;"/>
                </g>
                <g transform="matrix(0,-1,-1,0,104.882,-16.5001)">
                    <circle cx="-3" cy="0" r="3" style="fill:none;stroke:white;stroke-width:1.25px;stroke-miterlimit:10;"/>
                </g>
            </g>
        </g>
    </g>
</svg>
