<?xml version="1.0" encoding="UTF-8" standalone="no"?>
<!DOCTYPE svg PUBLIC "-//W3C//DTD SVG 1.1//EN" "http://www.w3.org/Graphics/SVG/1.1/DTD/svg11.dtd">
<svg width="100%" height="100%" viewBox="0 0 95 95" version="1.1" xmlns="http://www.w3.org/2000/svg" xmlns:xlink="http://www.w3.org/1999/xlink" xml:space="preserve" xmlns:serif="http://www.serif.com/" style="fill-rule:evenodd;clip-rule:evenodd;stroke-linejoin:round;stroke-miterlimit:2;">
    <g transform="matrix(1,0,0,1,-1192.91,-998.639)">
        <g transform="matrix(1,0,0,0.136724,0,902.885)">
            <path d="M1214.54,1061.12L1192.91,1061.12L1192.91,1030.65L1214.54,1030.65C1215.54,939.022 1225.55,865.847 1238.07,858.484L1238.07,700.341L1242.24,700.341L1242.24,858.484C1254.77,865.847 1264.77,939.022 1265.78,1030.65L1287.4,1030.65L1287.4,1061.12L1265.78,1061.12C1264.77,1152.75 1254.77,1225.92 1242.24,1233.28L1242.24,1391.43L1238.07,1391.43L1238.07,1233.28C1225.55,1225.92 1215.54,1152.75 1214.54,1061.12ZM1238.07,889.078C1227.85,896.271 1219.7,955.853 1218.72,1030.65L1238.07,1030.65L1238.07,889.078ZM1261.6,1030.65C1260.61,955.853 1252.47,896.271 1242.24,889.078L1242.24,1030.65L1261.6,1030.65ZM1242.24,1202.69C1252.47,1195.5 1260.61,1135.91 1261.6,1061.12L1242.24,1061.12L1242.24,1202.69ZM1218.72,1061.12C1219.7,1135.91 1227.85,1195.5 1238.07,1202.69L1238.07,1061.12L1218.72,1061.12Z"/>
        </g>
    </g>
</svg>
