<?xml version="1.0" encoding="UTF-8" standalone="no"?>
<!DOCTYPE svg PUBLIC "-//W3C//DTD SVG 1.1//EN" "http://www.w3.org/Graphics/SVG/1.1/DTD/svg11.dtd">
<svg width="100%" height="100%" viewBox="0 0 875 1241" version="1.1" xmlns="http://www.w3.org/2000/svg" xmlns:xlink="http://www.w3.org/1999/xlink" xml:space="preserve" xmlns:serif="http://www.serif.com/" style="fill-rule:evenodd;clip-rule:evenodd;">
    <g transform="matrix(1,0,0,1,0,-1645.2)">
        <g id="Page-4" serif:id="Page 4" transform="matrix(4.16667,0,0,4.16667,0,1645.2)">
            <rect x="0" y="0" width="209.764" height="297.638" style="fill:none;"/>
            <clipPath id="_clip1">
                <rect x="0" y="0" width="209.764" height="297.638"/>
            </clipPath>
            <g clip-path="url(#_clip1)">
                <g>
                    <clipPath id="_clip2">
                        <rect x="-5.669" y="-5.669" width="221.102" height="308.976" clip-rule="nonzero"/>
                    </clipPath>
                    <g clip-path="url(#_clip2)">
                        <g opacity="0.6">
                            <g transform="matrix(1,0,0,1,-34.4882,270.107)">
                                <path d="M0,-98.709C0,-98.709 5.914,-155.96 57.168,-155.96C108.421,-155.96 106.45,-128.322 139.962,-142.141C173.474,-155.96 209.45,-184.586 241.237,-155.96C273.024,-127.335 280.909,-155.96 303.579,-103.645C326.249,-51.329 306.536,-27.638 298.651,-4.935C290.766,17.768 324.278,24.678 280.909,44.419C237.541,64.161 166.574,85.877 166.574,85.877L47.311,51.329L3.943,0L0,-98.709Z" style="fill:rgb(239,70,83);fill-rule:nonzero;"/>
                            </g>
                        </g>
                    </g>
                </g>
                <g>
                    <clipPath id="_clip3">
                        <rect x="-5.669" y="147.889" width="221.103" height="114.538" clip-rule="nonzero"/>
                    </clipPath>
                    <g clip-path="url(#_clip3)">
                        <g transform="matrix(1,0,0,1,146.276,228.457)">
                            <path d="M0,-16.776C0.163,-16.487 2.819,-14.121 2.89,-13.831C2.703,-9.187 1.442,-11.497 -2.197,-9.591C-5.837,-7.683 -13.678,-4.382 -19.332,-2.708C-24.985,-1.034 -37.319,3.123 -40.11,-2.39C-42.522,-7.15 -24.389,-11.159 -19.886,-12.446C-15.297,-13.757 -1.724,-19.899 0,-16.776" style="fill:rgb(221,140,127);fill-rule:nonzero;"/>
                        </g>
                        <g transform="matrix(1,0,0,1,129.38,248.04)">
                            <path d="M0,-8.667C-8.18,-4.562 -19.258,-2.066 -17.372,2.02C-14.282,8.716 -0.971,1.482 2.848,0.077C6.165,-1.144 19.217,-5.769 21.363,-9.796C20.61,-13.213 19.796,-16.857 17.399,-17.049C13.223,-17.383 6.16,-11.76 0,-8.667" style="fill:rgb(221,140,127);fill-rule:nonzero;"/>
                        </g>
                        <g transform="matrix(0.493817,0.869566,0.869566,-0.493817,126.958,237.417)">
                            <path d="M16.406,-10.195C22.849,-10.067 21.235,5.038 21.549,12.938C21.862,20.82 22.386,28.273 16.406,27.317C10.076,26.305 14.544,12.945 14.406,8.625C14.262,4.104 11.546,-10.291 16.406,-10.195" style="fill:rgb(221,140,127);fill-rule:nonzero;"/>
                        </g>
                        <g transform="matrix(1,0,0,1,145.582,238.812)">
                            <path d="M0,-10.792C0.028,-11.479 -0.334,-14.612 -0.757,-15.033C-5.38,-17.644 -17.508,-11.843 -23.951,-9.468C-33.717,-5.866 -44.765,-4.348 -42.197,-0.064C-38.052,6.852 -22.349,0.685 -18.72,-0.865C-15.45,-2.263 -0.125,-7.765 0,-10.792" style="fill:rgb(221,140,127);fill-rule:nonzero;"/>
                        </g>
                        <g transform="matrix(1,0,0,1,152.134,212.102)">
                            <path d="M0,-9.085C2.673,-13.04 1.78,-14.544 10.92,-18.277C20.06,-22.007 26.785,-14.334 26.785,-14.334C54.06,-24.603 120.47,-57.631 120.47,-57.631L137.995,-35.472C137.995,-35.472 47.252,8.472 40.34,6.727C40.34,6.727 39.097,8.205 30.057,17.301C-0.997,48.546 -6.879,18.789 -9.586,16.921C-12.293,15.054 -9.342,4.739 0,-9.085" style="fill:rgb(221,140,127);fill-rule:nonzero;"/>
                        </g>
                        <g transform="matrix(1,0,0,1,141.673,189.329)">
                            <path d="M0,19.73C20.153,12.733 7.734,5.945 16.875,2.213C26.014,-1.52 36.334,6.555 36.334,6.555C64.784,-1.989 128.713,-36.791 128.713,-36.791L146.544,-16.774C146.544,-16.774 58.472,30.096 49.137,26.94C49.137,26.94 46.659,31.991 37.459,41.111C21.912,56.521 14.113,55.289 4.931,48.208C-5.87,39.877 -11.993,23.894 0,19.73" style="fill:rgb(247,189,146);fill-rule:nonzero;"/>
                        </g>
                        <g transform="matrix(0.497087,0.867701,0.867701,-0.497087,128.402,236.222)">
                            <path d="M15.899,-12.05C22.541,-13.37 20.805,3.117 21.166,11.303C21.524,19.468 21.953,27.88 15.899,26.219C12.101,25.178 13.464,10.444 13.303,5.965C13.134,1.283 12.921,-11.458 15.899,-12.05" style="fill:rgb(247,189,146);fill-rule:nonzero;"/>
                        </g>
                        <g transform="matrix(1,0,0,1,146.136,227.695)">
                            <path d="M0,-17.883C0.163,-17.594 1.736,-13.965 1.807,-13.675C1.62,-9.031 0.358,-11.341 -3.281,-9.434C-6.92,-7.527 -14.761,-4.226 -20.415,-2.552C-26.068,-0.878 -38.268,3.122 -40.083,-1.897C-41.899,-6.914 -25.473,-11.003 -20.969,-12.289C-16.38,-13.601 -1.724,-21.005 0,-17.883" style="fill:rgb(247,189,146);fill-rule:nonzero;"/>
                        </g>
                        <g transform="matrix(1,0,0,1,145.661,236.39)">
                            <path d="M0,-9.692C0.029,-10.378 -0.69,-14.368 -1.114,-14.789C-5.737,-17.4 -17.508,-10.744 -23.95,-8.367C-33.717,-4.765 -43.713,-2.846 -42.573,1.678C-41.054,7.708 -26.077,3.77 -18.72,0.235C-15.514,-1.306 -0.123,-6.666 0,-9.692" style="fill:rgb(247,189,146);fill-rule:nonzero;"/>
                        </g>
                        <g transform="matrix(1,0,0,1,161.685,239.274)">
                            <path d="M0,-4.67C0,-4.67 -0.45,-1.517 -2.844,-0.245C-1.242,0 -0.689,-1.161 -0.305,-1.918C0.167,-2.846 0,-4.67 0,-4.67" style="fill:rgb(221,140,127);fill-rule:nonzero;"/>
                        </g>
                        <g transform="matrix(1,0,0,1,150.175,231.67)">
                            <path d="M0,4.084C-0.735,3.762 4.083,2.884 5.046,-0.319C5.398,1.168 3.858,2.265 3.037,2.911C2.026,3.708 0.733,4.403 0,4.084" style="fill:rgb(221,140,127);fill-rule:nonzero;"/>
                        </g>
                        <g transform="matrix(0.45069,0.892681,0.892681,-0.45069,142.808,224.006)">
                            <path d="M2.856,-1.754C3.184,-1.553 3.578,0.557 3.577,1.376C3.58,2.197 3.061,4.902 2.856,4.798C2.652,4.696 2.768,2.386 2.769,1.568C2.767,0.749 2.528,-1.954 2.856,-1.754" style="fill:rgb(221,140,127);fill-rule:nonzero;"/>
                        </g>
                        <g transform="matrix(1,0,0,1,129.204,246.795)">
                            <path d="M0,-8.734C-8.18,-4.627 -18.682,-1.058 -17.262,2.775C-14.7,9.69 -0.97,1.415 2.848,0.01C6.165,-1.21 19.217,-5.834 21.363,-9.862C20.718,-12.79 20.538,-16.89 18.648,-17.369C14.489,-18.424 6.667,-12.08 0,-8.734" style="fill:rgb(247,189,146);fill-rule:nonzero;"/>
                        </g>
                        <g transform="matrix(0.277573,0.960705,0.960705,-0.277573,140.523,215.335)">
                            <path d="M2.208,-1.918C2.208,-1.918 2.971,-0.563 2.946,0.437C2.925,1.431 2.208,3.035 2.208,3.035C2.208,3.035 1.931,1.64 1.957,0.644C1.977,-0.353 2.208,-1.918 2.208,-1.918" style="fill:rgb(221,140,127);fill-rule:nonzero;"/>
                        </g>
                        <g transform="matrix(1,0,0,1,177.467,197.695)">
                            <path d="M0,-2.286C2.781,1.637 -2.632,6.616 -4.387,8.367C-12.048,16.013 -21.419,16.754 -24.336,7.978C-26.073,8.915 -29.323,8.957 -28.54,8.315C-22.587,3.432 -27.891,-0.446 -30.082,-1.675C-32.273,-2.905 -35.268,-2.117 -40.343,-6.824C-42.335,-8.672 -45.334,-14.801 -42.216,-16.912C-39.069,-19.04 -28.785,-7.22 -18.847,-9.93C-14.927,-10.999 -3.716,-7.522 0,-2.286" style="fill:rgb(247,189,146);fill-rule:nonzero;"/>
                        </g>
                        <g transform="matrix(1,0,0,1,137.287,184.223)">
                            <path d="M0,-2.52C0.807,-1.223 2.209,-0.671 3.573,0.144C4.21,0.523 4.84,0.833 5.587,0.941C6.346,1.051 6.827,0.736 6.424,0.093C5.714,-1.034 3.868,-2.201 2.568,-2.846C1.888,-3.184 0.985,-3.571 0.234,-3.538C-0.488,-3.507 -0.356,-2.957 0,-2.52C-0.022,-2.557 -0.061,-2.594 -0.09,-2.629C-0.061,-2.594 -0.03,-2.557 0,-2.52C0.011,-2.5 -0.216,-2.784 0,-2.52" style="fill:rgb(239,218,222);fill-rule:nonzero;"/>
                        </g>
                        <g transform="matrix(1,0,0,1,107.055,223.63)">
                            <path d="M0,1.5C-0.268,-1.034 2.903,-1.788 3.7,-2.087C4.498,-2.386 5.872,2.256 5.219,2.896C4.567,3.536 0.253,3.886 0,1.5" style="fill:rgb(239,218,222);fill-rule:nonzero;"/>
                        </g>
                        <g transform="matrix(1,0,0,1,103.982,236.947)">
                            <path d="M0,0.443C0.052,2.25 3.917,3.694 5.666,3.143C7.415,2.592 6.632,-2.199 5.243,-2.725C3.854,-3.251 -0.063,-1.714 0,0.443" style="fill:rgb(239,218,222);fill-rule:nonzero;"/>
                        </g>
                        <g transform="matrix(1,0,0,1,113,247.605)">
                            <path d="M0,2.199C0.409,3.598 4.363,4.429 5.826,3.422C7.289,2.416 5.288,-1.518 4.34,-1.874C3.392,-2.23 -0.827,-0.631 0,2.199" style="fill:rgb(239,218,222);fill-rule:nonzero;"/>
                        </g>
                        <g transform="matrix(1,0,0,1,126.71,254.575)">
                            <path d="M0,1.464C-0.519,0.359 1.889,-1.597 2.77,-1.718C3.651,-1.841 5.412,1.886 4.844,2.323C4.276,2.762 0.864,3.305 0,1.464" style="fill:rgb(239,218,222);fill-rule:nonzero;"/>
                        </g>
                        <g transform="matrix(0.99829,0.0584511,0.0584511,-0.99829,-19.3653,218.44)">
                            <path d="M-0.793,-1.877L61.31,-1.877L68.892,-24.926L-3.939,-31.099L-0.793,-1.877Z" style="fill:rgb(221,140,127);fill-rule:nonzero;"/>
                        </g>
                        <g transform="matrix(0.997079,0.0763792,0.0763792,-0.997079,-19.2403,216.158)">
                            <path d="M-1.014,-2.462L62.38,-2.462L69.074,-24.256L-3.635,-31.736L-1.014,-2.462Z" style="fill:rgb(247,189,146);fill-rule:nonzero;"/>
                        </g>
                        <g transform="matrix(1,0,0,1,47.2541,194.91)">
                            <path d="M0,51.791C2.455,54.75 16.379,55.055 20.971,50.725C32.792,39.578 30.884,6.316 26.106,2.504C24.15,-0.993 5.458,-3.264 0.078,-1.515C-2.646,-0.629 -1.527,10.789 -2.038,22.562C-2.537,34.033 -4.706,46.119 0,51.791" style="fill:rgb(221,140,127);fill-rule:nonzero;"/>
                        </g>
                        <g transform="matrix(1,0,0,1,39.4549,193.22)">
                            <path d="M0,31.911C0,31.911 -2.07,25.165 -2.588,19.419C-3.106,13.672 -8.811,-0.05 -10.539,-2.699C-12.74,-6.073 -12.411,-7.869 -10.279,-7.894C-1.779,-7.995 -0.082,-0.96 2.247,5.036C4.576,11.033 6.298,14.645 9.921,20.142C13.544,25.639 16.046,36.908 12.164,38.407C8.282,39.906 4.4,35.659 0,31.911" style="fill:rgb(221,140,127);fill-rule:nonzero;"/>
                        </g>
                        <g transform="matrix(1,0,0,1,45.5304,193.711)">
                            <path d="M0,51.158C2.508,54.116 16.795,54.738 21.487,50.409C30.102,42.458 31.02,23.278 29.593,11.559C29.02,6.846 27.307,3.191 26.734,2.188C24.735,-1.31 5.635,-3.58 0.138,-1.831C-2.646,-0.946 -1.502,10.472 -2.024,22.245C-2.534,33.717 -4.809,45.486 0,51.158" style="fill:rgb(247,189,146);fill-rule:nonzero;"/>
                        </g>
                        <g transform="matrix(1,0,0,1,39.0343,193.027)">
                            <path d="M0,32.104C0,32.104 -1.999,25.358 -2.498,19.612C-2.998,13.865 -8.873,-0.134 -10.541,-2.783C-12.665,-6.157 -11.699,-7.995 -9.666,-7.656C-1.027,-6.217 -0.613,-0.72 1.636,5.277C3.884,11.273 6.08,14.838 9.578,20.335C13.076,25.832 15.491,37.101 11.743,38.6C7.995,40.099 4.247,35.852 0,32.104" style="fill:rgb(247,189,146);fill-rule:nonzero;"/>
                        </g>
                        <g transform="matrix(-0.505132,-0.863042,-0.863042,0.505132,29.0329,190.879)">
                            <path d="M-0.558,-2.728C-3.18,-2.727 -5.432,-2.91 -5.305,-0.98C-5.139,1.539 -3.18,0.77 -0.558,0.77C2.064,0.77 4.19,-0.013 4.189,-0.979C4.189,-1.944 2.064,-2.728 -0.558,-2.728" style="fill:rgb(239,218,222);fill-rule:nonzero;"/>
                        </g>
                        <g transform="matrix(0.941167,0.337941,0.337941,-0.941167,64.4639,194.945)">
                            <path d="M5.641,-0.71C5.641,-0.71 -2.834,31.327 -1.494,33.531C-0.155,35.735 4.399,32.024 5.641,26.845C6.883,21.666 13.157,-0.41 11.974,-2.064C10.79,-3.717 6.153,-2.653 5.641,-0.71" style="fill:rgb(221,140,127);fill-rule:nonzero;"/>
                        </g>
                        <g transform="matrix(0.958302,0.285757,0.285757,-0.958302,55.4543,190.31)">
                            <path d="M5.197,-0.545C5.197,-0.545 -5.642,34.769 -3.416,36.709C-2.024,37.922 1.803,37.762 5.197,29.624C7.424,24.287 13.206,2.349 12.854,-0.021C12.5,-2.389 6.862,-3.264 5.197,-0.545" style="fill:rgb(221,140,127);fill-rule:nonzero;"/>
                        </g>
                        <g transform="matrix(0.912725,0.408574,0.408574,-0.912725,61.3066,193.308)">
                            <path d="M6.7,-0.999C6.7,-0.999 -2.283,30.913 -0.612,33.206C1.059,35.498 5.438,31.593 6.7,26.413C7.961,21.234 15.072,1.341 15.136,-1.903C13.671,-3.632 6.755,-3.052 6.7,-0.999" style="fill:rgb(247,189,146);fill-rule:nonzero;"/>
                        </g>
                        <g transform="matrix(0.984889,0.173186,0.173186,-0.984889,47.675,191.801)">
                            <path d="M3.738,-0.475C3.738,-0.475 -3.634,36.738 -3.451,38.92C-3.02,44.056 2.197,41.858 3.738,37.9C5.28,33.942 13.468,1.912 12.386,0.37C11.304,-1.174 6.197,-2.739 3.738,-0.475" style="fill:rgb(221,140,127);fill-rule:nonzero;"/>
                        </g>
                        <g transform="matrix(0.960372,0.278722,0.278722,-0.960372,54.852,191.106)">
                            <path d="M5.121,-0.577C3.292,10.387 -5.272,35.875 -3.032,37.798C-1.631,39.002 1.786,38.334 5.121,30.171C7.308,24.817 12.412,1.939 13.106,-0.632C12.736,-2.999 8.276,-3.464 5.121,-0.577" style="fill:rgb(247,189,146);fill-rule:nonzero;"/>
                        </g>
                        <g transform="matrix(1,0,0,1,44.9138,154.756)">
                            <path d="M0,39.168C0,39.168 -3.426,18.067 -3.441,17.234C-3.456,16.401 -5.727,-0.388 -3.4,-0.929C-1.072,-1.469 1.885,2.18 3.033,5.7C4.308,9.607 8.437,34.072 6.875,37.266C5.313,40.459 1.309,40.637 0,39.168" style="fill:rgb(221,140,127);fill-rule:nonzero;"/>
                        </g>
                        <g transform="matrix(1,0,0,1,51.053,154.446)">
                            <path d="M0,37.807C0.606,36.335 0.289,34.488 0.202,32.323C-0.283,20.209 -0.472,0.077 -0.036,-1.575C1.278,-6.558 5.451,-3.425 6.284,0.74C7.117,4.905 8.232,36.39 8.885,39.136C6.525,44.365 0.483,40.405 0,37.807" style="fill:rgb(247,189,146);fill-rule:nonzero;"/>
                        </g>
                        <g transform="matrix(1,0,0,1,44.3709,156.264)">
                            <path d="M0,37.67C0,37.67 -3.203,16.565 -3.217,15.732C-3.232,14.899 -5.359,-1.892 -3.202,-2.43C-1.046,-2.968 1.699,0.685 2.768,4.207C3.955,8.115 7.288,33.853 6.812,37.447C5.368,40.638 1.215,39.141 0,37.67" style="fill:rgb(247,189,146);fill-rule:nonzero;"/>
                        </g>
                        <g transform="matrix(1,0,0,1,74.6573,168.843)">
                            <path d="M0,-5.807C-0.981,-6.486 -2.445,-2.682 -2.62,-1.03C-2.796,0.622 -0.369,0.679 0.286,-0.248C0.941,-1.176 1.171,-4.997 0,-5.807" style="fill:rgb(239,218,222);fill-rule:nonzero;"/>
                        </g>
                        <g transform="matrix(1,0,0,1,62.5435,162.379)">
                            <path d="M0,-8.122C-1.149,-8.702 -1.865,-3.469 -1.558,-1.445C-1.25,0.58 1.517,-0.25 1.885,-1.521C2.253,-2.791 1.371,-7.432 0,-8.122" style="fill:rgb(239,218,222);fill-rule:nonzero;"/>
                        </g>
                        <g transform="matrix(1,0,0,1,52.1116,159.394)">
                            <path d="M0,-8.275C-1.295,-8.761 -2.034,-3.495 -1.666,-1.505C-1.297,0.486 1.794,-0.56 2.191,-1.854C2.588,-3.147 1.545,-7.696 0,-8.275" style="fill:rgb(239,218,222);fill-rule:nonzero;"/>
                        </g>
                        <g transform="matrix(1,0,0,1,40.9727,162.788)">
                            <path d="M0,-8.251C-1.139,-8.779 -1.447,-3.502 -1.008,-1.487C-0.568,0.528 2.016,-0.431 2.276,-1.721C2.536,-3.011 1.36,-7.622 0,-8.251" style="fill:rgb(239,218,222);fill-rule:nonzero;"/>
                        </g>
                    </g>
                </g>
                <text x="120.318px" y="47.754px" style="font-family:'Mundial-Regular', 'Mundial';font-size:13px;fill:rgb(239,70,83);">De quoi</text>
                <text x="120.318px" y="61.754px" style="font-family:'Mundial-Bold', 'Mundial';font-weight:700;font-size:13px;fill:rgb(239,70,83);">je me mêle ?</text>
                <text x="41.721px" y="47.754px" style="font-family:'Mundial-Regular', 'Mundial';font-size:13px;fill:rgb(239,70,83);">T<tspan x="47.853px 55.159px 57.889px 65.869px 72.885px 79.577px 84.269px " y="47.754px 47.754px 47.754px 47.754px 47.754px 47.754px 47.754px ">u devra</tspan>is</text>
                <text x="14.547px" y="61.754px" style="font-family:'Mundial-Bold', 'Mundial';font-weight:700;font-size:13px;fill:rgb(239,70,83);">f<tspan x="19.301px " y="61.754px ">a</tspan>ir<tspan x="35.189px " y="61.754px ">e</tspan> att<tspan x="62.603px " y="61.754px ">e</tspan>ntion</text>
                <g transform="matrix(0,1,1,0,139.869,54.117)">
                    <path d="M-29.343,-29.343L29.343,-29.343" style="fill:none;fill-rule:nonzero;stroke:rgb(239,70,83);stroke-width:1px;"/>
                </g>
                <g transform="matrix(1,0,0,1,-6,297.638)">
                    <path d="M0,-297.638L-15,-297.638M221.764,-297.638L236.764,-297.638M0,0L-15,0M221.764,0L236.764,0M6,-303.638L6,-318.638M6,6L6,21M215.764,-303.638L215.764,-318.638M215.764,6L215.764,21" style="fill:none;fill-rule:nonzero;stroke:white;stroke-width:1.25px;stroke-miterlimit:10;"/>
                </g>
                <g>
                    <clipPath id="_clip4">
                        <rect x="-26.669" y="-26.669" width="263.102" height="350.976" clip-rule="nonzero"/>
                    </clipPath>
                    <g clip-path="url(#_clip4)">
                        <g transform="matrix(1,0,0,1,-6,297.638)">
                            <path d="M0,-297.638L-15,-297.638M221.764,-297.638L236.764,-297.638M0,0L-15,0M221.764,0L236.764,0M6,-303.638L6,-318.638M6,6L6,21M215.764,-303.638L215.764,-318.638M215.764,6L215.764,21" style="fill:none;fill-rule:nonzero;stroke:black;stroke-width:0.25px;stroke-miterlimit:10;"/>
                        </g>
                        <g transform="matrix(1,0,0,1,-8.6693,303.307)">
                            <path d="M0,-308.976L-18,-308.976M227.102,-308.976L245.102,-308.976M0,0L-18,0M227.102,0L245.102,0M3,-311.976L3,-329.976M3,3L3,21M224.102,-311.976L224.102,-329.976M224.102,3L224.102,21" style="fill:none;fill-rule:nonzero;stroke:white;stroke-width:1.25px;stroke-miterlimit:10;"/>
                        </g>
                        <g transform="matrix(1,0,0,1,-8.6693,303.307)">
                            <path d="M0,-308.976L-18,-308.976M227.102,-308.976L245.102,-308.976M0,0L-18,0M227.102,0L245.102,0M3,-311.976L3,-329.976M3,3L3,21M224.102,-311.976L224.102,-329.976M224.102,3L224.102,21" style="fill:none;fill-rule:nonzero;stroke:black;stroke-width:0.25px;stroke-miterlimit:10;"/>
                        </g>
                    </g>
                </g>
            </g>
        </g>
    </g>
</svg>
