<?xml version="1.0" encoding="UTF-8" standalone="no"?>
<!DOCTYPE svg PUBLIC "-//W3C//DTD SVG 1.1//EN" "http://www.w3.org/Graphics/SVG/1.1/DTD/svg11.dtd">
<svg width="100%" height="100%" viewBox="0 0 2933 2504" version="1.1" xmlns="http://www.w3.org/2000/svg" xmlns:xlink="http://www.w3.org/1999/xlink" xml:space="preserve" xmlns:serif="http://www.serif.com/" style="fill-rule:evenodd;clip-rule:evenodd;stroke-linejoin:round;stroke-miterlimit:2;">
    <g transform="matrix(1,0,0,1,-5.09167,-3.68333)">
        <g id="Calque-1" serif:id="Calque 1" transform="matrix(4.16667,0,0,4.16667,0,0)">
            <g transform="matrix(6.12323e-17,-1,1,6.12323e-17,602.018,498.6)">
                <path d="M0,-497.716C-137.44,-360.276 -137.44,-137.441 0,0C137.44,137.44 360.275,137.44 497.716,0L373.29,-124.426C304.57,-55.706 193.145,-55.706 124.425,-124.426C55.705,-193.146 55.705,-304.57 124.425,-373.291C193.145,-442.011 304.57,-442.011 373.29,-373.291L497.716,-497.716C360.275,-635.156 137.44,-635.156 0,-497.716" style="fill:white;fill-rule:nonzero;"/>
            </g>
            <g transform="matrix(6.12323e-17,-1,1,6.12323e-17,261.573,466.885)">
                <path d="M0,32.713C1.032,24.828 -3.646,12.986 -10.118,12.138C-13.622,11.672 -16.774,13.933 -17.212,17.253C-17.607,20.235 -16.053,22.044 -13.933,26.241C-11.234,31.413 -16.675,32.119 -22.497,30.282C-33.943,26.637 -50.618,15.176 -55.507,6.33C-57.571,3.037 -55.55,2.585 -52.78,0.466C-50.265,-0.99 -49.276,-3.18 -49.77,-6.091C-50.335,-8.663 -52.074,-10.317 -55.536,-11.122C-62.615,-12.775 -69.596,-8.522 -70.557,-1.174C-73.002,17.395 -41.871,40.74 -18.639,44.343C-9.878,45.488 -1.286,42.52 0,32.713" style="fill:rgb(29,29,27);fill-rule:nonzero;"/>
            </g>
            <g transform="matrix(6.12323e-17,-1,1,6.12323e-17,181.774,443.334)">
                <path d="M0,45.926C-0.509,36.995 -6.825,22.793 -16.18,8.648L-30.17,-11.249C-33.434,-15.856 -37.094,-17.085 -40.853,-14.739C-44.061,-12.224 -44.711,-8.168 -40.712,-3.067C-25.747,16.01 -9.411,42.464 -14.951,46.152C-17.721,47.678 -22.228,44.584 -29.916,37.362C-32.53,34.932 -47.198,15.417 -50.194,12.28C-53.331,9.058 -57.811,10.259 -59.874,14.201C-60.99,16.448 -60.778,18.949 -59.054,22.058C-49.177,37.631 -31.343,57.839 -17.848,60.665C-7.885,63.011 0.495,56.129 0,45.926" style="fill:rgb(29,29,27);fill-rule:nonzero;"/>
            </g>
            <g transform="matrix(6.12323e-17,-1,1,6.12323e-17,58.2682,285.265)">
                <path d="M0,64.721C5.949,58.051 11.531,43.538 14.908,26.92L19.105,2.968C20.052,-2.6 18.328,-6.062 14.004,-7.051C9.963,-7.56 6.642,-5.144 5.85,1.286C2.953,25.366 -4.197,55.62 -10.74,54.306C-13.778,53.444 -14.767,48.046 -15.106,37.518C-15.233,33.943 -11.8,9.765 -11.701,5.441C-11.644,0.933 -15.657,-1.371 -19.911,-0.042C-22.285,0.749 -23.896,2.671 -24.885,6.076C-28.912,24.08 -30.58,50.985 -23.048,62.531C-17.664,71.235 -6.868,72.281 0,64.721" style="fill:rgb(29,29,27);fill-rule:nonzero;"/>
            </g>
            <g transform="matrix(6.12323e-17,-1,1,6.12323e-17,116.775,408.838)">
                <path d="M0,68.861C2.501,66.883 12.45,53.599 16.774,46.237C18.441,43.58 17.777,40.16 15.276,38.126C11.347,34.762 7.786,37.673 4.395,42.096C0.579,47.113 -1.3,49.261 -2.699,49.544C-5.37,50.264 -6.642,46.421 -10.132,37.956C-13.17,30.509 -18.314,18.299 -23.571,5.963C-26.298,-0.58 -29.789,-2.671 -33.802,-0.537C-37.688,1.469 -38.267,4.818 -35.498,10.866C-32.318,18.201 -29.393,25.506 -26.454,32.826C-19.501,50.024 -13.326,65.795 -10.358,68.352C-6.783,71.32 -3.293,71.532 0,68.861" style="fill:rgb(29,29,27);fill-rule:nonzero;"/>
            </g>
            <g transform="matrix(6.12323e-17,-1,1,6.12323e-17,66.0179,357.1)">
                <path d="M0,86.384C4.056,86.568 6.868,82.978 6.571,77.185C5.949,65.102 1.738,43.665 -1.879,26.213C-3.109,19.543 -0.848,17.805 2.261,16.223C5.511,14.569 7.122,13.75 10.033,11.941C12.944,10.118 14.061,7.334 12.478,3.914C10.895,0.494 6.755,-0.184 0.48,2.586C-5.78,5.37 -24.518,14.612 -38.154,23.472C-42.21,26.1 -42.45,30.877 -40.783,33.265C-38.889,35.978 -35.399,36.148 -33.434,35.172C-29.647,33.293 -23.43,29.336 -18.893,27.075C-17.155,26.213 -15.841,27.202 -15.205,28.644C-12.435,34.904 -7.659,65.668 -6.557,77.962C-6.161,82.399 -4.056,86.2 0,86.384" style="fill:rgb(29,29,27);fill-rule:nonzero;"/>
            </g>
            <g transform="matrix(6.12323e-17,-1,1,6.12323e-17,90.8787,174)">
                <path d="M0,49.417C2.416,51.819 13.156,57.274 22.271,60.651C26.948,62.305 30.919,61.146 32.643,57.656C34.113,54.25 32.276,50.943 27.259,48.753L21.338,45.983C17.452,44.287 12.888,41.927 15.954,38.437C18.173,35.54 24.814,28.234 26.439,27.584C29.859,26.369 36.572,30.919 40.825,32.191C43.171,33.025 45.743,32.403 47.283,30.184C52.031,24.164 46.393,20.957 41.786,18.456C39.101,17.099 38.804,14.654 40.74,12.421C41.8,11.333 45.856,7.32 47.043,5.907C49.714,2.445 52.837,1.88 56.822,3.801C61.358,5.78 68.89,8.747 70.486,9.058C73.525,9.595 76.379,8.338 77.665,5.822C79.008,2.742 77.863,-0.834 75.178,-2.204C72.818,-3.42 59.054,-9.284 54.349,-11.333C50.788,-12.888 47.495,-12.393 44.301,-9.92C40.966,-7.136 36.317,-2.218 23.359,11.22C15.544,18.993 0.184,35.243 -1.71,39.624C-3.264,43.185 -2.77,46.478 0,49.417" style="fill:rgb(29,29,27);fill-rule:nonzero;"/>
            </g>
            <g transform="matrix(6.12323e-17,-1,1,6.12323e-17,66.4186,242.043)">
                <path d="M0,54.646C4.677,56.737 6.585,52.654 12.506,39.667C14.668,35.329 15.841,32.7 18.639,32.333C21.564,31.937 24.108,34.891 26.397,38.48C29.026,42.578 32.276,53.501 34.254,57.896C36.218,62.291 38.38,67.717 43.171,66.403C48.597,64.905 47.764,58.97 46.803,55.706C45.828,52.442 45.573,51.862 43.242,46.139C40.91,40.416 36.755,31.824 42.606,27.783C45.163,26.016 46.633,25.239 49.148,23.36C52.709,20.689 57.585,12.945 54.066,5.427C50.533,-2.091 43.722,-8.195 33.759,-11.149C26.553,-13.071 22.115,-10.951 18.823,-4.267C15.092,3.449 0.777,34.255 1.088,33.76C-2.982,42.14 -7.179,51.806 0,54.646M24.292,19.94C20.49,18.696 23.571,12.719 25.662,8.734C27.344,5.582 29.718,1.357 33.208,2.149C36.699,2.926 44.301,8.324 42.761,12.803C40.74,18.654 32.671,22.695 24.292,19.94" style="fill:rgb(29,29,27);fill-rule:nonzero;"/>
            </g>
            <g transform="matrix(0.979796,-0.200001,0.200001,0.979796,1.2205,601.547)">
                <text x="369.036px" y="19.93px" style="font-family:'ArialMT', 'Arial';font-size:84.248px;fill:rgb(29,29,27);">C</text>
            </g>
            <g transform="matrix(0.907649,-0.41973,0.41973,0.907649,1.2205,601.547)">
                <text x="428.557px" y="120.198px" style="font-family:'ArialMT', 'Arial';font-size:84.249px;fill:rgb(29,29,27);">h</text>
            </g>
            <g transform="matrix(0.787629,-0.61615,0.61615,0.787629,1.2205,601.547)">
                <text x="454.8px" y="229.142px" style="font-family:'ArialMT', 'Arial';font-size:84.248px;fill:rgb(29,29,27);">a</text>
            </g>
            <g transform="matrix(0.551611,-0.834102,0.834102,0.551611,1.2205,601.547)">
                <text x="425.395px" y="385.189px" style="font-family:'ArialMT', 'Arial';font-size:84.248px;fill:rgb(29,29,27);">m</text>
            </g>
            <g transform="matrix(0.31785,-0.948141,0.948141,0.31785,1.2205,601.547)">
                <text x="408.726px" y="505.539px" style="font-family:'ArialMT', 'Arial';font-size:84.249px;fill:rgb(29,29,27);">p</text>
            </g>
            <g transform="matrix(0.165651,-0.986184,0.986184,0.165651,1.2205,601.547)">
                <text x="390.292px" y="572.219px" style="font-family:'ArialMT', 'Arial';font-size:84.248px;fill:rgb(29,29,27);">i</text>
            </g>
            <g transform="matrix(0.00718,-0.999974,0.999974,0.00718,1.2205,601.547)">
                <text x="326.849px" y="633.274px" style="font-family:'ArialMT', 'Arial';font-size:84.248px;fill:rgb(29,29,27);">g</text>
            </g>
            <g transform="matrix(-0.230111,-0.973164,0.973164,-0.230111,1.2205,601.547)">
                <text x="235.564px" y="708.27px" style="font-family:'ArialMT', 'Arial';font-size:84.248px;fill:rgb(29,29,27);">n</text>
            </g>
            <g transform="matrix(-0.48582,-0.874059,0.874059,-0.48582,1.2205,601.547)">
                <text x="101.414px" y="762.447px" style="font-family:'ArialMT', 'Arial';font-size:84.248px;fill:rgb(29,29,27);">y</text>
            </g>
        </g>
    </g>
</svg>
