<?xml version="1.0" encoding="UTF-8" standalone="no"?>
<!DOCTYPE svg PUBLIC "-//W3C//DTD SVG 1.1//EN" "http://www.w3.org/Graphics/SVG/1.1/DTD/svg11.dtd">
<svg width="100%" height="100%" viewBox="0 0 222 309" version="1.1" xmlns="http://www.w3.org/2000/svg" xmlns:xlink="http://www.w3.org/1999/xlink" xml:space="preserve" xmlns:serif="http://www.serif.com/" style="fill-rule:evenodd;clip-rule:evenodd;">
    <g transform="matrix(1,0,0,1,5.66929,5.66929)">
        <g transform="matrix(6.12323e-17,-1,1,6.12323e-17,-0.000110236,297.638)">
            <rect x="-5.669" y="-5.669" width="308.976" height="221.102" style="fill:rgb(244,177,23);"/>
        </g>
        <g transform="matrix(6.12323e-17,-1,1,6.12323e-17,0.000889764,297.638)">
            <rect x="14.173" y="14.173" width="269.291" height="181.417" style="fill:white;"/>
        </g>
        <g transform="matrix(6.12323e-17,-1,1,6.12323e-17,105.096,203.811)">
            <path d="M0,0L20.409,0" style="fill:none;fill-rule:nonzero;stroke:rgb(244,177,23);stroke-width:1px;"/>
        </g>
        <g transform="matrix(6.12323e-17,-1,1,6.12323e-17,105.096,113.386)">
            <path d="M0,0L20.409,0" style="fill:none;fill-rule:nonzero;stroke:rgb(244,177,23);stroke-width:1px;"/>
        </g>
        <g transform="matrix(6.12323e-17,-1,1,6.12323e-17,-54.9981,297.638)">
            <path d="M149.181,103.726L149.181,161.036L122.269,161.036L122.269,103.726L149.181,103.726ZM175.333,103.726L175.333,161.036L149.201,161.036L149.201,103.726L175.333,103.726ZM182.126,124.883L182.126,132.381L178.707,132.381L178.707,124.883L182.126,124.883ZM180.416,131.077C180.862,131.077 181.224,130.715 181.224,130.269C181.224,129.823 180.862,129.461 180.416,129.461C179.97,129.461 179.608,129.823 179.608,130.269C179.608,130.715 179.97,131.077 180.416,131.077ZM180.416,127.534C180.862,127.534 181.224,127.172 181.224,126.726C181.224,126.28 180.862,125.918 180.416,125.918C179.97,125.918 179.608,126.28 179.608,126.726C179.608,127.172 179.97,127.534 180.416,127.534ZM157.943,96.665L157.943,101.626L140.439,101.626L140.439,96.665L157.943,96.665ZM148.212,99.549C148.269,99.87 148.405,100.118 148.618,100.294C148.831,100.471 149.106,100.559 149.442,100.559C149.973,100.559 150.341,100.303 150.51,99.88L149.878,99.547C149.841,99.651 149.786,99.739 149.71,99.811C149.634,99.883 149.546,99.921 149.444,99.921C149.229,99.921 149.089,99.797 149.02,99.549L149.573,99.549L149.573,99.296L148.981,99.296C148.979,99.274 148.979,99.239 148.979,99.192C148.979,99.143 148.979,99.108 148.981,99.086L149.573,99.086L149.573,98.833L149.018,98.833C149.083,98.585 149.216,98.461 149.417,98.461C149.597,98.461 149.735,98.577 149.805,98.786L150.483,98.461C150.411,98.266 150.284,98.112 150.102,97.999C149.921,97.885 149.702,97.829 149.442,97.829C149.116,97.829 148.845,97.917 148.632,98.092C148.419,98.27 148.28,98.516 148.22,98.833L147.89,98.833L147.89,99.086L148.188,99.086C148.186,99.141 148.185,99.182 148.185,99.212C148.185,99.249 148.185,99.278 148.186,99.296L147.89,99.296L147.89,99.549L148.212,99.549Z" style="fill:rgb(245,178,22);stroke:white;stroke-width:0.8px;"/>
        </g>
        <g transform="matrix(6.12323e-17,-1,1,6.12323e-17,-0.000110236,297.638)">
            <path d="M129.101,139.085L136.616,119.536L143.588,119.536L151.219,139.427L144.979,139.427L143.691,136.102L136.499,136.102L135.21,139.427L113.708,139.427L113.708,119.536L119.551,119.536L119.551,134.771L129.101,134.771L129.101,139.085ZM142.372,131.695L140.102,125.044L137.817,131.695L142.372,131.695ZM102.267,139.72C100.202,139.72 98.356,139.266 96.73,138.373C95.105,137.48 93.831,136.264 92.937,134.698C92.044,133.13 91.59,131.386 91.59,129.452C91.59,127.519 92.044,125.775 92.937,124.222C93.831,122.67 95.105,121.455 96.73,120.561C98.356,119.683 100.202,119.243 102.267,119.243C104.127,119.243 105.827,119.697 107.379,120.591C108.932,121.498 110.119,122.714 110.924,124.222L106.676,127.167C105.695,125.292 104.215,124.354 102.267,124.354C100.817,124.354 99.674,124.823 98.81,125.76C97.946,126.698 97.506,127.929 97.506,129.452C97.506,130.962 97.946,132.207 98.826,133.159C99.705,134.126 100.847,134.61 102.268,134.61C104.275,134.61 105.842,133.657 106.955,131.767L111.129,134.683C110.397,136.162 109.211,137.363 107.57,138.3C105.915,139.252 104.157,139.72 102.267,139.72ZM151.512,135.122L155.687,132.207C156.859,133.95 158.499,134.888 160.33,134.888C161.604,134.888 162.571,134.331 162.571,133.584C162.571,133.174 162.351,132.852 161.926,132.632C161.502,132.412 160.623,132.119 159.319,131.723C159.173,131.679 159.041,131.621 158.88,131.592C157.752,131.255 157.166,131.079 156.141,130.625C155.145,130.2 154.53,129.804 153.827,129.159C152.801,128.236 152.274,127.035 152.23,125.321C152.23,124.12 152.596,123.051 153.329,122.099C154.046,121.162 154.984,120.444 156.141,119.961C157.283,119.478 158.514,119.243 159.832,119.243C163.406,119.243 165.852,120.81 167.653,123.607L163.684,126.361C162.864,124.999 161.414,124.061 159.773,124.061C158.733,124.061 157.884,124.501 157.884,125.306C157.884,126.141 158.807,126.596 160.564,127.108C162.19,127.563 163.303,127.943 164.533,128.5C165.149,128.779 165.661,129.086 166.086,129.409C167.39,130.419 168.224,131.694 168.224,133.599C168.224,135.547 167.199,137.216 165.661,138.197C164.123,139.178 162.219,139.72 160.286,139.72C156.375,139.72 153.285,138.051 151.512,135.122ZM170.114,135.122L174.289,132.207C175.461,133.95 177.101,134.888 178.932,134.888C180.206,134.888 181.173,134.331 181.173,133.584C181.173,133.174 180.953,132.852 180.528,132.632C180.104,132.412 179.225,132.119 177.921,131.723C177.775,131.679 177.643,131.621 177.482,131.592C176.354,131.255 175.768,131.079 174.743,130.625C173.747,130.2 173.132,129.804 172.429,129.159C171.403,128.236 170.876,127.035 170.832,125.321C170.832,124.12 171.198,123.051 171.931,122.099C172.648,121.162 173.586,120.444 174.743,119.961C175.885,119.478 177.116,119.243 178.434,119.243C182.008,119.243 184.454,120.81 186.255,123.607L182.286,126.361C181.466,124.999 180.016,124.061 178.375,124.061C177.335,124.061 176.486,124.501 176.486,125.306C176.486,126.141 177.409,126.596 179.166,127.108C180.792,127.563 181.905,127.943 183.135,128.5C183.751,128.779 184.263,129.086 184.688,129.409C185.992,130.419 186.826,131.694 186.826,133.599C186.826,135.547 185.801,137.216 184.263,138.197C182.725,139.178 180.821,139.72 178.888,139.72C174.977,139.72 171.887,138.051 170.114,135.122ZM204.623,139.427L189.947,139.427L189.947,119.536L204.476,119.536L204.476,124.222L195.775,124.222L195.775,126.978L203.407,126.978L203.407,131.649L195.775,131.649L195.775,134.756L204.623,134.756L204.623,139.427ZM84.403,163.802L88.578,160.887C89.75,162.63 91.39,163.568 93.221,163.568C94.495,163.568 95.462,163.011 95.462,162.264C95.462,161.854 95.242,161.532 94.817,161.312C94.393,161.092 93.514,160.799 92.21,160.403C92.064,160.359 91.932,160.301 91.771,160.272C90.643,159.935 90.057,159.759 89.032,159.305C88.036,158.88 87.421,158.484 86.718,157.839C85.692,156.916 85.165,155.715 85.121,154.001C85.121,152.8 85.487,151.731 86.22,150.779C86.937,149.842 87.875,149.124 89.032,148.641C90.174,148.158 91.405,147.923 92.723,147.923C96.297,147.923 98.743,149.49 100.544,152.287L96.575,155.041C95.755,153.679 94.305,152.741 92.664,152.741C91.624,152.741 90.775,153.181 90.775,153.986C90.775,154.821 91.698,155.276 93.455,155.788C95.081,156.243 96.194,156.623 97.424,157.18C98.04,157.459 98.552,157.766 98.977,158.089C100.281,159.099 101.115,160.374 101.115,162.279C101.115,164.227 100.09,165.896 98.552,166.877C97.014,167.858 95.11,168.4 93.177,168.4C89.266,168.4 86.176,166.731 84.403,163.802ZM113.449,168.4C110.403,168.4 107.722,167.317 105.862,165.53C104.002,163.744 102.889,161.121 102.889,158.133C102.801,152.199 107.385,147.836 113.449,147.923C116.452,147.923 119.147,148.978 120.978,150.764C122.809,152.551 123.922,155.173 123.922,158.147C123.922,161.136 122.809,163.758 120.979,165.545C119.148,167.331 116.453,168.4 113.449,168.4ZM108.821,158.147C108.821,159.656 109.246,160.872 110.11,161.795C110.974,162.733 112.087,163.202 113.479,163.202C114.841,163.202 115.925,162.733 116.76,161.795C117.594,160.872 118.005,159.656 118.005,158.147C118.005,156.667 117.594,155.466 116.76,154.543C115.925,153.62 114.826,153.166 113.479,153.166C112.087,153.166 110.974,153.62 110.11,154.543C109.246,155.466 108.821,156.667 108.821,158.147ZM136.343,168.4C134.278,168.4 132.432,167.946 130.806,167.053C129.181,166.16 127.907,164.944 127.013,163.378C126.12,161.81 125.666,160.066 125.666,158.132C125.666,156.199 126.12,154.455 127.013,152.902C127.907,151.35 129.181,150.135 130.806,149.241C132.432,148.363 134.278,147.923 136.343,147.923C138.203,147.923 139.903,148.377 141.455,149.271C143.008,150.178 144.195,151.394 145,152.902L140.752,155.847C139.771,153.972 138.291,153.034 136.343,153.034C134.893,153.034 133.75,153.503 132.886,154.44C132.022,155.378 131.582,156.609 131.582,158.132C131.582,159.642 132.022,160.887 132.902,161.839C133.781,162.806 134.923,163.29 136.344,163.29C138.351,163.29 139.918,162.337 141.031,160.447L145.205,163.363C144.473,164.842 143.287,166.043 141.646,166.98C139.991,167.932 138.233,168.4 136.343,168.4ZM147.726,148.216L153.569,148.216L153.569,168.107L147.726,168.107L147.726,148.216ZM163.003,164.782L161.714,168.107L155.474,168.107L163.12,148.216L170.092,148.216L177.723,168.107L171.483,168.107L170.194,164.782L163.003,164.782ZM168.876,160.375L166.606,153.724L164.321,160.375L168.876,160.375ZM185.471,163.451L195.022,163.451L195.022,168.107L179.628,168.107L179.628,148.216L185.471,148.216L185.471,163.451ZM211.94,168.107L197.264,168.107L197.264,148.216L211.793,148.216L211.793,152.902L203.092,152.902L203.092,155.658L210.724,155.658L210.724,160.329L203.092,160.329L203.092,163.436L211.94,163.436L211.94,168.107Z" style="fill:rgb(244,177,23);"/>
        </g>
    </g>
</svg>
