<?xml version="1.0" encoding="UTF-8" standalone="no"?>
<!DOCTYPE svg PUBLIC "-//W3C//DTD SVG 1.1//EN" "http://www.w3.org/Graphics/SVG/1.1/DTD/svg11.dtd">
<svg width="100%" height="100%" viewBox="0 0 222 309" version="1.1" xmlns="http://www.w3.org/2000/svg" xmlns:xlink="http://www.w3.org/1999/xlink" xml:space="preserve" xmlns:serif="http://www.serif.com/" style="fill-rule:evenodd;clip-rule:evenodd;stroke-linejoin:round;stroke-miterlimit:2;">
    <g transform="matrix(1,0,0,1,5.66929,5.66929)">
        <g transform="matrix(6.12323e-17,-1,1,6.12323e-17,-0.000110236,297.638)">
            <rect x="-5.669" y="-5.669" width="308.976" height="221.102" style="fill:rgb(45,40,82);"/>
        </g>
        <g transform="matrix(6.12323e-17,-1,1,6.12323e-17,0.000889764,297.638)">
            <rect x="14.173" y="14.173" width="269.291" height="181.417" style="fill:white;"/>
        </g>
        <g transform="matrix(6.12323e-17,-1,1,6.12323e-17,-0.000110236,297.638)">
            <path d="M89.814,130.783C87.749,130.783 85.903,130.329 84.277,129.436C82.652,128.543 81.377,127.327 80.484,125.761C79.591,124.193 79.137,122.45 79.137,120.516C79.137,118.582 79.591,116.838 80.484,115.285C81.377,113.733 82.652,112.518 84.277,111.624C85.903,110.746 87.748,110.307 89.814,110.307C91.674,110.307 93.373,110.76 94.926,111.654C96.479,112.562 97.665,113.777 98.471,115.285L94.223,118.23C93.242,116.355 91.762,115.417 89.814,115.417C88.364,115.417 87.221,115.886 86.357,116.824C85.493,117.761 85.053,118.992 85.053,120.516C85.053,122.025 85.493,123.27 86.373,124.222C87.251,125.189 88.394,125.673 89.815,125.673C91.821,125.673 93.389,124.72 94.502,122.83L98.676,125.746C97.944,127.225 96.757,128.426 95.117,129.363C93.462,130.315 91.704,130.783 89.814,130.783ZM110.424,130.783C107.377,130.783 104.697,129.7 102.836,127.913C100.976,126.127 99.863,123.504 99.863,120.516C99.775,114.582 104.36,110.219 110.424,110.307C113.426,110.307 116.121,111.361 117.952,113.147C119.783,114.934 120.896,117.556 120.896,120.53C120.896,123.519 119.783,126.141 117.953,127.928C116.123,129.714 113.427,130.783 110.424,130.783ZM105.795,120.53C105.795,122.039 106.22,123.255 107.084,124.178C107.948,125.116 109.061,125.585 110.453,125.585C111.815,125.585 112.899,125.116 113.734,124.178C114.569,123.255 114.979,122.039 114.979,120.53C114.979,119.05 114.569,117.849 113.734,116.926C112.899,116.003 111.8,115.549 110.453,115.549C109.061,115.549 107.948,116.003 107.084,116.926C106.22,117.849 105.795,119.05 105.795,120.53ZM123.68,123.212L123.68,110.6L129.523,110.6L129.523,122.787C129.523,124.765 130.695,125.805 132.322,125.805C133.948,125.805 135.135,124.765 135.135,122.787L135.135,110.6L140.978,110.6L140.978,123.212C140.978,128.353 137.405,130.783 132.322,130.783C128.864,130.783 126.272,129.744 124.793,127.445C124.046,126.288 123.68,124.882 123.68,123.212ZM150.894,125.834L160.444,125.834L160.444,130.49L145.051,130.49L145.051,110.6L150.894,110.6L150.894,125.834ZM177.318,130.49L162.642,130.49L162.642,110.6L177.172,110.6L177.172,115.285L168.47,115.285L168.47,118.041L176.102,118.041L176.102,122.712L168.47,122.712L168.47,125.819L177.318,125.819L177.318,130.49ZM180.087,123.212L180.087,110.6L185.93,110.6L185.93,122.787C185.93,124.765 187.102,125.805 188.729,125.805C190.355,125.805 191.542,124.765 191.542,122.787L191.542,110.6L197.385,110.6L197.385,123.212C197.385,128.353 193.812,130.783 188.729,130.783C185.271,130.783 182.679,129.744 181.2,127.445C180.453,126.288 180.087,124.882 180.087,123.212ZM207.271,123.825L207.271,130.49L201.458,130.49L201.458,110.6L211.492,110.6C213.454,110.6 215.109,111.215 216.471,112.459C217.818,113.704 218.492,115.271 218.492,117.19C218.492,119.828 217.101,121.951 214.919,123.064L218.946,130.505L212.722,130.505L209.22,123.825L207.271,123.825ZM210.51,115.329L207.271,115.329L207.271,119.286L210.51,119.286C211.111,119.286 211.609,119.081 211.99,118.656C212.356,118.246 212.547,117.762 212.547,117.19C212.547,116.121 211.755,115.329 210.51,115.329ZM96.579,159.17L87.821,159.17L87.821,139.28L96.579,139.28C97.957,139.28 99.275,139.543 100.535,140.056C101.78,140.583 102.864,141.286 103.772,142.164C105.573,143.936 106.715,146.5 106.715,149.21C106.715,150.558 106.452,151.847 105.925,153.078C105.383,154.309 104.665,155.363 103.772,156.256C102.864,157.15 101.78,157.852 100.535,158.38C99.275,158.907 97.957,159.17 96.579,159.17ZM96.272,143.98L93.664,143.98L93.664,154.485L96.228,154.485C97.546,154.485 98.645,153.957 99.51,152.917C100.374,151.877 100.799,150.646 100.799,149.21C100.799,147.775 100.374,146.544 99.524,145.518C98.675,144.493 97.59,143.98 96.272,143.98ZM124.496,159.17L109.82,159.17L109.82,139.28L124.349,139.28L124.349,143.965L115.648,143.965L115.648,146.721L123.28,146.721L123.28,151.392L115.648,151.392L115.648,154.499L124.496,154.499L124.496,159.17ZM140.23,152.93L140.23,159.17L134.387,159.17L134.387,139.28L144.275,139.28C148.068,139.206 151.334,142.164 151.275,146.061C151.275,148.01 150.602,149.635 149.24,150.953C147.878,152.271 146.223,152.93 144.275,152.93L140.23,152.93ZM143.308,144.009L140.23,144.009L140.23,148.2L143.308,148.2C143.908,148.2 144.407,147.981 144.788,147.556C145.154,147.131 145.344,146.632 145.344,146.061C145.344,144.888 144.553,144.009 143.308,144.009ZM168.572,159.17L153.897,159.17L153.897,139.28L168.426,139.28L168.426,143.965L159.725,143.965L159.725,146.721L167.357,146.721L167.357,151.392L159.725,151.392L159.725,154.499L168.572,154.499L168.572,159.17ZM176.76,155.845L175.471,159.17L169.231,159.17L176.877,139.28L183.849,139.28L191.48,159.17L185.24,159.17L183.951,155.845L176.76,155.845ZM182.633,151.438L180.363,144.787L178.078,151.438L182.633,151.438ZM192.724,151.892L192.724,139.28L198.567,139.28L198.567,151.467C198.567,153.445 199.74,154.485 201.366,154.485C202.993,154.485 204.179,153.445 204.179,151.467L204.179,139.28L210.022,139.28L210.022,151.892C210.022,157.033 206.449,159.463 201.366,159.463C197.908,159.463 195.316,158.424 193.837,156.125C193.09,154.968 192.724,153.562 192.724,151.892Z" style="fill:rgb(45,40,82);"/>
        </g>
        <g transform="matrix(6.12323e-17,-1,1,6.12323e-17,99.3415,118.495)">
            <rect x="0" y="-0.5" width="40.252" height="1" style="fill:rgb(45,40,82);"/>
        </g>
        <g transform="matrix(6.12323e-17,-1,1,6.12323e-17,99.3415,219.395)">
            <rect x="0" y="-0.5" width="40.252" height="1" style="fill:rgb(45,40,82);"/>
        </g>
        <g transform="matrix(6.12323e-17,-1,1,6.12323e-17,75.2027,134.383)">
            <path d="M0,0C0,13.316 -9.196,24.115 -20.54,24.115C-31.884,24.115 -41.08,13.316 -41.08,0C-41.08,-13.319 -31.884,-24.115 -20.54,-24.115C-19.197,-24.115 -17.883,-23.962 -16.612,-23.673C-16.352,-23.615 -16.093,-23.55 -15.836,-23.479L-15.83,-23.479C-15.505,-23.388 -15.184,-23.291 -14.866,-23.184C-11.924,-21.601 -16.222,-14.844 -17.945,-12.411C-19.82,-9.761 -17.059,-0.042 -13.527,-11.525C-10.941,-19.93 -8.281,-19.181 -7.042,-18.175C-6.796,-17.925 -6.559,-17.669 -6.325,-17.406L-6.322,-17.403C-2.426,-13.014 0,-6.838 0,0ZM-27.63,-12.044C-28.467,-12.277 -29.318,-12.511 -30.099,-12.549C-30.878,-12.586 -31.592,-12.399 -31.856,-11.897C-32.03,-11.567 -31.997,-11.129 -31.881,-10.685C-31.72,-10.071 -31.334,-9.354 -30.618,-8.897C-30.066,-8.545 -29.405,-8.405 -28.898,-8C-28.491,-7.675 -28.192,-7.188 -27.715,-7.037C-27.586,-6.996 -27.463,-6.988 -27.343,-6.982C-26.767,-6.955 -26.209,-6.97 -25.679,-7.027C-25.326,-7.065 -24.977,-7.126 -24.751,-7.305C-24.391,-7.592 -24.414,-8.15 -24.67,-8.692C-24.925,-9.235 -25.384,-9.767 -25.866,-10.271C-26.283,-10.707 -26.743,-11.16 -26.91,-11.624L-27.63,-12.044ZM-12.558,1.172L-12.274,2.308C-12.304,3.61 -12.27,5.078 -11.327,5.978C-10.369,6.892 -8.872,6.839 -7.552,6.727C-7.214,6.699 -6.828,6.642 -6.645,6.356C-6.538,6.187 -6.53,5.975 -6.525,5.774C-6.495,4.415 -6.469,3.022 -6.911,1.736C-7.353,0.451 -8.367,-0.727 -9.705,-0.968C-11.043,-1.209 -12.584,-0.187 -12.558,1.172ZM-25.144,-16.654C-24.349,-15.278 -22.307,-14.969 -20.583,-15.964C-18.859,-16.96 -18.105,-18.883 -18.9,-20.259C-19.695,-21.635 -21.736,-21.944 -23.461,-20.949C-25.185,-19.953 -25.939,-18.03 -25.144,-16.654ZM-33.423,7.786L-33.587,8.091C-34.218,8.755 -34.225,10.044 -33.802,10.933C-33.379,11.821 -32.637,12.385 -31.898,12.839C-30.918,13.44 -29.889,13.912 -28.831,14.244C-28.122,14.467 -27.377,14.626 -26.664,14.427C-25.649,14.144 -24.795,13.088 -24.552,11.814C-24.309,10.539 -24.691,9.108 -25.496,8.279C-26.328,7.422 -27.565,7.153 -28.114,5.987C-28.404,5.37 -28.486,4.53 -28.983,4.179C-29.252,3.987 -29.581,3.998 -29.887,4.055C-31.487,4.35 -32.909,5.851 -33.423,7.786ZM-5.95,-9.021C-6.198,-10.503 -6.885,-11.652 -7.658,-11.879C-7.806,-11.922 -7.965,-11.93 -8.095,-11.784C-8.335,-11.515 -8.374,-10.871 -8.515,-10.399C-8.78,-9.506 -9.377,-9.3 -9.779,-8.643C-10.169,-8.008 -10.353,-6.912 -10.235,-5.936C-10.118,-4.959 -9.705,-4.151 -9.215,-3.934C-8.871,-3.782 -8.511,-3.904 -8.168,-4.074C-7.658,-4.329 -7.16,-4.69 -6.687,-5.151C-6.33,-5.498 -5.971,-5.93 -5.767,-6.611C-5.563,-7.291 -5.566,-8.279 -5.871,-8.787L-5.95,-9.021ZM-16.215,19.498L-14.689,19.045C-13.853,18.023 -13.017,17.004 -12.183,15.983C-11.522,15.177 -10.849,14.347 -10.504,13.364C-10.382,13.013 -10.338,12.552 -10.642,12.34C-10.793,12.236 -10.989,12.228 -11.172,12.239C-12.538,12.313 -13.722,13.15 -14.946,13.763C-15.808,14.195 -16.722,14.525 -17.662,14.742C-18.607,14.959 -19.617,15.082 -20.4,15.654C-21.183,16.227 -21.591,17.463 -20.929,18.173C-20.671,18.45 -20.301,18.594 -19.94,18.716C-18.736,19.124 -17.482,19.388 -16.215,19.498ZM-36.629,-1.751C-36.33,-1.117 -36.024,-0.474 -35.565,0.043C-35.107,0.56 -34.466,0.942 -33.796,0.907C-33.355,0.883 -32.937,0.683 -32.567,0.428C-32.055,0.073 -31.583,-0.468 -31.581,-1.115C-31.579,-1.613 -31.859,-2.096 -31.776,-2.587C-31.709,-2.982 -31.413,-3.374 -31.564,-3.742C-31.605,-3.841 -31.675,-3.924 -31.746,-4.003C-32.085,-4.385 -32.455,-4.737 -32.849,-5.055C-33.111,-5.266 -33.393,-5.466 -33.716,-5.538C-34.232,-5.653 -34.776,-5.41 -35.157,-5.024C-35.537,-4.638 -35.778,-4.125 -35.976,-3.609C-36.147,-3.164 -36.308,-2.683 -36.666,-2.386L-36.629,-1.751Z" style="fill:rgb(45,40,82);"/>
        </g>
        <g transform="matrix(6.12323e-17,-1,1,6.12323e-17,-0.000110236,297.638)">
            <path d="M178.677,50.785C179.426,50.967 179.904,51.7 179.769,52.458L176.292,71.965C175.401,76.964 174.417,81.156 173.067,85.659C171.233,85.402 169.429,84.971 167.678,84.371C168.543,79.742 169.589,75.56 171.09,70.702L176.939,51.772C177.167,51.035 177.928,50.603 178.677,50.785ZM171.032,92.393C171.771,93.274 172.153,94.495 171.981,95.857C171.663,98.371 169.914,100.777 167.223,101.292C164.816,101.753 162.284,100.414 161.474,98.068C162.383,98.654 164.271,99.504 164.825,98.044C165.139,97.217 164.572,96.483 164.285,95.738C163.934,94.83 164.155,93.778 164.618,92.947C165.03,92.205 165.67,91.624 166.423,91.288C166.443,91.306 166.463,91.325 166.484,91.343C166.496,91.354 166.509,91.364 166.522,91.375C166.535,91.386 166.547,91.396 166.56,91.407L166.599,91.437C166.616,91.45 166.633,91.462 166.65,91.475C166.66,91.483 166.67,91.49 166.681,91.498C166.708,91.517 166.736,91.536 166.765,91.555C166.775,91.562 166.786,91.569 166.797,91.576C166.819,91.59 166.842,91.604 166.865,91.618C166.875,91.625 166.886,91.631 166.896,91.637C166.93,91.657 166.963,91.677 166.999,91.696C167.046,91.723 167.095,91.748 167.146,91.774C167.501,91.954 167.947,92.123 168.472,92.278L168.488,92.282L168.503,92.286L168.701,92.334L168.717,92.338L168.733,92.341C169.271,92.445 169.744,92.498 170.143,92.501C170.2,92.502 170.255,92.501 170.309,92.499C170.35,92.498 170.389,92.496 170.428,92.494C170.441,92.493 170.454,92.492 170.466,92.491L170.544,92.485C170.558,92.484 170.572,92.482 170.586,92.481C170.611,92.478 170.636,92.475 170.66,92.472C170.672,92.47 170.684,92.468 170.696,92.467C170.728,92.462 170.76,92.457 170.791,92.451C170.808,92.448 170.823,92.444 170.84,92.441C170.856,92.438 170.872,92.435 170.888,92.431C170.905,92.427 170.922,92.423 170.939,92.418C170.953,92.415 170.967,92.411 170.981,92.407C170.998,92.403 171.015,92.398 171.032,92.393ZM167.555,85.041C169.284,85.627 171.063,86.052 172.87,86.313C172.602,87.192 172.32,88.084 172.021,88.998C171.768,89.77 171.534,90.548 171.318,91.331C171.121,92.046 169.59,91.82 168.86,91.68L168.662,91.632C167.95,91.422 166.486,90.922 166.638,90.195C166.805,89.401 166.953,88.602 167.082,87.801C167.235,86.857 167.392,85.94 167.555,85.041Z" style="fill:rgb(45,40,82);"/>
        </g>
    </g>
</svg>
