<?xml version="1.0" encoding="UTF-8" standalone="no"?>
<!DOCTYPE svg PUBLIC "-//W3C//DTD SVG 1.1//EN" "http://www.w3.org/Graphics/SVG/1.1/DTD/svg11.dtd">
<svg width="100%" height="100%" viewBox="0 0 222 309" version="1.1" xmlns="http://www.w3.org/2000/svg" xmlns:xlink="http://www.w3.org/1999/xlink" xml:space="preserve" xmlns:serif="http://www.serif.com/" style="fill-rule:evenodd;clip-rule:evenodd;stroke-linejoin:round;stroke-miterlimit:2;">
    <g transform="matrix(1,0,0,1,5.66929,5.66929)">
        <g transform="matrix(6.12323e-17,-1,1,6.12323e-17,-0.000110236,297.638)">
            <rect x="-5.669" y="-5.669" width="308.976" height="221.102" style="fill:rgb(72,155,104);"/>
        </g>
        <g transform="matrix(6.12323e-17,-1,1,6.12323e-17,0.000889764,297.638)">
            <rect x="14.173" y="14.173" width="269.291" height="181.417" style="fill:white;"/>
        </g>
        <g transform="matrix(6.12323e-17,-1,1,6.12323e-17,-0.000110236,297.638)">
            <path d="M99.228,135.706C99.228,132.791 100.341,130.197 102.2,128.382C104.06,126.581 106.814,125.482 109.904,125.482C111.648,125.482 113.259,125.878 114.753,126.683C116.247,127.488 117.419,128.587 118.283,129.978L114.035,132.923C113.156,131.399 111.677,130.593 109.904,130.593C108.454,130.593 107.312,131.062 106.447,132C105.583,132.938 105.144,134.169 105.144,135.692C105.144,137.2 105.583,138.444 106.463,139.397C107.342,140.365 108.485,140.849 109.905,140.849C111.78,140.849 113.084,140.042 113.596,138.503L109.232,138.503L109.232,134.227L119.485,134.227C119.528,134.784 119.558,135.413 119.558,136.102C119.558,139.119 118.664,141.522 116.877,143.294C115.076,145.066 112.761,145.959 109.905,145.959C106.815,145.959 104.061,144.846 102.201,143.03C100.341,141.215 99.228,138.591 99.228,135.706ZM137.169,145.666L122.493,145.666L122.493,125.775L137.023,125.775L137.023,130.461L128.321,130.461L128.321,133.217L135.953,133.217L135.953,137.888L128.321,137.888L128.321,140.995L137.169,140.995L137.169,145.666ZM145.933,145.666L140.251,145.666L140.251,125.775L145.01,125.775L153.493,136.394L153.493,125.775L159.175,125.775L159.175,145.666L154.621,145.666L145.933,135.018L145.933,145.666ZM169.374,139.001L169.374,145.666L163.56,145.666L163.56,125.775L173.594,125.775C175.557,125.775 177.212,126.39 178.574,127.635C179.921,128.88 180.595,130.446 180.595,132.366C180.595,135.004 179.204,137.127 177.022,138.24L181.049,145.681L174.825,145.681L171.323,139.001L169.374,139.001ZM172.613,130.505L169.374,130.505L169.374,134.462L172.613,134.462C173.213,134.462 173.712,134.257 174.093,133.832C174.459,133.421 174.649,132.938 174.649,132.366C174.649,131.296 173.858,130.505 172.613,130.505ZM198.367,145.666L183.691,145.666L183.691,125.775L198.221,125.775L198.221,130.461L189.52,130.461L189.52,133.217L197.151,133.217L197.151,137.888L189.52,137.888L189.52,140.995L198.367,140.995L198.367,145.666Z" style="fill:rgb(72,155,104);"/>
        </g>
        <g transform="matrix(6.12323e-17,-1,1,6.12323e-17,114.517,199.305)">
            <rect x="-0" y="-0.5" width="37.284" height="1" style="fill:rgb(72,155,104);"/>
        </g>
        <g transform="matrix(6.12323e-17,-1,1,6.12323e-17,114.517,135.617)">
            <rect x="-0" y="-0.5" width="37.284" height="1" style="fill:rgb(72,155,104);"/>
        </g>
        <g transform="matrix(6.12323e-17,-1,1,6.12323e-17,55.4141,159.988)">
            <path d="M10.035,50.11L3.407,50.11L3.407,47.225L10.035,47.225L10.035,40.829C10.586,40.861 11.144,40.886 11.711,40.886C12.277,40.886 12.836,40.861 13.386,40.829L13.386,47.225L20.072,47.225L20.072,50.11L13.386,50.11L13.386,57.428L11.719,59.103L11.703,59.103L10.035,57.428L10.035,50.11ZM0,9.355C-0.947,10.035 -1.797,10.812 -2.541,11.686L-14.155,0.072L-14.155,-2.331L-11.686,-2.331L0,9.355ZM11.945,7.034C22.19,7.171 29.11,13.884 28.979,23.571C28.85,33.258 21.753,39.783 11.508,39.646C1.271,39.509 -5.656,32.795 -5.526,23.109C-5.397,13.422 1.708,6.897 11.945,7.034ZM11.648,29.207C14.877,29.25 17.102,26.9 17.148,23.412C17.195,19.957 15.033,17.549 11.805,17.505C8.584,17.462 6.359,19.812 6.313,23.268C6.266,26.756 8.427,29.164 11.648,29.207ZM-7.416,-8.42L-7.416,-3.567L-15.391,-3.567L-15.391,3.877L-19.966,3.877L-19.966,-8.42L-7.416,-8.42Z" style="fill:rgb(71,156,105);"/>
        </g>
    </g>
</svg>
