<?xml version="1.0" encoding="UTF-8" standalone="no"?>
<!DOCTYPE svg PUBLIC "-//W3C//DTD SVG 1.1//EN" "http://www.w3.org/Graphics/SVG/1.1/DTD/svg11.dtd">
<svg width="100%" height="100%" viewBox="0 0 222 309" version="1.1" xmlns="http://www.w3.org/2000/svg" xmlns:xlink="http://www.w3.org/1999/xlink" xml:space="preserve" xmlns:serif="http://www.serif.com/" style="fill-rule:evenodd;clip-rule:evenodd;stroke-miterlimit:10;">
    <g transform="matrix(1,0,0,1,5.66929,5.66929)">
        <g transform="matrix(6.12323e-17,-1,1,6.12323e-17,-0.000110236,297.638)">
            <rect x="-5.669" y="-5.669" width="308.976" height="221.102" style="fill:rgb(66,131,157);"/>
        </g>
        <g transform="matrix(6.12323e-17,-1,1,6.12323e-17,0.000889764,297.638)">
            <rect x="14.173" y="14.173" width="269.291" height="181.417" style="fill:white;"/>
        </g>
        <g transform="matrix(6.12323e-17,-1,1,6.12323e-17,-0.000110236,297.638)">
            <path d="M69.879,137.871L69.879,117.98L75.722,117.98L75.722,125.392L83.312,125.392L83.312,117.98L89.155,117.98L89.155,137.871L83.312,137.871L83.312,130.063L75.722,130.063L75.722,137.871L69.879,137.871ZM98.644,134.546L97.355,137.871L91.115,137.871L98.761,117.98L105.733,117.98L113.364,137.871L107.124,137.871L105.835,134.546L98.644,134.546ZM104.517,130.138L102.247,123.488L99.962,130.138L104.517,130.138ZM121.006,137.871L115.324,137.871L115.324,117.98L120.083,117.98L128.566,128.599L128.566,117.98L134.248,117.98L134.248,137.871L129.694,137.871L121.006,127.222L121.006,137.871ZM147.398,137.871L138.64,137.871L138.64,117.98L147.398,117.98C148.776,117.98 150.094,118.244 151.354,118.756C152.599,119.283 153.683,119.986 154.591,120.865C156.392,122.637 157.534,125.2 157.534,127.911C157.534,129.259 157.271,130.548 156.743,131.779C156.202,133.009 155.484,134.064 154.591,134.957C153.683,135.85 152.599,136.553 151.354,137.08C150.094,137.607 148.776,137.871 147.398,137.871ZM147.091,122.68L144.482,122.68L144.482,133.185L147.047,133.185C148.365,133.185 149.464,132.658 150.329,131.618C151.193,130.577 151.618,129.347 151.618,127.911C151.618,126.475 151.193,125.244 150.343,124.219C149.493,123.193 148.409,122.68 147.091,122.68ZM160.637,117.98L166.48,117.98L166.48,137.871L160.637,137.871L160.637,117.98ZM180.245,138.164C178.179,138.164 176.333,137.71 174.708,136.817C173.082,135.923 171.808,134.708 170.915,133.141C170.021,131.574 169.568,129.83 169.568,127.896C169.568,125.962 170.021,124.219 170.915,122.666C171.808,121.114 173.082,119.898 174.708,119.005C176.333,118.126 178.179,117.687 180.244,117.687C182.105,117.687 183.804,118.141 185.357,119.034C186.909,119.942 188.096,121.158 188.902,122.666L184.654,125.611C183.672,123.735 182.193,122.798 180.244,122.798C178.794,122.798 177.652,123.266 176.787,124.204C175.923,125.142 175.484,126.372 175.484,127.896C175.484,129.405 175.923,130.651 176.803,131.603C177.682,132.57 178.824,133.053 180.245,133.053C182.252,133.053 183.819,132.101 184.932,130.211L189.107,133.127C188.374,134.606 187.188,135.806 185.548,136.743C183.892,137.695 182.134,138.164 180.245,138.164ZM196.779,134.546L195.49,137.871L189.25,137.871L196.896,117.98L203.868,117.98L211.499,137.871L205.26,137.871L203.971,134.546L196.779,134.546ZM202.653,130.138L200.382,123.488L198.097,130.138L202.653,130.138ZM219.302,131.631L219.302,137.871L213.459,137.871L213.459,117.98L223.347,117.98C227.14,117.907 230.406,120.865 230.347,124.761C230.347,126.711 229.674,128.336 228.312,129.654C226.95,130.972 225.295,131.631 223.347,131.631L219.302,131.631ZM222.38,122.71L219.302,122.71L219.302,126.901L222.38,126.901C222.98,126.901 223.479,126.681 223.86,126.256C224.226,125.831 224.416,125.333 224.416,124.761C224.416,123.589 223.625,122.71 222.38,122.71Z" style="fill:rgb(66,131,157);"/>
        </g>
        <g transform="matrix(6.12323e-17,-1,1,6.12323e-17,106.222,110.617)">
            <rect x="-0" y="-0.5" width="43.294" height="1" style="fill:rgb(66,131,157);"/>
        </g>
        <g transform="matrix(6.12323e-17,-1,1,6.12323e-17,106.722,227.906)">
            <rect x="-0" y="-0.5" width="43.294" height="1" style="fill:rgb(66,131,157);"/>
        </g>
        <g transform="matrix(6.12323e-17,-1,1,6.12323e-17,-0.000110236,297.638)">
            <g transform="matrix(1,0,0,1,129.415,59.754)">
                <path d="M0,47.698L35.283,47.698L17.642,0L0,47.698Z" style="fill:rgb(66,131,157);fill-rule:nonzero;"/>
            </g>
            <g transform="matrix(1,0,0,1,147.057,107.452)">
                <path d="M0,-47.698L-17.641,0L17.641,0L0,-47.698Z" style="fill:none;fill-rule:nonzero;stroke:white;stroke-width:0.55px;"/>
            </g>
            <g transform="matrix(1,0,0,1,138.703,79.847)">
                <path d="M0,27.605L41.067,27.605L20.534,0L0,27.605Z" style="fill:rgb(66,131,157);fill-rule:nonzero;"/>
            </g>
            <g transform="matrix(1,0,0,1,159.236,107.452)">
                <clipPath id="_clip1">
                    <rect x="-39.081" y="-48.492" width="60.161" height="48.766" clip-rule="nonzero"/>
                </clipPath>
                <g clip-path="url(#_clip1)">
                    <path d="M0,-27.605L-20.533,0L20.533,0L0,-27.605Z" style="fill:none;fill-rule:nonzero;stroke:white;stroke-width:0.55px;"/>
                </g>
            </g>
            <g transform="matrix(1,0,0,1,120.632,84.037)">
                <path d="M0,23.415L27.038,23.415L13.519,0L0,23.415Z" style="fill:rgb(66,131,157);fill-rule:nonzero;"/>
            </g>
            <g transform="matrix(1,0,0,1,134.15,107.452)">
                <clipPath id="_clip2">
                    <rect x="-13.995" y="-48.492" width="60.161" height="48.766" clip-rule="nonzero"/>
                </clipPath>
                <g clip-path="url(#_clip2)">
                    <path d="M0,-23.415L-13.519,0L13.519,0L0,-23.415Z" style="fill:none;fill-rule:nonzero;stroke:white;stroke-width:0.55px;"/>
                </g>
            </g>
            <g transform="matrix(-0.500027,-0.86601,-0.86601,0.500027,156.498,94.6964)">
                <rect x="-0.513" y="0.296" width="8.436" height="13.428" style="fill:rgb(66,131,157);"/>
            </g>
            <g transform="matrix(1,0,0,1,144.102,72.2018)">
                <path d="M0,-4.458L2.01,-2.167L3.78,-4.105L7.559,0" style="fill:none;fill-rule:nonzero;stroke:white;stroke-width:0.33px;"/>
            </g>
        </g>
    </g>
</svg>
