<svg width="100%" height="100%" viewBox="0 0 61 84" version="1.1" xmlns="http://www.w3.org/2000/svg" xmlns:xlink="http://www.w3.org/1999/xlink" xml:space="preserve" xmlns:serif="http://www.serif.com/" style="fill-rule:evenodd;clip-rule:evenodd;stroke-linejoin:round;stroke-miterlimit:2;">
    <g id="Calque_1-2" color="white">
        <path d="M24.67,21.96C23.5,22.8 22.45,23.76 21.53,24.84L7.18,10.49L7.18,7.52L10.23,7.52L24.67,21.96Z" style="fill-rule:nonzero;" fill="currentColor"/>
        <path d="M41.21,60.85L41.21,81.36L39.15,83.43L39.13,83.43L37.07,81.36L37.07,60.85C37.75,60.89 38.44,60.92 39.14,60.92C39.84,60.92 40.53,60.89 41.21,60.85Z" style="fill-rule:nonzero;" fill="currentColor"/>
        <path d="M39.43,19.1C26.78,18.93 18,26.99 17.84,38.96C17.68,50.93 26.24,59.22 38.89,59.39C51.54,59.56 60.32,51.5 60.48,39.53C60.64,27.56 52.09,19.27 39.43,19.1ZM39.06,46.5C35.08,46.45 32.41,43.47 32.47,39.16C32.53,34.89 35.28,31.99 39.26,32.04C43.25,32.09 45.92,35.07 45.86,39.34C45.8,43.65 43.05,46.55 39.06,46.5Z" style="fill-rule:nonzero;" fill="currentColor"/>
        <path d="M15.51,0L15.51,6L5.65,6L5.65,15.2L0,15.2L0,0L15.51,0Z" style="fill-rule:nonzero;" fill="currentColor"/>
        <g transform="matrix(1,0,0,1.76796,0,-56.3416)">
            <rect x="23.16" y="70.936" width="12.494" height="2.429" fill="currentColor"/>
        </g>
        <g transform="matrix(1,0,0,1.76796,19.4658,-56.361)">
            <rect x="23.16" y="70.936" width="12.494" height="2.429" fill="currentColor"/>
        </g>
    </g>
</svg>
