<?xml version="1.0" encoding="UTF-8" standalone="no"?>
<!DOCTYPE svg PUBLIC "-//W3C//DTD SVG 1.1//EN" "http://www.w3.org/Graphics/SVG/1.1/DTD/svg11.dtd">
<svg width="100%" height="100%" viewBox="0 0 222 309" version="1.1" xmlns="http://www.w3.org/2000/svg" xmlns:xlink="http://www.w3.org/1999/xlink" xml:space="preserve" xmlns:serif="http://www.serif.com/" style="fill-rule:evenodd;clip-rule:evenodd;">
    <path d="M-0,0L221.102,0L221.102,308.976L0,308.976L-0,0Z" style="fill:rgb(31,43,51);"/>
    <path d="M19.843,19.843L201.26,19.843L201.26,289.134L19.843,289.134L19.843,19.843Z" style="fill:white;"/>
    <path d="M110.765,209.48L110.765,98.646" style="fill:none;fill-rule:nonzero;stroke:rgb(31,43,51);stroke-width:1px;"/>
    <g>
        <path d="M145.098,181.947L134.449,181.947L145.098,173.259L145.098,168.704L125.207,168.704L125.207,174.386L135.826,174.386L125.207,182.869L125.207,187.628L145.098,187.628L145.098,181.947Z" style="fill:none;fill-rule:nonzero;stroke:rgb(31,43,51);stroke-width:1.2px;stroke-linejoin:round;stroke-miterlimit:2;"/>
        <path d="M145.391,155.096C145.391,152.093 144.322,149.397 142.535,147.567C140.749,145.737 138.126,144.623 135.138,144.623C132.163,144.623 129.541,145.737 127.755,147.568C125.968,149.398 124.914,152.093 124.914,155.096C124.826,161.16 129.19,165.745 135.123,165.657C138.112,165.657 140.734,164.544 142.521,162.683C144.307,160.823 145.391,158.143 145.391,155.096L145.391,155.096ZM135.138,159.725C133.658,159.725 132.456,159.3 131.533,158.436C130.61,157.572 130.156,156.458 130.156,155.067C130.156,153.719 130.61,152.621 131.533,151.786C132.456,150.951 133.658,150.541 135.138,150.541C136.647,150.541 137.863,150.951 138.786,151.786C139.723,152.621 140.192,153.705 140.192,155.067C140.192,156.458 139.723,157.572 138.786,158.436C137.863,159.3 136.647,159.725 135.138,159.725Z" style="fill:none;fill-rule:nonzero;stroke:rgb(31,43,51);stroke-width:1.2px;stroke-linejoin:round;stroke-miterlimit:2;"/>
        <path d="M145.098,135.894L134.449,135.894L145.098,127.206L145.098,122.652L125.207,122.652L125.207,128.333L135.826,128.333L125.207,136.816L125.207,141.576L145.098,141.576L145.098,135.894Z" style="fill:none;fill-rule:nonzero;stroke:rgb(31,43,51);stroke-width:1.2px;stroke-linejoin:round;stroke-miterlimit:2;"/>
        <path d="M175.098,246.885C175.098,245.508 174.834,244.189 174.307,242.929C173.78,241.684 173.077,240.601 172.184,239.693C171.291,238.8 170.236,238.082 169.006,237.54C167.775,237.013 166.486,236.749 165.138,236.749C162.427,236.749 159.863,237.892 158.092,239.693C157.213,240.601 156.51,241.684 155.983,242.929C155.471,244.189 155.207,245.508 155.207,246.885L155.207,255.644L175.098,255.644L175.098,246.885ZM159.907,247.193C159.907,245.874 160.42,244.79 161.446,243.94C162.471,243.09 163.702,242.666 165.138,242.666C166.573,242.666 167.804,243.09 168.844,243.955C169.885,244.819 170.412,245.918 170.412,247.237L170.412,249.801L159.907,249.801L159.907,247.193Z" style="fill:none;fill-rule:nonzero;stroke:rgb(31,43,51);stroke-width:1.2px;stroke-linejoin:round;stroke-miterlimit:2;"/>
        <path d="M155.207,233.702L175.098,233.702L175.098,227.859L155.207,227.859L155.207,233.702Z" style="fill:none;fill-rule:nonzero;stroke:rgb(31,43,51);stroke-width:1.2px;stroke-linejoin:round;stroke-miterlimit:2;"/>
        <path d="M170.793,224.752C173.721,222.98 175.391,219.89 175.391,215.979C175.391,214.046 174.849,212.142 173.868,210.604C172.887,209.066 171.217,208.04 169.269,208.04C167.365,208.04 166.09,208.875 165.079,210.179C164.757,210.604 164.449,211.116 164.171,211.731C163.614,212.962 163.233,214.075 162.779,215.701C162.266,217.458 161.812,218.381 160.977,218.381C160.171,218.381 159.731,217.532 159.731,216.492C159.731,214.851 160.669,213.401 162.032,212.581L159.278,208.612C156.481,210.413 154.914,212.859 154.914,216.433C154.914,217.751 155.148,218.982 155.631,220.124C156.115,221.281 156.832,222.219 157.769,222.936C158.721,223.669 159.79,224.035 160.991,224.035C162.706,223.991 163.907,223.464 164.83,222.438C165.475,221.735 165.87,221.12 166.295,220.124C166.749,219.099 166.925,218.513 167.262,217.385C167.291,217.224 167.35,217.092 167.394,216.946C167.789,215.642 168.082,214.763 168.302,214.339C168.522,213.914 168.844,213.694 169.255,213.694C170.002,213.694 170.558,214.661 170.558,215.935C170.558,217.766 169.621,219.406 167.877,220.578L170.793,224.752Z" style="fill:none;fill-rule:nonzero;stroke:rgb(31,43,51);stroke-width:1.2px;stroke-linejoin:round;stroke-miterlimit:2;"/>
        <path d="M175.391,195.604C175.391,193.715 174.922,191.957 173.97,190.302C173.033,188.661 171.832,187.475 170.353,186.743L167.438,190.917C169.328,192.03 170.28,193.597 170.28,195.604C170.28,197.025 169.797,198.167 168.83,199.046C167.877,199.926 166.632,200.366 165.123,200.366C163.599,200.366 162.369,199.926 161.431,199.062C160.493,198.198 160.024,197.055 160.024,195.605C160.024,193.657 160.962,192.177 162.837,191.196L159.893,186.948C158.384,187.753 157.169,188.94 156.261,190.493C155.368,192.045 154.914,193.745 154.914,195.605C154.914,197.67 155.353,199.516 156.232,201.142C157.125,202.767 158.34,204.041 159.893,204.935C161.446,205.828 163.189,206.282 165.123,206.282C167.057,206.282 168.8,205.828 170.368,204.935C171.935,204.041 173.15,202.767 174.043,201.142C174.937,199.516 175.391,197.67 175.391,195.605L175.391,195.604Z" style="fill:none;fill-rule:nonzero;stroke:rgb(31,43,51);stroke-width:1.2px;stroke-linejoin:round;stroke-miterlimit:2;"/>
        <path d="M168.433,178.409L168.433,176.46L175.112,172.958L175.112,166.734L167.671,170.761C166.558,168.579 164.435,167.188 161.798,167.188C159.878,167.188 158.311,167.861 157.067,169.209C155.822,170.571 155.207,172.225 155.207,174.188L155.207,184.222L175.098,184.222L175.098,178.409L168.433,178.409ZM159.937,175.17C159.937,173.925 160.728,173.133 161.798,173.133C162.369,173.133 162.853,173.324 163.263,173.69C163.688,174.071 163.893,174.569 163.893,175.17L163.893,178.409L159.937,178.409L159.937,175.17Z" style="fill:none;fill-rule:nonzero;stroke:rgb(31,43,51);stroke-width:1.2px;stroke-linejoin:round;stroke-miterlimit:2;"/>
        <path d="M155.207,164.14L175.098,164.14L175.098,158.297L155.207,158.297L155.207,164.14Z" style="fill:none;fill-rule:nonzero;stroke:rgb(31,43,51);stroke-width:1.2px;stroke-linejoin:round;stroke-miterlimit:2;"/>
        <path d="M175.098,148.191L165.196,148.191L173.97,144.411L173.97,140.939L165.196,137.159L175.098,137.159L175.098,131.389L155.207,131.389L155.207,137.496L166.646,142.682L155.207,147.854L155.207,153.96L175.098,153.96L175.098,148.191Z" style="fill:none;fill-rule:nonzero;stroke:rgb(31,43,51);stroke-width:1.2px;stroke-linejoin:round;stroke-miterlimit:2;"/>
        <path d="M155.207,127.052L175.098,127.052L175.098,121.209L155.207,121.209L155.207,127.052Z" style="fill:none;fill-rule:nonzero;stroke:rgb(31,43,51);stroke-width:1.2px;stroke-linejoin:round;stroke-miterlimit:2;"/>
        <path d="M175.098,111.191L164.449,111.191L175.098,102.503L175.098,97.949L155.207,97.949L155.207,103.63L165.826,103.63L155.207,112.113L155.207,116.872L175.098,116.872L175.098,111.191Z" style="fill:none;fill-rule:nonzero;stroke:rgb(31,43,51);stroke-width:1.2px;stroke-linejoin:round;stroke-miterlimit:2;"/>
        <path d="M175.098,78.936L170.427,78.936L170.427,87.783L167.319,87.783L167.319,80.152L162.648,80.152L162.648,87.783L159.893,87.783L159.893,79.082L155.207,79.082L155.207,93.612L175.098,93.612L175.098,78.936ZM148.63,80.093L148.63,86.421L153.521,88.867L153.521,84.297L148.63,80.093Z" style="fill:none;fill-rule:nonzero;stroke:rgb(31,43,51);stroke-width:1.2px;stroke-linejoin:round;stroke-miterlimit:2;"/>
        <path d="M169.253,76.504C169.81,75.947 170.088,75.259 170.088,74.424C170.088,73.589 169.81,72.901 169.253,72.33C168.711,71.759 168.023,71.481 167.218,71.481C166.412,71.481 165.724,71.759 165.168,72.33C164.611,72.901 164.333,73.589 164.333,74.424C164.333,75.259 164.611,75.947 165.168,76.504C165.724,77.075 166.412,77.353 167.218,77.353C168.023,77.353 168.711,77.075 169.253,76.504Z" style="fill:none;fill-rule:nonzero;stroke:rgb(31,43,51);stroke-width:1.2px;stroke-linejoin:round;stroke-miterlimit:2;"/>
        <path d="M175.098,53.332L170.427,53.332L170.427,62.18L167.319,62.18L167.319,54.548L162.648,54.548L162.648,62.18L159.893,62.18L159.893,53.479L155.207,53.479L155.207,68.008L175.098,68.008L175.098,53.332Z" style="fill:none;fill-rule:nonzero;stroke:rgb(31,43,51);stroke-width:1.2px;stroke-linejoin:round;stroke-miterlimit:2;"/>
    </g>
</svg>
