<?xml version="1.0" encoding="UTF-8" standalone="no"?>
<!DOCTYPE svg PUBLIC "-//W3C//DTD SVG 1.1//EN" "http://www.w3.org/Graphics/SVG/1.1/DTD/svg11.dtd">
<svg width="100%" height="100%" viewBox="0 0 222 309" version="1.1" xmlns="http://www.w3.org/2000/svg" xmlns:xlink="http://www.w3.org/1999/xlink" xml:space="preserve" xmlns:serif="http://www.serif.com/" style="fill-rule:evenodd;clip-rule:evenodd;stroke-linejoin:round;stroke-miterlimit:2;">
    <g transform="matrix(1,0,0,1,5.66929,5.66929)">
        <g transform="matrix(6.12323e-17,-1,1,6.12323e-17,-0.000110236,297.638)">
            <rect x="-5.669" y="-5.669" width="308.976" height="221.102" style="fill:rgb(232,57,74);"/>
        </g>
        <g transform="matrix(6.12323e-17,-1,1,6.12323e-17,0.000889764,297.638)">
            <rect x="14.173" y="14.173" width="269.291" height="181.417" style="fill:white;"/>
        </g>
        <g transform="matrix(6.12323e-17,-1,1,6.12323e-17,-0.000110236,297.638)">
            <path d="M59.441,132.328C56.394,132.328 53.714,131.244 51.853,129.458C49.993,127.671 48.88,125.049 48.88,122.06C48.792,116.127 53.377,111.763 59.441,111.851C62.443,111.851 65.138,112.906 66.969,114.692C68.8,116.479 69.913,119.101 69.913,122.075C69.913,125.064 68.8,127.686 66.97,129.473C65.139,131.259 62.444,132.328 59.441,132.328ZM54.812,122.075C54.812,123.584 55.237,124.8 56.101,125.723C56.965,126.661 58.078,127.13 59.47,127.13C60.832,127.13 61.916,126.661 62.751,125.723C63.586,124.8 63.996,123.584 63.996,122.075C63.996,120.595 63.586,119.394 62.751,118.471C61.916,117.548 60.817,117.094 59.47,117.094C58.078,117.094 56.965,117.548 56.101,118.471C55.237,119.394 54.812,120.595 54.812,122.075ZM78.775,125.37L78.775,132.035L72.962,132.035L72.962,112.144L82.995,112.144C84.958,112.144 86.613,112.759 87.975,114.004C89.322,115.248 89.996,116.815 89.996,118.735C89.996,121.373 88.605,123.496 86.423,124.609L90.45,132.05L84.226,132.05L80.724,125.37L78.775,125.37ZM82.014,116.874L78.775,116.874L78.775,120.831L82.014,120.831C82.614,120.831 83.113,120.626 83.494,120.201C83.86,119.79 84.051,119.307 84.051,118.735C84.051,117.665 83.259,116.874 82.014,116.874ZM93.044,112.144L98.887,112.144L98.887,132.035L93.044,132.035L93.044,112.144ZM117.9,132.035L103.224,132.035L103.224,112.144L117.754,112.144L117.754,116.83L109.053,116.83L109.053,119.586L116.685,119.586L116.685,124.257L109.053,124.257L109.053,127.364L117.9,127.364L117.9,132.035ZM126.616,132.035L120.934,132.035L120.934,112.144L125.693,112.144L134.176,122.763L134.176,112.144L139.858,112.144L139.858,132.035L135.304,132.035L126.616,121.387L126.616,132.035ZM147.696,116.918L142.027,116.918L142.027,112.144L159.355,112.144L159.355,116.918L153.539,116.918L153.539,132.035L147.696,132.035L147.696,116.918ZM164.102,128.71L162.813,132.035L156.573,132.035L164.219,112.144L171.191,112.144L178.822,132.035L172.582,132.035L171.293,128.71L164.102,128.71ZM169.975,124.302L167.705,117.652L165.42,124.302L169.975,124.302ZM181.695,116.918L176.026,116.918L176.026,112.144L193.353,112.144L193.353,116.918L187.537,116.918L187.537,132.035L181.695,132.035L181.695,116.918ZM195.522,112.144L201.365,112.144L201.365,132.035L195.522,132.035L195.522,112.144ZM214.974,132.328C211.927,132.328 209.247,131.244 207.387,129.458C205.527,127.671 204.413,125.049 204.413,122.06C204.326,116.127 208.91,111.763 214.974,111.851C217.977,111.851 220.672,112.906 222.503,114.692C224.334,116.479 225.447,119.101 225.447,122.075C225.447,125.064 224.334,127.686 222.503,129.473C220.673,131.259 217.978,132.328 214.974,132.328ZM210.346,122.075C210.346,123.584 210.77,124.8 211.634,125.723C212.499,126.661 213.612,127.13 215.003,127.13C216.365,127.13 217.449,126.661 218.284,125.723C219.119,124.8 219.529,123.584 219.529,122.075C219.529,120.595 219.119,119.394 218.284,118.471C217.449,117.548 216.351,117.094 215.003,117.094C213.612,117.094 212.499,117.548 211.634,118.471C210.77,119.394 210.346,120.595 210.346,122.075ZM234.177,132.035L228.495,132.035L228.495,112.144L233.254,112.144L241.737,122.763L241.737,112.144L247.419,112.144L247.419,132.035L242.865,132.035L234.177,121.387L234.177,132.035ZM75.159,156.41L79.333,153.495C80.505,155.238 82.145,156.176 83.976,156.176C85.25,156.176 86.217,155.619 86.217,154.872C86.217,154.462 85.997,154.139 85.573,153.92C85.148,153.7 84.269,153.407 82.965,153.011C82.819,152.967 82.687,152.909 82.526,152.879C81.398,152.542 80.812,152.367 79.787,151.912C78.791,151.488 78.176,151.092 77.473,150.447C76.448,149.524 75.92,148.323 75.876,146.609C75.876,145.407 76.242,144.338 76.975,143.387C77.693,142.449 78.63,141.732 79.787,141.249C80.929,140.766 82.16,140.531 83.478,140.531C87.052,140.531 89.498,142.098 91.299,144.895L87.33,147.649C86.51,146.286 85.06,145.349 83.419,145.349C82.38,145.349 81.53,145.788 81.53,146.594C81.53,147.429 82.453,147.883 84.21,148.396C85.836,148.85 86.949,149.231 88.18,149.788C88.795,150.066 89.307,150.374 89.732,150.696C91.036,151.707 91.871,152.982 91.871,154.887C91.871,156.835 90.845,158.504 89.307,159.485C87.77,160.466 85.865,161.008 83.932,161.008C80.021,161.008 76.931,159.339 75.159,156.41ZM109.663,160.715L94.987,160.715L94.987,140.824L109.516,140.824L109.516,145.51L100.815,145.51L100.815,148.266L108.447,148.266L108.447,152.937L100.815,152.937L100.815,156.044L109.663,156.044L109.663,160.715ZM120.908,154.827L116.924,160.715L110.245,160.715L117.554,150.55L110.611,140.824L117.276,140.824L120.908,146.141L124.541,140.824L131.22,140.824L124.262,150.55L131.571,160.715L124.892,160.715L120.908,154.827ZM133.238,153.437L133.238,140.824L139.08,140.824L139.08,153.012C139.08,154.989 140.253,156.029 141.879,156.029C143.506,156.029 144.693,154.989 144.693,153.012L144.693,140.824L150.536,140.824L150.536,153.437C150.536,158.577 146.962,161.008 141.879,161.008C138.421,161.008 135.83,159.968 134.351,157.669C133.604,156.513 133.238,155.106 133.238,153.437ZM169.383,160.715L154.707,160.715L154.707,140.824L169.236,140.824L169.236,145.51L160.535,145.51L160.535,148.266L168.167,148.266L168.167,152.937L160.535,152.937L160.535,156.044L169.383,156.044L169.383,160.715ZM178.313,156.059L187.863,156.059L187.863,160.715L172.47,160.715L172.47,140.824L178.313,140.824L178.313,156.059ZM196.002,156.059L205.553,156.059L205.553,160.715L190.159,160.715L190.159,140.824L196.002,140.824L196.002,156.059ZM222.525,160.715L207.849,160.715L207.849,140.824L222.379,140.824L222.379,145.51L213.677,145.51L213.677,148.266L221.309,148.266L221.309,152.937L213.677,152.937L213.677,156.044L222.525,156.044L222.525,160.715Z" style="fill:rgb(232,57,74);"/>
        </g>
        <g transform="matrix(6.12323e-17,-1,1,6.12323e-17,100.886,116.929)">
            <rect x="0" y="-0.5" width="66.827" height="1" style="fill:rgb(232,57,74);"/>
        </g>
        <g transform="matrix(6.12323e-17,-1,1,6.12323e-17,100.886,247.535)">
            <rect x="0" y="-0.5" width="66.827" height="1" style="fill:rgb(232,57,74);"/>
        </g>
        <g transform="matrix(6.12323e-17,-1,1,6.12323e-17,-0.000110236,297.638)">
            <g transform="matrix(0,1,1,0,148.819,49.7771)">
                <path d="M25.445,-26.164C11.005,-26.164 -0.719,-14.44 -0.719,0C-0.719,14.44 11.005,26.164 25.445,26.164C39.886,26.164 51.609,14.44 51.609,0C51.609,-14.44 39.886,-26.164 25.445,-26.164ZM25.445,-24.727C39.093,-24.727 50.173,-13.647 50.173,0C50.173,13.647 39.093,24.728 25.445,24.728C11.798,24.728 0.718,13.647 0.718,0C0.718,-13.647 11.798,-24.727 25.445,-24.727ZM2.705,0.049C1.811,0.77 1.385,1.737 1.726,2.487C2.171,3.469 3.759,3.708 5.273,3.021C6.787,2.334 7.207,0 7.207,0C7.207,0 7.204,-0.002 7.198,-0.005C7.204,-0.009 7.207,-0.011 7.207,-0.011C7.207,-0.011 6.787,-2.345 5.273,-3.032C3.759,-3.719 2.171,-3.48 1.726,-2.498C1.385,-1.747 1.811,-0.78 2.706,-0.059C2.705,-0.023 2.705,0.013 2.705,0.049ZM4.059,-7.729L5.41,-7.242C5.48,-7.437 5.553,-7.63 5.629,-7.822L4.293,-8.348C4.212,-8.144 4.134,-7.937 4.059,-7.729ZM8.064,14.653L9.163,13.728C9.03,13.57 8.899,13.41 8.77,13.248L7.646,14.141C7.783,14.314 7.922,14.484 8.064,14.653ZM14.121,19.721L14.837,18.476C14.657,18.373 14.48,18.268 14.304,18.16L13.552,19.383C13.74,19.499 13.93,19.611 14.121,19.721ZM21.55,22.401L21.796,20.987C21.592,20.951 21.388,20.913 21.186,20.872L20.9,22.279C21.115,22.323 21.332,22.363 21.55,22.401ZM4.097,7.826L5.445,7.33C5.373,7.136 5.305,6.941 5.239,6.745L3.878,7.201C3.948,7.411 4.021,7.619 4.097,7.826ZM46.792,-7.83L45.445,-7.334C45.516,-7.14 45.585,-6.945 45.65,-6.749L47.012,-7.205C46.942,-7.415 46.868,-7.623 46.792,-7.83ZM36.765,-19.723L36.05,-18.478C36.23,-18.375 36.407,-18.27 36.583,-18.162L37.335,-19.385C37.147,-19.501 36.957,-19.613 36.765,-19.723ZM42.899,14.573L41.798,13.652C41.665,13.81 41.53,13.967 41.393,14.121L42.467,15.075C42.613,14.91 42.757,14.743 42.899,14.573ZM48.186,-0.055L46.75,-0.053C46.75,0.153 46.747,0.36 46.742,0.567L48.177,0.607C48.183,0.385 48.186,0.165 48.186,-0.055ZM42.823,-14.657L41.725,-13.731C41.858,-13.573 41.989,-13.413 42.118,-13.251L43.242,-14.144C43.105,-14.317 42.965,-14.488 42.823,-14.657ZM23.303,1.653C22.949,1.196 22.739,0.622 22.739,0C22.739,-0.627 22.952,-1.204 23.312,-1.664L9.299,0.084L23.303,1.653ZM29.448,22.387L29.194,20.973C28.991,21.01 28.787,21.043 28.582,21.074L28.794,22.494C29.013,22.461 29.231,22.426 29.448,22.387ZM21.449,-22.387L21.702,-20.973C21.905,-21.01 22.109,-21.043 22.314,-21.074L22.102,-22.494C21.883,-22.461 21.666,-22.426 21.449,-22.387ZM29.336,-22.402L29.09,-20.987C29.295,-20.951 29.498,-20.913 29.7,-20.872L29.986,-22.279C29.771,-22.323 29.554,-22.364 29.336,-22.402ZM43.259,0.095L27.132,-1.917L27.425,-1.543C27.759,-1.116 27.956,-0.581 27.956,0C27.956,0.577 27.762,1.109 27.433,1.533L27.149,1.9L43.259,0.095ZM27.982,1.412C28.215,0.994 28.348,0.512 28.348,0C28.348,-0.514 28.215,-0.997 27.979,-1.416L39.925,0.074L27.982,1.412ZM46.834,7.725L45.483,7.238C45.412,7.433 45.34,7.626 45.264,7.818L46.6,8.344C46.681,8.139 46.759,7.933 46.834,7.725ZM14.036,-19.663L14.757,-18.421C14.936,-18.525 15.116,-18.626 15.298,-18.725L14.613,-19.987C14.419,-19.882 14.227,-19.773 14.036,-19.663ZM7.996,-14.577L9.096,-13.655C9.229,-13.813 9.364,-13.97 9.501,-14.124L8.428,-15.078C8.281,-14.913 8.137,-14.746 7.996,-14.577ZM36.86,19.661L36.138,18.419C35.959,18.523 35.779,18.624 35.597,18.723L36.283,19.985C36.477,19.88 36.669,19.772 36.86,19.661ZM25.445,-1.353C24.698,-1.353 24.093,-0.747 24.093,-0C24.093,0.748 24.698,1.354 25.445,1.354C26.192,1.354 26.799,0.748 26.799,-0C26.799,-0.747 26.192,-1.353 25.445,-1.353Z" style="fill:rgb(232,57,74);"/>
            </g>
            <g transform="matrix(0,1,1,0,148.819,63.6911)">
                <path d="M11.532,-11.532C17.901,-11.532 23.063,-6.369 23.063,-0.001C23.063,6.368 17.901,11.532 11.532,11.532C5.162,11.532 0.001,6.368 0.001,-0.001C0.001,-6.369 5.162,-11.532 11.532,-11.532" style="fill:rgb(232,57,74);fill-opacity:0.05;"/>
            </g>
        </g>
    </g>
</svg>
