<?xml version="1.0" encoding="UTF-8" standalone="no"?>
<!DOCTYPE svg PUBLIC "-//W3C//DTD SVG 1.1//EN" "http://www.w3.org/Graphics/SVG/1.1/DTD/svg11.dtd">
<svg width="100%" height="100%" viewBox="0 0 922 1288" version="1.1" xmlns="http://www.w3.org/2000/svg" xmlns:xlink="http://www.w3.org/1999/xlink" xml:space="preserve" xmlns:serif="http://www.serif.com/" style="fill-rule:evenodd;clip-rule:evenodd;">
    <path d="M0,0L921.26,0L921.26,1287.4L0,1287.4L0,0Z" style="fill:rgb(239,70,83);"/>
    <path d="M82.679,82.68L838.584,82.68L838.584,1204.73L82.679,1204.73L82.679,82.68Z" style="fill:white;"/>
    <g transform="matrix(6.12323e-17,-1,1,6.12323e-17,-1240.16,1287.4)">
        <text x="223.5px" y="1813.93px" style="font-family:'Mundial-Black', 'Mundial';font-weight:900;font-size:125px;fill:rgb(239,70,83);">O<tspan x="318.469px 402.146px 444.564px 518.354px 615.276px 676.981px 756.935px 829.138px 871.556px 966.525px " y="1813.93px 1813.93px 1813.93px 1813.93px 1813.93px 1813.93px 1813.93px 1813.93px 1813.93px 1813.93px ">RIENTATION</tspan></text>
    </g>
    <g transform="matrix(6.12323e-17,-1,1,6.12323e-17,-1240.16,1287.4)">
        <text x="332.726px" y="1933.38px" style="font-family:'Mundial-Black', 'Mundial';font-weight:900;font-size:125px;fill:rgb(239,70,83);">SEXUE<tspan x="733.061px " y="1933.38px ">L</tspan>LE</text>
    </g>
    <path d="M443.981,510.828L443.981,232.382" style="fill:none;fill-rule:nonzero;stroke:rgb(239,70,83);stroke-width:4.17px;"/>
    <path d="M443.981,1055.02L443.981,776.575" style="fill:none;fill-rule:nonzero;stroke:rgb(239,70,83);stroke-width:4.17px;"/>
    <g>
        <clipPath id="_clip1">
            <path d="M446.063,752.714L446.063,534.685L228.034,534.685L228.034,752.714L446.063,752.714Z" clip-rule="nonzero"/>
        </clipPath>
        <g clip-path="url(#_clip1)">
            <path d="M337.049,751.915C396.811,751.915 445.261,703.465 445.261,643.702C445.261,583.94 396.811,535.49 337.049,535.49C277.286,535.49 228.836,583.94 228.836,643.702C228.836,703.465 277.286,751.915 337.049,751.915" style="fill:white;fill-rule:nonzero;"/>
            <circle cx="337.049" cy="643.702" r="108.213" style="fill:none;stroke:rgb(239,70,83);stroke-width:1.6px;stroke-miterlimit:10;"/>
            <path d="M337.049,743.694C392.274,743.694 437.04,698.927 437.04,643.702C437.04,588.477 392.274,543.71 337.049,543.71C281.824,543.71 237.057,588.477 237.057,643.702C237.057,698.927 281.824,743.694 337.049,743.694" style="fill:rgb(239,70,83);fill-rule:nonzero;"/>
            <path d="M359.411,726.666C405.232,714.316 432.365,667.162 420.015,621.341C407.661,575.52 360.507,548.387 314.686,560.737C268.869,573.087 241.736,620.245 254.086,666.062C266.436,711.882 313.59,739.016 359.411,726.666" style="fill:rgb(239,70,83);fill-rule:nonzero;"/>
            <path d="M359.413,726.666C405.202,714.324 432.357,667.128 420.014,621.339C407.672,575.549 360.477,548.394 314.687,560.736C268.898,573.078 241.743,620.274 254.086,666.064C266.428,711.853 313.623,739.008 359.413,726.666Z" style="fill:none;stroke:white;stroke-width:5.88px;stroke-miterlimit:10;stroke-dasharray:2.65,29.11;"/>
            <path d="M337.049,649.246C340.111,649.246 342.594,646.762 342.594,643.7C342.594,640.642 340.111,638.158 337.049,638.158C333.986,638.158 331.503,640.642 331.503,643.7C331.503,646.762 333.986,649.246 337.049,649.246" style="fill:white;fill-rule:nonzero;"/>
            <path d="M328.272,636.93C326.822,638.801 325.963,641.155 325.963,643.701C325.963,646.272 326.834,648.634 328.309,650.517L270.905,643.359L328.272,636.93Z" style="fill:white;fill-rule:nonzero;"/>
            <path d="M345.826,636.93C347.276,638.801 348.134,641.155 348.134,643.701C348.134,646.272 347.264,648.634 345.789,650.517L403.193,643.359L345.826,636.93Z" style="fill:rgb(239,70,83);fill-rule:nonzero;stroke:white;stroke-width:1.6px;stroke-miterlimit:10;"/>
            <g opacity="0.05">
                <path d="M337.049,690.94C363.136,690.94 384.286,669.79 384.286,643.703C384.286,617.611 363.136,596.461 337.049,596.461C310.961,596.461 289.811,617.611 289.811,643.703C289.811,669.79 310.961,690.94 337.049,690.94" style="fill:white;fill-rule:nonzero;"/>
            </g>
            <path d="M244.772,637.395L245.305,637.683C245.126,637.795 244.955,637.92 244.793,638.054L244.772,637.395Z" style="fill:rgb(239,67,64);fill-rule:nonzero;"/>
            <path d="M259.354,655.757C265.374,653.024 267.049,643.732 267.049,643.732C267.049,643.732 258.958,638.874 252.933,641.607C246.912,644.34 243.466,649.724 245.237,653.632C247.012,657.536 253.333,658.49 259.354,655.757" style="fill:white;fill-rule:nonzero;"/>
            <path d="M259.354,631.668C265.374,634.401 267.049,643.693 267.049,643.693C267.049,643.693 258.958,648.551 252.933,645.818C246.912,643.085 243.466,637.701 245.237,633.793C247.012,629.889 253.333,628.935 259.354,631.668" style="fill:white;fill-rule:nonzero;"/>
        </g>
    </g>
</svg>
