<?xml version="1.0" encoding="UTF-8" standalone="no"?>
<!DOCTYPE svg PUBLIC "-//W3C//DTD SVG 1.1//EN" "http://www.w3.org/Graphics/SVG/1.1/DTD/svg11.dtd">
<svg width="100%" height="100%" viewBox="0 0 875 1241" version="1.1" xmlns="http://www.w3.org/2000/svg" xmlns:xlink="http://www.w3.org/1999/xlink" xml:space="preserve" xmlns:serif="http://www.serif.com/" style="fill-rule:evenodd;clip-rule:evenodd;">
    <g transform="matrix(1,0,0,1,-1233.29,0)">
        <g id="Page-2" serif:id="Page 2" transform="matrix(4.16667,0,0,4.16667,1233.29,0)">
            <rect x="0" y="0" width="209.764" height="297.638" style="fill:none;"/>
            <clipPath id="_clip1">
                <rect x="0" y="0" width="209.764" height="297.638"/>
            </clipPath>
            <g clip-path="url(#_clip1)">
                <g>
                    <clipPath id="_clip2">
                        <rect x="-5.669" y="107.884" width="221.103" height="195.423" clip-rule="nonzero"/>
                    </clipPath>
                    <g clip-path="url(#_clip2)">
                        <g opacity="0.6">
                            <g transform="matrix(1,0,0,1,267.602,242.984)">
                                <path d="M0,85.439C-0.153,88.672 -0.174,91.998 -0.145,95.376C-0.145,95.49 -0.145,95.601 -0.14,95.72L-0.14,95.724C-0.132,96.979 -0.115,98.243 -0.098,99.514C-0.089,99.659 -0.089,99.799 -0.085,99.948L-0.085,99.987C-0.085,100.106 -0.081,100.229 -0.081,100.352L-0.081,100.514C-0.076,100.79 -0.072,101.076 -0.068,101.365L-0.068,101.399C-0.055,101.841 -0.051,102.288 -0.047,102.739C-0.026,104.406 -0.004,106.082 0,107.766C0.004,108.247 0.004,108.732 0.004,109.217C0.004,109.749 0,110.268 -0.004,110.795C-0.004,111.033 -0.009,111.263 -0.013,111.497C-0.021,112.492 -0.042,113.488 -0.068,114.479L-0.068,114.483C-0.098,115.598 -0.145,116.703 -0.2,117.814C-0.247,118.584 -0.289,119.366 -0.349,120.136C-0.421,121.165 -0.51,122.195 -0.621,123.22C-0.736,124.373 -0.88,125.53 -1.042,126.678C-1.655,130.898 -2.595,135.058 -4.037,139.095C-5.002,141.8 -6.193,144.446 -7.661,147.019C-8.35,148.236 -9.103,149.435 -9.924,150.614C-10.468,151.4 -11.047,152.179 -11.655,152.953C-11.914,153.276 -12.174,153.6 -12.442,153.919C-12.774,154.327 -13.118,154.736 -13.48,155.135C-13.765,155.454 -14.054,155.773 -14.348,156.084C-15.339,157.143 -16.372,158.143 -17.444,159.087C-18.652,160.163 -19.903,161.171 -21.196,162.107C-21.626,162.409 -22.051,162.711 -22.485,163.009C-22.949,163.324 -23.421,163.634 -23.897,163.94C-24.08,164.051 -24.263,164.166 -24.446,164.281C-24.731,164.455 -25.012,164.625 -25.297,164.795C-25.671,165.025 -26.054,165.242 -26.437,165.454C-26.717,165.616 -26.994,165.769 -27.279,165.922C-27.453,166.025 -27.632,166.114 -27.815,166.208C-28.274,166.458 -28.746,166.697 -29.223,166.935C-30.031,167.339 -30.852,167.726 -31.69,168.096C-34.017,169.143 -36.415,170.065 -38.874,170.886C-46.399,173.401 -54.46,174.962 -62.546,176.14C-65.187,176.527 -67.833,176.872 -70.462,177.19C-79.369,178.279 -88.089,179.113 -95.92,180.457C-96.354,180.53 -96.788,180.602 -97.209,180.679C-100.608,181.291 -103.823,182.01 -106.801,182.899C-107.499,183.103 -108.183,183.324 -108.86,183.55C-109.468,183.762 -110.085,183.984 -110.701,184.226C-111.527,184.532 -112.36,184.881 -113.198,185.251C-113.598,185.421 -113.994,185.6 -114.398,185.787C-115.733,186.408 -117.082,187.084 -118.443,187.803C-119.128,188.161 -119.813,188.535 -120.502,188.926C-120.791,189.084 -121.08,189.249 -121.366,189.411C-128.239,193.329 -135.432,198.267 -143.204,203.121C-149.912,207.315 -157.041,211.454 -164.77,214.827C-177.701,220.489 -192.295,224.002 -209.301,222.075C-212.879,221.667 -216.243,220.88 -219.421,219.817C-223.211,218.549 -226.728,216.873 -230.008,214.959C-236.078,211.416 -241.323,207.038 -245.938,202.844C-250.549,198.654 -254.522,194.652 -258.061,191.857C-258.499,191.504 -258.933,191.172 -259.358,190.866C-259.75,190.581 -260.158,190.322 -260.583,190.083C-261.766,189.42 -263.072,188.926 -264.488,188.552C-265.003,188.416 -265.535,188.293 -266.075,188.186C-267.385,187.927 -268.776,187.744 -270.231,187.616C-271.175,187.535 -272.141,187.472 -273.14,187.42L-273.144,187.42C-274.323,187.357 -275.535,187.314 -276.777,187.271C-279.419,187.187 -282.205,187.114 -285.076,186.918L-285.08,186.918C-286.637,186.817 -288.215,186.68 -289.819,186.481C-289.823,186.485 -289.823,186.485 -289.823,186.481C-290.223,186.434 -290.619,186.383 -291.023,186.327C-291.55,186.259 -292.078,186.178 -292.605,186.093C-293.481,185.949 -294.362,185.787 -295.242,185.6L-295.246,185.6C-295.438,185.562 -295.634,185.519 -295.825,185.472C-300.84,184.362 -305.949,182.495 -310.93,179.254C-311.517,178.875 -312.104,178.475 -312.687,178.046C-313.095,177.76 -313.503,177.45 -313.912,177.131C-314.052,177.02 -314.197,176.914 -314.333,176.803C-314.954,176.31 -315.549,175.816 -316.111,175.315C-316.915,174.604 -317.663,173.881 -318.365,173.149C-319.041,172.452 -319.667,171.741 -320.254,171.018C-322.274,168.543 -323.793,165.978 -324.92,163.358C-327.213,158.041 -327.906,152.489 -327.97,146.96C-327.974,146.862 -327.974,146.76 -327.974,146.658C-327.983,146.249 -327.983,145.841 -327.974,145.428C-327.97,144.374 -327.94,143.318 -327.902,142.272C-327.889,141.877 -327.872,141.481 -327.855,141.09C-327.74,138.631 -327.57,136.189 -327.425,133.803C-327.413,133.463 -327.387,133.127 -327.375,132.791C-327.289,131.242 -327.226,129.724 -327.2,128.227L-327.2,128.222C-327.192,127.504 -327.187,126.789 -327.2,126.083C-327.221,124.67 -327.298,123.28 -327.447,121.931C-327.847,118.231 -328.791,114.789 -330.739,111.739C-342.194,93.768 -352.148,93.126 -359.664,80.041C-359.792,79.82 -359.919,79.59 -360.047,79.36C-361.429,76.847 -362.727,73.878 -363.935,70.27C-363.999,70.079 -364.062,69.888 -364.126,69.692C-365.377,65.863 -365.066,62.32 -363.845,58.837C-363.352,57.446 -362.722,56.063 -361.978,54.677C-361.804,54.341 -361.621,54.013 -361.434,53.681C-359.103,49.559 -355.946,45.361 -353.033,40.703C-352.828,40.38 -352.633,40.061 -352.429,39.733C-350.514,36.586 -348.736,33.225 -347.422,29.533C-344.759,22.076 -343.964,13.284 -347.66,2.216C-352.65,-12.735 -350.744,-30.673 -344.321,-45.616C-344.155,-45.995 -343.989,-46.373 -343.819,-46.748C-343.64,-47.143 -343.462,-47.535 -343.275,-47.922C-343.143,-48.219 -342.998,-48.509 -342.853,-48.802C-342.466,-49.606 -342.062,-50.397 -341.645,-51.18C-341.237,-51.954 -340.803,-52.716 -340.365,-53.464C-338.676,-56.352 -336.801,-59.054 -334.763,-61.517C-334.614,-61.699 -334.47,-61.874 -334.312,-62.052C-332.811,-63.839 -331.22,-65.485 -329.544,-66.982C-329.174,-67.31 -328.808,-67.633 -328.434,-67.94C-324.542,-71.21 -320.258,-73.639 -315.694,-74.971C-310.921,-76.362 -306.625,-77.174 -302.656,-77.638C-285.076,-79.68 -273.783,-74.83 -254.577,-82.976C-249.992,-84.92 -246.168,-87.579 -242.833,-90.663C-228.728,-103.713 -223.445,-124.424 -206.864,-131.128C-188.475,-138.563 -167.56,-127.346 -147.823,-124.802C-144.161,-124.326 -140.537,-124.152 -136.976,-124.45C-128.622,-125.151 -120.71,-127.372 -113.041,-129.601L-109.876,-130.523L-109.872,-130.523C-107.754,-131.14 -105.648,-131.74 -103.564,-132.293C-101.424,-132.855 -99.302,-133.369 -97.188,-133.803C-86.409,-135.994 -75.843,-135.99 -64.868,-129.196C-42.788,-115.525 -53.753,-91.454 -41.252,-74.843C-38.836,-71.636 -36.16,-68.922 -33.311,-66.527C-28.895,-62.81 -24.067,-59.849 -19.133,-56.961C-18.75,-56.74 -18.367,-56.514 -17.98,-56.289C-17.282,-55.881 -16.568,-55.472 -15.866,-55.06C-15.539,-54.864 -15.203,-54.672 -14.875,-54.481C-2.161,-47.046 10.634,-38.789 18.253,-18.176C18.865,-16.534 19.435,-14.811 19.975,-13.008C30.711,22.949 3.637,48.088 0.357,80.573C0.191,82.168 0.081,83.793 0,85.439" style="fill:rgb(72,155,104);fill-rule:nonzero;"/>
                            </g>
                        </g>
                        <g transform="matrix(1,0,0,1,126.775,142.244)">
                            <path d="M0,14.299C2.36,10.322 4.72,6.345 7.08,2.368C7.419,1.797 7.758,1.225 8.097,0.653C8.524,-0.066 7.404,-0.718 6.978,-0.001C4.618,3.976 2.258,7.953 -0.102,11.93C-0.441,12.502 -0.78,13.073 -1.119,13.645C-1.546,14.364 -0.426,15.017 0,14.299" style="fill:white;fill-rule:nonzero;"/>
                        </g>
                        <g transform="matrix(1,0,0,1,141.849,188.448)">
                            <path d="M0,4.166L14.484,1.608C15.159,1.489 15.835,1.37 16.51,1.251C17.33,1.106 16.983,-0.144 16.166,0.001C11.338,0.853 6.51,1.706 1.682,2.558C1.007,2.678 0.331,2.797 -0.345,2.916C-1.165,3.061 -0.817,4.31 0,4.166" style="fill:white;fill-rule:nonzero;"/>
                        </g>
                        <g transform="matrix(1,0,0,1,75.044,140.401)">
                            <path d="M0,15.586C-1.184,13.755 -2.367,11.925 -3.551,10.095C-5.437,7.179 -7.322,4.263 -9.207,1.348C-9.639,0.681 -10.07,0.013 -10.502,-0.653C-10.953,-1.352 -12.076,-0.702 -11.621,0.001C-10.437,1.831 -9.253,3.662 -8.07,5.492C-6.184,8.408 -4.299,11.323 -2.413,14.239C-1.982,14.906 -1.551,15.573 -1.119,16.24C-0.668,16.938 0.455,16.289 0,15.586" style="fill:white;fill-rule:nonzero;"/>
                        </g>
                        <g transform="matrix(1,0,0,1,63.7716,193.072)">
                            <path d="M0,1.261C-2.161,0.973 -4.321,0.684 -6.482,0.396C-9.923,-0.063 -13.365,-0.523 -16.807,-0.982C-17.594,-1.087 -18.382,-1.192 -19.169,-1.297C-19.519,-1.343 -19.814,-0.965 -19.817,-0.649C-19.821,-0.26 -19.515,-0.047 -19.169,-0.001C-17.009,0.287 -14.848,0.576 -12.687,0.864C-9.245,1.323 -5.804,1.783 -2.362,2.242C-1.575,2.347 -0.787,2.452 0,2.557C0.35,2.604 0.645,2.226 0.648,1.909C0.652,1.521 0.346,1.307 0,1.261" style="fill:white;fill-rule:nonzero;"/>
                        </g>
                        <g transform="matrix(1,0,0,1,65.0608,172.566)">
                            <path d="M0,5.018C-3.075,3.229 -6.151,1.439 -9.226,-0.35C-9.666,-0.606 -10.106,-0.862 -10.547,-1.118C-11.269,-1.539 -11.922,-0.419 -11.201,0.001C-8.126,1.79 -5.05,3.58 -1.975,5.369C-1.535,5.625 -1.095,5.881 -0.654,6.137C0.068,6.557 0.721,5.438 0,5.018" style="fill:white;fill-rule:nonzero;"/>
                        </g>
                        <g transform="matrix(1,0,0,1,111.19,125.885)">
                            <path d="M0,20.713C0.429,18.415 0.857,16.116 1.285,13.817C1.965,10.171 2.644,6.525 3.324,2.879C3.481,2.034 3.638,1.19 3.796,0.345C3.948,-0.47 2.699,-0.82 2.546,0.001C2.118,2.299 1.689,4.598 1.261,6.896C0.581,10.542 -0.098,14.188 -0.778,17.834C-0.935,18.679 -1.092,19.524 -1.25,20.368C-1.402,21.184 -0.153,21.533 0,20.713" style="fill:white;fill-rule:nonzero;"/>
                        </g>
                        <g transform="matrix(1,0,0,1,136.028,158.858)">
                            <path d="M0,14.424C1.928,12.905 3.856,11.386 5.784,9.867C8.861,7.443 11.938,5.019 15.014,2.596C15.725,2.036 16.435,1.477 17.145,0.917C17.8,0.401 16.877,-0.511 16.229,0C14.301,1.519 12.372,3.038 10.444,4.557C7.368,6.981 4.291,9.405 1.215,11.828C0.504,12.388 -0.206,12.948 -0.917,13.507C-1.571,14.023 -0.648,14.935 0,14.424" style="fill:white;fill-rule:nonzero;"/>
                        </g>
                        <g transform="matrix(1,0,0,1,93.8933,133.548)">
                            <path d="M0,13.053C-0.567,9.151 -1.135,5.249 -1.702,1.347C-1.784,0.783 -1.866,0.219 -1.948,-0.344C-2.068,-1.167 -3.317,-0.817 -3.198,-0C-2.631,3.903 -2.063,7.805 -1.496,11.707C-1.414,12.271 -1.332,12.834 -1.25,13.398C-1.13,14.22 0.119,13.87 0,13.053" style="fill:white;fill-rule:nonzero;"/>
                        </g>
                        <g transform="matrix(1,0,0,1,207.425,152.626)">
                            <path d="M0,135.501C-1.361,137.998 -34.673,137.48 -51.2,137.48L-95.431,87.382C-95.431,87.382 -97.306,86.103 -99.825,84.193C-103.895,81.117 -109.658,76.403 -111.957,72.799C-118.127,63.143 -120.464,45.86 -121.108,43.38C-121.752,40.9 -123.053,30.604 -122.923,22.809C-122.888,20.615 -122.849,18.735 -122.759,17.206C-122.586,14.35 -122.223,12.729 -121.35,12.652C-119.384,12.483 -118.071,17.707 -117.163,23.462C-116.075,30.414 -115.578,38.135 -115.249,38.083C-114.589,37.979 -115.262,26.435 -115.716,18.999C-115.807,17.517 -115.88,16 -115.919,14.518C-116.088,8.547 -115.69,3.112 -113.405,2.705C-110.056,2.105 -110.298,8.668 -109.209,16.246C-108.807,19.042 -108.531,22.49 -108.31,25.726C-107.934,31.269 -107.71,36.186 -107.256,36.117C-106.634,36.013 -106.794,27.35 -106.556,16.268C-106.517,14.618 -106.474,12.915 -106.418,11.178C-105.995,-1.792 -105.083,-2.497 -102.555,-2.419C-101.147,-2.376 -100.416,0.411 -99.997,5.06C-99.807,7.164 -99.678,9.645 -99.582,12.431C-99.57,12.799 -99.557,13.174 -99.544,13.55C-99.345,19.081 -99.077,25.432 -98.818,29.869C-98.624,33.188 -98.442,35.439 -98.299,35.469C-97.638,35.629 -97.37,34.842 -96.865,27.99C-96.714,25.929 -96.61,22.637 -96.446,19.038C-96.066,10.677 -95.34,0.675 -92.868,0.709C-88.41,0.77 -88.924,23.293 -88.893,25.013C-88.863,26.733 -88.708,44.296 -87.329,44.443C-85.951,44.594 -84.797,41.872 -82.715,37.971C-80.632,34.069 -77.05,28.729 -73.581,31.217C-71.922,32.41 -77.012,42.27 -77.413,48.98C-77.819,55.69 -81.799,62.011 -75.988,70.207C-69.671,79.116 1.897,132.027 0,135.501" style="fill:rgb(237,150,89);fill-rule:nonzero;"/>
                        </g>
                        <g transform="matrix(1,0,0,1,218.053,251.359)">
                            <path d="M0,42.034C-0.388,42.595 -0.801,43.15 -1.234,43.702C-1.419,43.933 -1.604,44.163 -1.795,44.39C-2.032,44.682 -2.278,44.973 -2.535,45.258C-2.739,45.485 -2.945,45.713 -3.154,45.934C-3.861,46.689 -4.598,47.402 -5.362,48.075C-6.223,48.843 -7.115,49.561 -8.037,50.229C-8.343,50.444 -8.646,50.659 -8.956,50.871C-9.286,51.096 -9.623,51.317 -9.963,51.536C-10.093,51.614 -10.223,51.696 -10.354,51.778C-10.557,51.903 -10.757,52.024 -10.96,52.145C-11.227,52.309 -11.5,52.464 -11.773,52.615C-11.973,52.731 -12.17,52.84 -12.374,52.949C-12.498,53.022 -12.625,53.085 -12.756,53.152C-13.083,53.331 -13.42,53.501 -13.76,53.671C-14.336,53.959 -14.921,54.235 -15.519,54.499C-17.177,55.245 -18.888,55.903 -20.641,56.488C-26.006,58.28 -31.753,59.393 -37.518,60.234C-39.401,60.51 -41.288,60.755 -43.162,60.983L-88.741,12.431L-95.544,5.289L-93.36,3.033L-74.06,-16.923L-72.101,-18.949L0,42.034Z" style="fill:rgb(255,196,77);fill-rule:nonzero;"/>
                        </g>
                        <g transform="matrix(0.71534,0.698777,0.698777,-0.71534,113.051,236.072)">
                            <path d="M9.844,-5.56L14.01,-5.56C14.01,-5.56 14.474,23.169 13.848,23.921C13.635,24.179 8.794,23.494 8.794,23.494L9.844,-5.56Z" style="fill:rgb(175,141,126);fill-rule:nonzero;"/>
                        </g>
                        <g transform="matrix(-0.674066,-0.738671,-0.738671,0.674066,119.518,245.506)">
                            <path d="M-0.475,-1.075C-0.12,-1.075 0.167,-0.788 0.168,-0.433C0.168,-0.078 -0.119,0.209 -0.475,0.21C-0.83,0.21 -1.116,-0.077 -1.117,-0.432C-1.117,-0.787 -0.83,-1.074 -0.475,-1.075" style="fill:rgb(255,203,110);fill-rule:nonzero;"/>
                        </g>
                        <g transform="matrix(-0.673544,-0.739147,-0.739147,0.673544,123.36,241.027)">
                            <path d="M-0.907,-2.054C-0.23,-2.054 0.32,-1.504 0.32,-0.826C0.32,-0.149 -0.23,0.4 -0.907,0.401C-1.585,0.4 -2.134,-0.149 -2.135,-0.827C-2.134,-1.505 -1.584,-2.053 -0.907,-2.054" style="fill:rgb(255,203,110);fill-rule:nonzero;"/>
                        </g>
                        <g transform="matrix(-0.673799,-0.738914,-0.738914,0.673799,128.065,236.782)">
                            <path d="M-0.522,-1.182C-0.132,-1.182 0.185,-0.866 0.184,-0.476C0.184,-0.086 -0.132,0.231 -0.522,0.23C-0.911,0.231 -1.228,-0.085 -1.228,-0.476C-1.228,-0.866 -0.912,-1.183 -0.522,-1.182" style="fill:rgb(255,203,110);fill-rule:nonzero;"/>
                        </g>
                        <g transform="matrix(-0.67373,-0.738978,-0.738978,0.67373,131.55,232.372)">
                            <path d="M-0.991,-2.245C-0.251,-2.244 0.35,-1.645 0.351,-0.903C0.35,-0.162 -0.251,0.438 -0.991,0.438C-1.731,0.437 -2.332,-0.162 -2.332,-0.903C-2.333,-1.644 -1.731,-2.245 -0.991,-2.245" style="fill:rgb(255,203,110);fill-rule:nonzero;"/>
                        </g>
                        <g transform="matrix(-0.673562,-0.73913,-0.73913,0.673562,135.999,228.228)">
                            <path d="M-0.558,-1.263C-0.141,-1.263 0.197,-0.925 0.197,-0.508C0.197,-0.091 -0.141,0.247 -0.558,0.246C-0.976,0.247 -1.312,-0.092 -1.314,-0.509C-1.313,-0.925 -0.975,-1.264 -0.558,-1.263" style="fill:rgb(255,203,110);fill-rule:nonzero;"/>
                        </g>
                        <g opacity="0.26">
                            <g transform="matrix(1,0,0,1,130.184,196.94)">
                                <path d="M0,-0.445C-0.302,0.497 -1.806,4.234 -2.398,4.628C-4.545,8.978 -7.471,14.483 -8.279,18.117C-9.739,24.675 -12.5,31.212 -16.604,35.434C-18.099,36.972 -20.277,38.463 -22.584,39.88C-26.654,36.804 -32.418,32.09 -34.717,28.486C-40.887,18.83 -43.224,1.547 -43.868,-0.933C-44.511,-3.413 -45.812,-13.709 -45.682,-21.504C-45.648,-23.699 -45.609,-25.578 -45.518,-27.108C-45.514,-27.117 -45.509,-27.125 -45.505,-27.134C-45.332,-27.579 -45.065,-27.829 -44.74,-27.911C-44.736,-27.911 -44.736,-27.916 -44.732,-27.916C-44.628,-27.942 -44.52,-27.959 -44.403,-27.95C-43.95,-27.924 -43.561,-27.652 -43.371,-27.082C-40.722,-22.575 -43.034,-1.862 -42.485,-1.862C-41.815,-1.862 -40.662,-13.368 -39.932,-20.782C-39.927,-20.804 -39.927,-20.83 -39.923,-20.851C-39.62,-23.906 -39.236,-27.095 -38.678,-29.795C-38.1,-32.621 -37.339,-34.911 -36.298,-35.931C-35.887,-36.471 -35.347,-36.674 -34.764,-36.604C-34.09,-36.523 -33.52,-36.108 -33.252,-35.291C-32.267,-33.083 -32.98,-28.11 -33.07,-22.472C-33.191,-14.815 -35.015,-2.545 -34.284,-2.545C-33.718,-2.545 -32.695,-9.376 -31.07,-18.588C-30.603,-21.24 -30.085,-24.092 -29.514,-27.034C-29.445,-27.38 -29.38,-27.717 -29.316,-28.045C-27.808,-35.667 -26.849,-38.562 -25.703,-39.53C-25.289,-40.109 -24.736,-40.325 -24.131,-40.251C-23.552,-40.182 -23.046,-39.862 -22.757,-39.253C-22.567,-37.149 -22.437,-34.669 -22.342,-31.882C-22.329,-31.515 -22.316,-31.139 -22.303,-30.763C-22.459,-28.961 -22.683,-26.935 -22.96,-24.719C-24.178,-14.971 -25.665,-1.901 -25.337,-1.763C-24.71,-1.503 -24.321,-2.238 -22.74,-8.922C-22.416,-10.292 -22.022,-12.232 -21.577,-14.444C-20.899,-17.771 -20.1,-21.72 -19.205,-25.276C-18.397,-28.503 -17.516,-31.407 -16.592,-33.239C-16.177,-34.781 -15.131,-35.36 -14.47,-35.304C-13.735,-35.239 -12.91,-34.436 -12.841,-32.91C-11.45,-27.03 -14.198,-11.994 -14.396,-10.603C-14.638,-8.901 -18.488,12.163 -17.149,12.526C-15.814,12.888 -13.018,6.693 -10.344,3.167C-7.673,-0.354 -2.99,-3.452 -0.259,-2.057C-0.182,-2.018 -0.13,-1.949 -0.091,-1.871C0.238,-1.737 0.259,-1.266 0,-0.445" style="fill:rgb(124,75,49);fill-rule:nonzero;"/>
                            </g>
                        </g>
                        <g transform="matrix(1,0,0,1,129.196,257.069)">
                            <path d="M0,-62.226C-2.731,-63.622 -7.413,-60.525 -10.086,-57.001C-12.759,-53.477 -15.554,-47.279 -16.891,-47.644C-18.228,-48.008 -14.38,-69.072 -14.137,-70.773C-13.894,-72.474 -9.827,-94.635 -14.218,-95.401C-17.701,-96.008 -20.901,-75.775 -22.481,-69.092C-24.061,-62.408 -24.452,-61.672 -25.076,-61.934C-25.406,-62.072 -23.917,-75.14 -22.702,-84.886C-21.596,-93.756 -21.284,-99.632 -23.291,-100.018C-25.774,-100.496 -26.786,-99.945 -29.255,-87.205C-31.807,-74.04 -33.296,-62.711 -34.025,-62.712C-34.754,-62.713 -32.931,-74.985 -32.81,-82.641C-32.689,-90.297 -31.413,-96.737 -34.815,-96.677C-37.71,-96.625 -38.942,-88.365 -39.672,-80.952C-40.401,-73.539 -41.557,-62.033 -42.226,-62.033C-42.835,-62.033 -39.889,-87.792 -44.233,-88.109C-45.576,-88.208 -46.298,-84.513 -47.392,-78.327C-48.75,-70.65 -49.094,-60.282 -48.85,-57.73C-48.607,-55.178 -52.861,-33.183 -52.01,-29.416C-51.35,-26.494 -63.193,-16.041 -68.539,-11.499C-70.084,-10.186 -71.088,-9.365 -71.088,-9.365L-72.264,-8.256C-85.861,4.49 -120.182,38.27 -120.182,38.27L-73.276,36.812L-52.565,10.271C-48.323,5.226 -34.792,-10.882 -33.053,-13.132C-30.634,-16.263 -20.658,-20.302 -16.344,-24.738C-12.24,-28.958 -9.479,-35.492 -8.02,-42.054C-6.562,-48.616 1.823,-61.294 0,-62.226" style="fill:rgb(240,174,126);fill-rule:nonzero;"/>
                        </g>
                        <g transform="matrix(0.0551757,-0.998477,-0.998477,-0.0551757,84.8576,169.835)">
                            <path d="M-0.963,-1.402C-2.278,-1.402 -3.344,-0.854 -3.343,-0.178C-3.343,0.497 -2.278,1.046 -0.963,1.045C0.351,1.046 0.896,0.532 0.897,-0.144C0.896,-0.82 0.352,-1.401 -0.963,-1.402" style="fill:rgb(239,194,163);fill-rule:nonzero;"/>
                        </g>
                        <g transform="matrix(0.11943,-0.992843,-0.992843,-0.11943,94.4505,161.701)">
                            <path d="M-1.521,-2.065C-3.604,-2.065 -5.293,-1.197 -5.292,-0.126C-5.292,0.944 -3.604,1.812 -1.521,1.812C0.562,1.812 1.425,0.998 1.425,-0.073C1.425,-1.143 0.562,-2.065 -1.521,-2.065" style="fill:rgb(239,194,163);fill-rule:nonzero;"/>
                        </g>
                        <g transform="matrix(0.11943,-0.992843,-0.992843,-0.11943,105.083,158.055)">
                            <path d="M-1.521,-2.065C-3.604,-2.065 -5.293,-1.197 -5.292,-0.126C-5.292,0.944 -3.604,1.812 -1.521,1.812C0.562,1.812 1.425,0.998 1.425,-0.073C1.425,-1.143 0.562,-2.065 -1.521,-2.065" style="fill:rgb(239,194,163);fill-rule:nonzero;"/>
                        </g>
                        <g transform="matrix(0.11943,-0.992843,-0.992843,-0.11943,114.713,163.063)">
                            <path d="M-1.52,-2.065C-3.603,-2.065 -5.292,-1.198 -5.292,-0.127C-5.292,0.944 -3.603,1.812 -1.52,1.811C0.563,1.811 1.465,0.66 1.49,-0.093C1.518,-0.958 0.563,-2.066 -1.52,-2.065" style="fill:rgb(239,194,163);fill-rule:nonzero;"/>
                        </g>
                        <g transform="matrix(-0.950304,-0.311324,-0.311324,0.950304,125.992,201.185)">
                            <path d="M-1.017,-6.861C-1.557,-7.065 -1.808,-6.639 -1.816,-5.575C-1.823,-4.512 -1.518,0.05 -1.017,0.058C-0.516,0.065 0.088,-1.257 0.11,-2.259C0.132,-3.221 -0.351,-6.61 -1.017,-6.861" style="fill:rgb(239,194,163);fill-rule:nonzero;"/>
                        </g>
                        <g transform="matrix(1,0,0,1,86.6832,291.449)">
                            <path d="M0,-27.149C-0.343,-26.624 -0.701,-26.097 -1.071,-25.56C-2.399,-23.616 -3.873,-21.581 -5.356,-19.634C-5.747,-19.124 -6.138,-18.621 -6.523,-18.124C-7.621,-16.728 -8.704,-15.406 -9.72,-14.239C-10.111,-13.787 -10.527,-13.304 -10.963,-12.798C-11.358,-12.34 -11.77,-11.858 -12.201,-11.354C-13.678,-9.629 -15.343,-7.667 -17.159,-5.519C-17.557,-5.043 -17.966,-4.561 -18.385,-4.067C-19.974,-2.183 -21.669,-0.17 -23.449,1.941C-23.853,2.42 -24.262,2.906 -24.674,3.394C-26.124,5.113 -27.619,6.891 -29.157,8.71C-29.563,9.192 -29.973,9.678 -30.382,10.163C-31.92,11.986 -33.494,13.842 -35.086,15.725C-35.495,16.207 -35.905,16.692 -36.32,17.181C-37.785,18.909 -39.274,20.653 -40.769,22.409C-41.179,22.891 -41.588,23.371 -42.001,23.856C-43.669,25.806 -45.346,27.762 -47.02,29.709C-47.129,29.833 -47.238,29.961 -47.344,30.085C-48.187,29.612 -49.118,29.26 -50.128,28.993C-50.495,28.896 -50.874,28.808 -51.26,28.732C-52.194,28.547 -53.185,28.417 -54.223,28.326C-54.896,28.268 -55.584,28.223 -56.297,28.187L-56.3,28.187C-57.14,28.141 -58.004,28.111 -58.89,28.08C-60.773,28.02 -62.76,27.968 -64.807,27.829L-64.81,27.829C-65.92,27.756 -67.045,27.659 -68.188,27.516C-68.191,27.519 -68.191,27.519 -68.191,27.516C-68.476,27.483 -68.759,27.447 -69.047,27.407C-69.423,27.359 -69.799,27.301 -70.175,27.24C-70.8,27.137 -71.427,27.022 -72.055,26.889L-72.058,26.889C-72.195,26.861 -72.334,26.831 -72.471,26.798C-76.046,26.006 -79.689,24.675 -83.24,22.364C-83.658,22.094 -84.077,21.809 -84.492,21.502C-84.784,21.299 -85.075,21.078 -85.366,20.85C-85.466,20.772 -85.569,20.696 -85.666,20.617C-86.109,20.265 -86.533,19.913 -86.934,19.555C-87.507,19.049 -88.041,18.533 -88.541,18.012C-89.023,17.514 -89.469,17.008 -89.888,16.492C-91.328,14.727 -92.411,12.898 -93.215,11.03C-92.308,10.157 -91.374,9.262 -90.415,8.343C-89.957,7.907 -89.499,7.464 -89.035,7.018C-87.101,5.162 -85.084,3.227 -83.019,1.247C-82.561,0.807 -82.106,0.367 -81.642,-0.073C-79.864,-1.777 -78.06,-3.509 -76.24,-5.249C-75.779,-5.689 -75.321,-6.132 -74.86,-6.572C-73.129,-8.228 -71.391,-9.893 -69.668,-11.545C-69.204,-11.985 -68.743,-12.425 -68.285,-12.868C-66.493,-14.578 -64.722,-16.277 -62.984,-17.935C-62.517,-18.381 -62.056,-18.821 -61.601,-19.261C-59.882,-20.898 -58.205,-22.5 -56.591,-24.04C-56.124,-24.486 -55.663,-24.926 -55.211,-25.36C-53.043,-27.428 -51.002,-29.372 -49.131,-31.152C-48.657,-31.601 -48.196,-32.041 -47.745,-32.468C-45.664,-34.449 -43.832,-36.184 -42.337,-37.594C-41.834,-38.067 -41.367,-38.507 -40.945,-38.904C-39.614,-40.156 -38.68,-41.018 -38.237,-41.412C-38.237,-41.412 -37.209,-42.364 -35.623,-43.796C-35.186,-44.187 -34.713,-44.621 -34.2,-45.079C-32.584,-46.531 -30.637,-48.257 -28.681,-49.94C-28.195,-50.365 -27.704,-50.783 -27.222,-51.193C-23.416,-54.432 -19.871,-57.228 -18.976,-57.231C-18.551,-57.234 -17.39,-56.442 -15.798,-55.156C-10.997,-51.287 -2.29,-42.922 1.865,-38.322C3.239,-36.799 4.112,-35.686 4.182,-35.286C4.358,-34.285 2.566,-31.028 0,-27.149" style="fill:rgb(57,121,168);fill-rule:nonzero;"/>
                        </g>
                        <g opacity="0.42">
                            <g transform="matrix(1,0,0,1,85.6132,240.258)">
                                <path d="M0,25.633C-4.378,21.989 -8.704,18.284 -12.983,14.522C-17.928,10.174 -22.806,5.749 -27.61,1.25C-27.126,0.828 -26.636,0.408 -26.152,0C-24.439,1.602 -22.716,3.197 -20.986,4.781C-13.976,11.195 -6.824,17.45 0.465,23.54L1.069,24.043C0.728,24.565 0.371,25.095 0,25.633" style="fill:rgb(0,76,127);fill-rule:nonzero;"/>
                            </g>
                        </g>
                        <g opacity="0.42">
                            <g transform="matrix(1,0,0,1,80.1591,246.372)">
                                <path d="M0,26.952C-4.728,23.029 -9.403,19.037 -14.02,14.978C-19.121,10.494 -24.146,5.928 -29.1,1.281C-28.663,0.889 -28.188,0.458 -27.677,0C-25.804,1.756 -23.916,3.501 -22.02,5.235C-15.011,11.649 -7.858,17.904 -0.572,23.996C0.007,24.479 0.587,24.962 1.169,25.443C0.778,25.952 0.387,26.456 0,26.952" style="fill:rgb(0,76,127);fill-rule:nonzero;"/>
                            </g>
                        </g>
                        <g opacity="0.42">
                            <g transform="matrix(1,0,0,1,74.4825,252.546)">
                                <path d="M0,27.549C-5.971,22.676 -11.852,17.69 -17.637,12.602C-21.853,8.894 -26.022,5.129 -30.137,1.31C-29.633,0.836 -29.167,0.396 -28.744,0C-27.711,0.957 -26.679,1.91 -25.639,2.861C-18.628,9.273 -11.475,15.528 -4.189,21.62C-2.39,23.125 -0.581,24.62 1.239,26.105C0.843,26.564 0.429,27.046 0,27.549" style="fill:rgb(0,76,127);fill-rule:nonzero;"/>
                            </g>
                        </g>
                        <g opacity="0.42">
                            <g transform="matrix(1,0,0,1,68.3001,258.981)">
                                <path d="M0,28.401C-5.113,24.183 -10.159,19.883 -15.138,15.506C-20.418,10.863 -25.624,6.132 -30.748,1.316C-30.273,0.868 -29.812,0.428 -29.362,0C-27.301,1.933 -25.226,3.857 -23.141,5.765C-16.131,12.179 -8.979,18.434 -1.692,24.527C-0.724,25.336 0.25,26.145 1.225,26.948C0.825,27.425 0.416,27.908 0,28.401" style="fill:rgb(0,76,127);fill-rule:nonzero;"/>
                            </g>
                        </g>
                        <g opacity="0.42">
                            <g transform="matrix(1,0,0,1,62.0084,266.089)">
                                <path d="M0,28.754C-7.342,22.853 -14.556,16.788 -21.631,10.568C-25.093,7.524 -28.522,4.442 -31.917,1.321C-31.449,0.874 -30.987,0.435 -30.535,0C-30.236,0.277 -29.935,0.552 -29.634,0.827C-22.623,7.239 -15.47,13.494 -8.181,19.589C-5.071,22.191 -1.934,24.762 1.225,27.301C0.823,27.781 0.412,28.265 0,28.754" style="fill:rgb(0,76,127);fill-rule:nonzero;"/>
                            </g>
                        </g>
                        <g opacity="0.42">
                            <g transform="matrix(1,0,0,1,56.3003,272.189)">
                                <path d="M0,29.424C-7.242,23.595 -14.357,17.61 -21.337,11.47C-25.132,8.133 -28.889,4.749 -32.601,1.324C-32.135,0.88 -31.674,0.44 -31.217,0C-30.594,0.58 -29.967,1.155 -29.34,1.73C-22.33,8.144 -15.178,14.399 -7.892,20.491C-4.876,23.013 -1.837,25.505 1.225,27.971C0.821,28.453 0.409,28.937 0,29.424" style="fill:rgb(0,76,127);fill-rule:nonzero;"/>
                            </g>
                        </g>
                        <g opacity="0.42">
                            <g transform="matrix(1,0,0,1,50.364,278.581)">
                                <path d="M0,30.048C-0.025,30.028 -0.052,30.006 -0.077,29.986C-7.482,24.036 -14.757,17.923 -21.892,11.65C-25.754,8.255 -29.574,4.812 -33.35,1.324C-32.887,0.882 -32.425,0.443 -31.966,0C-31.278,0.64 -30.587,1.274 -29.894,1.909C-22.883,8.32 -15.73,14.576 -8.444,20.668C-5.245,23.344 -2.02,25.984 1.232,28.592C0.825,29.077 0.414,29.561 0,30.048" style="fill:rgb(0,76,127);fill-rule:nonzero;"/>
                            </g>
                        </g>
                        <g opacity="0.42">
                            <g transform="matrix(1,0,0,1,44.6823,284.877)">
                                <path d="M0,30.427C-1.233,29.45 -2.464,28.471 -3.691,27.484C-11.098,21.536 -18.372,15.421 -25.504,9.15C-28.44,6.567 -31.352,3.959 -34.24,1.321C-33.778,0.882 -33.32,0.44 -32.858,0C-26.06,6.206 -19.12,12.264 -12.058,18.171C-7.676,21.833 -3.244,25.436 1.232,28.98C0.823,29.463 0.412,29.943 0,30.427" style="fill:rgb(0,76,127);fill-rule:nonzero;"/>
                            </g>
                        </g>
                        <g opacity="0.42">
                            <g transform="matrix(1,0,0,1,39.6635,291.752)">
                                <path d="M0,29.406C-0.109,29.53 -0.218,29.658 -0.325,29.782C-1.168,29.309 -2.099,28.957 -3.109,28.69C-3.476,28.593 -3.855,28.505 -4.24,28.429C-10.994,22.961 -17.642,17.357 -24.171,11.616C-28.159,8.11 -32.102,4.553 -35.999,0.944C-35.541,0.504 -35.086,0.064 -34.622,-0.376C-33.809,0.377 -32.99,1.126 -32.171,1.878C-31.607,2.393 -31.043,2.909 -30.476,3.418C-30.418,3.476 -30.361,3.528 -30.303,3.576C-23.892,9.396 -17.362,15.082 -10.724,20.635C-7.182,23.598 -3.606,26.519 0,29.406" style="fill:rgb(0,76,127);fill-rule:nonzero;"/>
                            </g>
                        </g>
                    </g>
                </g>
                <text x="113.231px" y="49.816px" style="font-family:'Mundial-Regular', 'Mundial';font-size:16px;fill:rgb(72,159,113);">Mer<tspan x="141.688px " y="49.816px ">c</tspan>i</text>
                <text x="113.231px" y="68.556px" style="font-family:'Mundial-Bold', 'Mundial';font-weight:700;font-size:16px;fill:rgb(72,159,113);">beaucoup !</text>
                <text x="50.195px" y="49.816px" style="font-family:'Mundial-Regular', 'Mundial';font-size:16px;fill:rgb(72,159,113);">Je t<tspan x="76.712px " y="49.816px ">e</tspan></text>
                <text x="14.5px" y="68.816px" style="font-family:'Mundial-Bold', 'Mundial';font-weight:700;font-size:16px;fill:rgb(72,159,113);">sou<tspan x="40.5px " y="68.816px ">t</tspan>iens !</text>
                <g transform="matrix(0,1,1,0,128.696,54.117)">
                    <path d="M-29.343,-29.343L29.343,-29.343" style="fill:none;fill-rule:nonzero;stroke:rgb(72,159,113);stroke-width:1px;"/>
                </g>
                <g transform="matrix(1,0,0,1,-6,297.638)">
                    <path d="M0,-297.638L-15,-297.638M221.764,-297.638L236.764,-297.638M0,0L-15,0M221.764,0L236.764,0M6,-303.638L6,-318.638M6,6L6,21M215.764,-303.638L215.764,-318.638M215.764,6L215.764,21" style="fill:none;fill-rule:nonzero;stroke:white;stroke-width:1.25px;stroke-miterlimit:10;"/>
                </g>
                <g>
                    <clipPath id="_clip3">
                        <rect x="-26.669" y="-26.669" width="263.102" height="350.976" clip-rule="nonzero"/>
                    </clipPath>
                    <g clip-path="url(#_clip3)">
                        <g transform="matrix(1,0,0,1,-6,297.638)">
                            <path d="M0,-297.638L-15,-297.638M221.764,-297.638L236.764,-297.638M0,0L-15,0M221.764,0L236.764,0M6,-303.638L6,-318.638M6,6L6,21M215.764,-303.638L215.764,-318.638M215.764,6L215.764,21" style="fill:none;fill-rule:nonzero;stroke:black;stroke-width:0.25px;stroke-miterlimit:10;"/>
                        </g>
                        <g transform="matrix(1,0,0,1,-8.6693,303.307)">
                            <path d="M0,-308.976L-18,-308.976M227.102,-308.976L245.102,-308.976M0,0L-18,0M227.102,0L245.102,0M3,-311.976L3,-329.976M3,3L3,21M224.102,-311.976L224.102,-329.976M224.102,3L224.102,21" style="fill:none;fill-rule:nonzero;stroke:white;stroke-width:1.25px;stroke-miterlimit:10;"/>
                        </g>
                        <g transform="matrix(1,0,0,1,-8.6693,303.307)">
                            <path d="M0,-308.976L-18,-308.976M227.102,-308.976L245.102,-308.976M0,0L-18,0M227.102,0L245.102,0M3,-311.976L3,-329.976M3,3L3,21M224.102,-311.976L224.102,-329.976M224.102,3L224.102,21" style="fill:none;fill-rule:nonzero;stroke:black;stroke-width:0.25px;stroke-miterlimit:10;"/>
                        </g>
                    </g>
                </g>
            </g>
        </g>
    </g>
</svg>
