<?xml version="1.0" encoding="UTF-8" standalone="no"?>
<!DOCTYPE svg PUBLIC "-//W3C//DTD SVG 1.1//EN" "http://www.w3.org/Graphics/SVG/1.1/DTD/svg11.dtd">
<svg width="100%" height="100%" viewBox="0 0 280 280" version="1.1" xmlns="http://www.w3.org/2000/svg" xmlns:xlink="http://www.w3.org/1999/xlink" xml:space="preserve" xmlns:serif="http://www.serif.com/" style="fill-rule:evenodd;clip-rule:evenodd;stroke-linejoin:round;stroke-miterlimit:2;">
    <g transform="matrix(1,0,0,1,-6682.67,-4195.67)">
        <g transform="matrix(1,0,0,1,268.533,141.927)">
            <g transform="matrix(6.12323e-17,-1,1,6.12323e-17,4523.26,5600.36)">
                <g transform="matrix(2.55135e-16,4.16667,-4.16667,2.55135e-16,3322.53,1530.16)">
                    <g transform="matrix(45,0,0,45,107.032,475.885)">
                        <path d="M0.394,-0L0.256,-0L0.256,-0.517C0.206,-0.47 0.147,-0.436 0.079,-0.413L0.079,-0.538C0.115,-0.549 0.154,-0.572 0.196,-0.604C0.238,-0.637 0.267,-0.675 0.282,-0.719L0.394,-0.719L0.394,-0Z" style="fill:rgb(245,178,22);fill-rule:nonzero;"/>
                    </g>
                </g>
                <g transform="matrix(2.55135e-16,4.16667,-4.16667,2.55135e-16,1546.62,2030.44)">
                    <path d="M0,66.992C18.499,66.992 33.496,51.995 33.496,33.496C33.496,14.997 18.499,0 0,0C-18.499,0 -33.496,14.997 -33.496,33.496C-33.496,51.995 -18.499,66.992 0,66.992Z" style="fill:none;fill-rule:nonzero;"/>
                </g>
            </g>
        </g>
    </g>
</svg>
