<?xml version="1.0" encoding="UTF-8" standalone="no"?>
<!DOCTYPE svg PUBLIC "-//W3C//DTD SVG 1.1//EN" "http://www.w3.org/Graphics/SVG/1.1/DTD/svg11.dtd">
<svg width="100%" height="100%" viewBox="0 0 280 280" version="1.1" xmlns="http://www.w3.org/2000/svg" xmlns:xlink="http://www.w3.org/1999/xlink" xml:space="preserve" xmlns:serif="http://www.serif.com/" style="fill-rule:evenodd;clip-rule:evenodd;stroke-linejoin:round;stroke-miterlimit:2;">
    <g transform="matrix(1,0,0,1,-6682.67,-3265.05)">
        <g transform="matrix(1,0,0,1,268.533,141.927)">
            <g transform="matrix(6.12323e-17,-1,1,6.12323e-17,4523.26,4669.75)">
                <g transform="matrix(-1.88954e-16,4.16667,-4.16667,-1.88954e-16,3322.53,1530.16)">
                    <g transform="matrix(45,0,0,45,107.032,475.885)">
                        <path d="M0.044,-0.184L0.181,-0.198C0.185,-0.167 0.197,-0.143 0.216,-0.125C0.235,-0.107 0.257,-0.098 0.282,-0.098C0.311,-0.098 0.335,-0.109 0.355,-0.133C0.375,-0.156 0.385,-0.191 0.385,-0.238C0.385,-0.282 0.375,-0.315 0.355,-0.337C0.336,-0.359 0.31,-0.37 0.278,-0.37C0.239,-0.37 0.204,-0.352 0.172,-0.317L0.061,-0.333L0.131,-0.706L0.494,-0.706L0.494,-0.578L0.235,-0.578L0.214,-0.456C0.244,-0.471 0.276,-0.479 0.308,-0.479C0.368,-0.479 0.42,-0.457 0.462,-0.413C0.505,-0.368 0.526,-0.311 0.526,-0.24C0.526,-0.181 0.509,-0.129 0.475,-0.083C0.428,-0.019 0.363,0.012 0.281,0.012C0.215,0.012 0.161,-0.006 0.119,-0.041C0.077,-0.076 0.053,-0.124 0.044,-0.184Z" style="fill:rgb(64,130,156);fill-rule:nonzero;"/>
                    </g>
                </g>
                <g transform="matrix(-1.88954e-16,4.16667,-4.16667,-1.88954e-16,1546.62,2030.44)">
                    <path d="M0,66.992C18.499,66.992 33.496,51.995 33.496,33.496C33.496,14.997 18.499,0 0,0C-18.499,0 -33.496,14.997 -33.496,33.496C-33.496,51.995 -18.499,66.992 0,66.992Z" style="fill:none;fill-rule:nonzero;"/>
                </g>
            </g>
        </g>
    </g>
</svg>
