<?xml version="1.0" encoding="UTF-8" standalone="no"?>
<!DOCTYPE svg PUBLIC "-//W3C//DTD SVG 1.1//EN" "http://www.w3.org/Graphics/SVG/1.1/DTD/svg11.dtd">
<svg width="100%" height="100%" viewBox="0 0 312 312" version="1.1" xmlns="http://www.w3.org/2000/svg" xmlns:xlink="http://www.w3.org/1999/xlink" xml:space="preserve" xmlns:serif="http://www.serif.com/" style="fill-rule:evenodd;clip-rule:evenodd;stroke-linejoin:round;stroke-miterlimit:2;">
    <g transform="matrix(1,0,0,1,-2996.01,-3832.6)">
        <g transform="matrix(1,0,0,1,-175.054,3330.91)">
            <g transform="matrix(0.62972,0,0,0.62972,3148.4,479.018)">
                <g transform="matrix(0,494.929,494.929,0,530.929,36)">
                    <path d="M0.5,-1C0.776,-1 1,-0.776 1,-0.5C1,-0.224 0.776,-0 0.5,-0C0.224,-0 -0,-0.224 -0,-0.5C-0,-0.776 0.224,-1 0.5,-1Z" style="fill:url(#_Linear1);fill-rule:nonzero;"/>
                </g>
                <g transform="matrix(1,0,0,1,40.9736,314.024)">
                    <path d="M3.307,-94.277C3.779,-96.055 4.271,-97.824 4.781,-99.585L8.081,-104.776L6.644,-105.712C6.814,-106.244 6.985,-106.775 7.157,-107.305L8.947,-106.139L15.608,-116.621C15.561,-116.636 15.514,-116.656 15.469,-116.681L11.276,-118.942C11.471,-119.45 11.667,-119.958 11.864,-120.464L16.227,-118.111C16.311,-118.065 16.384,-118.005 16.444,-117.936L22.483,-127.438L16.247,-130.974C16.467,-131.469 16.689,-131.962 16.912,-132.455L23.351,-128.804L30.284,-139.712C28.158,-140.777 26.635,-141.455 25.932,-141.607C25.401,-141.722 23.844,-142.039 21.638,-142.314C21.898,-142.826 22.159,-143.337 22.422,-143.847C24.385,-143.585 25.761,-143.305 26.261,-143.196C27.141,-143.006 29.052,-142.143 31.707,-140.795C31.763,-140.775 31.817,-140.747 31.869,-140.713C35.076,-139.08 39.336,-136.76 44.158,-134.073L44.158,-132.22C39.332,-134.917 34.994,-137.292 31.718,-138.982L24.746,-128.013L44.158,-117.005L44.158,-117.002L44.158,-115.146L44.158,-111.981L30.923,-92.33L40.108,-89.39L44.158,-111.219L44.158,-102.479L41.627,-88.838L44.158,-87.765L44.158,-86.006L41.325,-87.206L37.604,-67.15C39.17,-66.942 40.492,-66.667 41.433,-66.307C41.876,-66.137 42.811,-65.746 44.158,-65.169L44.158,-65.165L44.158,-63.406L44.158,-59.239L41.742,-48.027L44.158,-46.953L44.158,-44.174C43.851,-42.315 43.896,-40.705 44.158,-39.294L44.158,-34.628C42.782,-37.191 41.716,-40.641 42.787,-45.479C42.808,-45.575 42.845,-45.663 42.895,-45.741L34.338,-49.546L30.126,-26.847C35.2,-27.298 39.982,-27.165 44.158,-26.625L44.158,-23.774C40.027,-24.34 35.23,-24.482 30.112,-24.001L32.688,-3.279C35.647,-3.502 39.896,-3.878 44.158,-4.271L44.158,-2.638C39.984,-2.253 35.834,-1.887 32.889,-1.665L35.793,21.693L44.158,21.277L44.158,22.903L35.994,23.309L38.321,42.032L44.158,41.592L44.158,43.221L38.522,43.645L40.998,63.565C41,63.584 41.001,63.604 41.001,63.624L44.158,63.01L44.158,64.666L34.336,66.572C35.564,75.418 35.95,80.283 35.95,83.006C35.95,86.025 35.475,86.414 35.143,86.683C34.884,86.894 34.489,87.083 33.969,87.254C33.969,87.254 35.3,101.791 35.3,101.796L35.621,105.298C34.723,103.934 33.839,102.56 32.968,101.178L33.638,101.121L32.405,87.646C30.683,87.984 28.31,88.231 25.458,88.428C25.17,87.905 24.885,87.381 24.601,86.856C27.947,86.64 30.998,86.35 32.756,85.94C32.843,85.896 32.939,85.867 33.042,85.857C33.062,85.855 33.083,85.854 33.103,85.853C33.567,85.728 33.912,85.592 34.114,85.444C34.674,84.473 34.364,78.64 33.512,70.763L17.6,72.845C17.363,72.33 17.128,71.815 16.895,71.298L33.334,69.149C33.166,67.668 32.981,66.126 32.781,64.54L15.25,67.58C15.029,67.069 14.81,66.557 14.592,66.045L17.648,65.514L15.206,49.843L8.903,51.348C8.724,50.835 8.545,50.322 8.369,49.808L14.955,48.236L14.522,45.453L7.101,46.012C6.929,45.483 6.759,44.953 6.59,44.422L14.271,43.844L11.262,24.54L1.511,25.963C1.388,25.435 1.266,24.906 1.146,24.376L11.012,22.936L9.059,10.41L-1.03,13.683C-1.127,13.146 -1.222,12.608 -1.316,12.07L8.806,8.786L7.854,2.674C4.826,3.356 2.158,3.98 0.364,4.41C-0.365,4.585 -1.335,4.779 -2.441,4.98C-2.518,4.444 -2.593,3.908 -2.667,3.371C-1.61,3.179 -0.688,2.994 0,2.829C0.086,2.808 3.283,2.043 7.603,1.068L4.81,-16.852C1.788,-15.572 -1.316,-14.18 -4.344,-12.773C-4.416,-13.787 -4.482,-14.802 -4.542,-15.819C-2.977,-16.539 -1.395,-17.254 0.183,-17.95L-4.38,-21.287C-4.716,-21.535 -4.81,-22.005 -4.597,-22.366L9.115,-45.591L9.883,-49.886L3.539,-49.886L-4.907,-36.363C-4.864,-38.226 -4.801,-40.083 -4.717,-41.935L0.462,-50.231C-0.519,-50.85 -2.041,-51.811 -3.967,-53.028C-3.873,-54.081 -3.771,-55.132 -3.663,-56.181C-1.146,-54.591 0.811,-53.355 1.959,-52.63L10.709,-66.647L-1.087,-74.486C-0.983,-75.066 -0.877,-75.644 -0.769,-76.222L11.569,-68.024L16.595,-76.077L27.434,-92.17L9.423,-103.902L3.307,-94.277ZM44.158,117.46C43.523,116.611 42.894,115.758 42.27,114.901C42.904,114.833 43.533,114.766 44.158,114.699L44.158,117.46ZM44.163,117.468L44.163,114.699C50.791,113.991 56.852,113.348 62.022,112.806C60.197,95.602 58.106,75.966 56.643,62.234C56.606,62.247 56.567,62.258 56.527,62.266L44.163,64.666L44.163,63.011L56.23,60.67C56.313,60.654 56.396,60.651 56.475,60.661C55.48,51.321 54.813,45.069 54.787,44.819C54.781,44.761 54.781,44.704 54.786,44.649L54.547,42.434L44.163,43.223L44.163,41.592L54.373,40.818L52.394,22.495L44.163,22.903L44.163,21.277L52.22,20.877L49.625,-3.15C47.869,-2.983 46.014,-2.809 44.163,-2.638L44.163,-4.271C45.955,-4.436 47.749,-4.605 49.451,-4.767L47.46,-23.205C46.418,-23.424 45.316,-23.615 44.163,-23.774L44.163,-26.625C45.194,-26.491 46.189,-26.333 47.142,-26.152L46.642,-30.778C46.44,-31.093 46.204,-31.433 45.957,-31.789C45.398,-32.598 44.752,-33.532 44.163,-34.628L44.163,-39.293C44.695,-36.433 46.11,-34.385 47.259,-32.726C47.563,-32.288 47.85,-31.873 48.095,-31.478C48.167,-31.363 48.209,-31.231 48.219,-31.095L48.789,-25.809C50.955,-25.316 52.866,-24.706 54.455,-24.014C55.95,-23.36 60.239,-21.534 66.175,-19.01C74.952,-15.274 86.851,-10.209 98.196,-5.333L103.302,-18.885L44.339,-45.101C44.269,-44.785 44.213,-44.477 44.163,-44.174L44.163,-46.953L64.804,-37.775L70.039,-52.03C59.266,-56.802 50.108,-60.837 44.986,-63.051L44.163,-59.24L44.163,-63.406L44.163,-65.165L44.163,-65.169L44.166,-65.168L56.497,-80.778L44.163,-86.006L44.163,-87.766L57.4,-82.156L66.77,-102.327L46.289,-113.941L44.163,-102.479L44.163,-111.22L44.359,-112.271L44.163,-111.981L44.163,-115.146L44.163,-117.002L44.163,-117.005L44.165,-117.004L51.595,-128.037C49.045,-129.481 46.544,-130.89 44.163,-132.221L44.163,-134.073C46.802,-132.602 49.608,-131.021 52.502,-129.382L60.006,-140.524L77.674,-159.816L77.65,-159.839L78.632,-160.863L78.853,-161.104L78.869,-161.11L92.478,-175.299L91.743,-176.391L81.221,-179.242L76.928,-179.918C73.907,-175.714 66.491,-165.557 64.863,-164.807C62.745,-163.834 60.416,-164.299 58.305,-166.119C57.895,-166.473 57.432,-166.953 56.892,-167.51C55.701,-168.745 54.182,-170.319 52.212,-171.629C52.145,-171.661 52.084,-171.701 52.03,-171.749C50.363,-172.828 48.38,-173.711 46.009,-174.049C45.798,-174.079 45.608,-174.194 45.482,-174.368C45.353,-174.543 45.298,-174.762 45.333,-174.977L46.306,-181.41C46.966,-182.268 47.632,-183.121 48.303,-183.969L47.026,-175.524C48.91,-175.156 50.562,-174.474 52.006,-173.648L54.102,-183.511L48.624,-184.374C49.011,-184.862 49.401,-185.349 49.792,-185.834L54.44,-185.102L56.221,-193.482C57.92,-195.423 59.649,-197.337 61.407,-199.223C62.275,-199.178 63.143,-199.165 64.012,-199.165C65.751,-199.165 68.525,-199.209 72.087,-199.41L67.25,-205.286C67.63,-205.666 68.011,-206.046 68.393,-206.424L74.065,-199.533C80.335,-199.959 88.592,-200.857 97.757,-202.723C99.363,-203.051 100.868,-203.109 102.277,-202.943C101.865,-206.097 100.955,-213.068 100.109,-219.516C99.965,-219.668 99.879,-219.877 99.888,-220.111C99.892,-220.242 99.926,-220.364 99.984,-220.472C99.349,-225.31 98.767,-229.726 98.484,-231.83C98.971,-232.18 99.46,-232.527 99.95,-232.873C100.162,-231.338 100.814,-226.394 101.54,-220.868L114.12,-220.436L120.379,-234.261C119.996,-234.371 119.577,-234.451 119.094,-234.52C117.25,-234.784 113.355,-233.743 112.009,-233.319C111.588,-233.188 111.143,-233.427 111.014,-233.856C110.883,-234.284 111.118,-234.741 111.539,-234.872C111.751,-234.938 116.743,-236.497 119.314,-236.129C119.974,-236.035 120.539,-235.92 121.055,-235.756L123.778,-241.77L119.803,-245.518C120.29,-245.797 120.778,-246.074 121.268,-246.349L124.48,-243.321L127.351,-249.662C128.114,-250.064 128.88,-250.462 129.648,-250.857L125.711,-242.16L134.589,-233.79L157.958,-263.21C159.609,-263.81 161.268,-264.392 162.935,-264.958L157.558,-258.188C159.447,-255.716 164.378,-249.277 166.859,-246.163C169.31,-243.087 176.058,-238.118 178.581,-236.309L188.854,-243.392L184.949,-246.652C184.929,-246.669 184.909,-246.685 184.89,-246.702L163.002,-264.981C163.599,-265.183 164.198,-265.384 164.798,-265.582L185.283,-248.473L190.463,-255.588L175.994,-268.214C175.788,-268.392 175.693,-268.655 175.717,-268.91C176.492,-269.127 177.269,-269.34 178.047,-269.549L177.6,-268.95L192.064,-256.329C192.384,-256.052 192.436,-255.57 192.186,-255.228L186.516,-247.444L190.231,-244.341L207.384,-256.167L188.037,-272.013C188.704,-272.163 189.372,-272.31 190.041,-272.454L208.765,-257.119L218.084,-263.545C217.666,-265.075 217.379,-266.347 217.276,-267.24C217.208,-267.822 217.185,-268.371 217.195,-268.891L211.836,-266.537C211.566,-266.418 211.252,-266.462 211.022,-266.651L201.337,-274.617C202.042,-274.735 202.748,-274.85 203.455,-274.962L211.648,-268.224L217.363,-270.735C217.491,-271.531 217.671,-272.244 217.833,-272.888C218.21,-274.382 218.492,-275.506 217.932,-276.82C218.885,-276.914 219.839,-277.003 220.795,-277.086C221.244,-275.463 220.973,-273.929 220.533,-272.18C220.189,-270.814 219.835,-269.401 220.043,-267.572C220.31,-265.264 221.995,-259.983 223.975,-254.337C225.659,-255.479 227.129,-256.356 228.144,-256.738C229.515,-257.253 230.816,-257.634 232.061,-257.796L230.576,-277.742C231.129,-277.768 231.682,-277.793 232.236,-277.815C232.353,-276.228 232.469,-274.643 232.582,-273.097C233.583,-274.152 235.17,-275.829 237.198,-277.968C238.539,-277.996 239.882,-278.014 241.228,-278.021C237.313,-273.884 234.332,-270.719 232.868,-269.166C233.249,-263.92 233.558,-259.587 233.668,-257.875C236.013,-257.783 238.173,-256.711 240.261,-254.021C240.704,-253.451 241.405,-252.579 242.285,-251.5L254.844,-262.491C255.178,-262.783 255.683,-262.744 255.967,-262.403C256.098,-262.25 256.16,-262.062 256.16,-261.874C256.16,-261.646 256.066,-261.418 255.883,-261.257L243.307,-250.251C244.77,-248.469 246.555,-246.314 248.411,-244.083C248.46,-244.17 248.524,-244.25 248.605,-244.317L273.448,-264.705L280.015,-275.197C280.59,-275.11 281.164,-275.02 281.737,-274.929L275.041,-264.23L308.216,-225.24C313.788,-229.93 322.443,-237.436 331.769,-245.577L306.79,-269.588C308.716,-269.071 310.632,-268.532 312.539,-267.97L313.064,-267.466L313.296,-267.746C313.852,-267.58 314.408,-267.412 314.963,-267.243L314.225,-266.35L333.899,-247.438C337.25,-250.366 340.662,-253.353 344.028,-256.301C344.967,-255.877 345.904,-255.448 346.837,-255.014C340.663,-249.604 334.293,-244.03 328.399,-238.899L345.408,-217.133L365.45,-234.275L348.953,-254.016C350.135,-253.452 351.312,-252.879 352.484,-252.296L366.671,-235.319L373.08,-240.802C373.558,-240.504 374.036,-240.204 374.512,-239.904L367.705,-234.082L381.185,-217.951L392.408,-227.46C392.845,-227.127 393.281,-226.792 393.716,-226.456L382.219,-216.714L396.72,-199.36L401.52,-203.093C401.861,-203.359 402.346,-203.3 402.618,-202.962L410.127,-193.607L420.267,-202.185C417.503,-203.911 414.875,-206.586 411.405,-211.41C415.216,-207.849 418.914,-204.169 422.494,-200.376L409.784,-189.624L410.641,-188.763L414.007,-190.758C414.163,-190.851 414.348,-190.887 414.529,-190.858L433.531,-187.867C434.048,-187.24 434.561,-186.612 435.071,-185.98L414.564,-189.208L411.817,-187.581L415.479,-183.901C415.499,-183.88 415.519,-183.858 415.536,-183.835L419.188,-179.253L425.225,-184.898C425.55,-185.201 426.054,-185.179 426.351,-184.847C426.492,-184.691 426.562,-184.495 426.562,-184.299C426.562,-184.079 426.475,-183.86 426.302,-183.7L420.194,-177.99L422.285,-175.366C422.401,-175.221 422.463,-175.039 422.463,-174.854C422.463,-174.817 422.46,-174.781 422.458,-174.744C422.428,-174.522 422.309,-174.322 422.129,-174.192L412.97,-167.552C412.77,-167.408 412.515,-167.365 412.282,-167.436C409.803,-168.189 403.01,-169.648 400.09,-167.848C400.429,-165.896 400.749,-164.169 400.995,-163.062C401.233,-161.994 401.616,-161.303 402.138,-161.009C402.864,-160.6 403.876,-160.964 404.549,-161.205C404.762,-161.282 404.945,-161.346 405.086,-161.382C405.511,-161.491 405.945,-161.226 406.051,-160.79C406.068,-160.725 406.076,-160.658 406.076,-160.593C406.076,-160.229 405.833,-159.897 405.472,-159.805C405.368,-159.779 405.234,-159.729 405.076,-159.672C404.252,-159.376 402.718,-158.825 401.369,-159.586C400.431,-160.115 399.783,-161.164 399.441,-162.704C398.702,-166.034 397.35,-174.574 396.728,-178.578L360.854,-148.228L360.817,-148.198C360.817,-148.198 354.179,-142.963 344.809,-135.571L398.82,-95.458L404.742,-104.776L377.466,-122.543C377.137,-122.757 377.009,-123.183 377.162,-123.549C377.251,-123.756 379.426,-128.735 389.325,-137.604C400.575,-147.681 420.669,-143.685 422.924,-143.196C423.802,-143.006 425.715,-142.143 428.371,-140.794C428.426,-140.774 428.48,-140.747 428.531,-140.713C431.739,-139.08 435.999,-136.76 440.82,-134.073L440.82,-132.22C435.994,-134.917 431.657,-137.291 428.38,-138.981L421.409,-128.012L440.82,-117.005L440.82,-111.981L427.585,-92.331L436.77,-89.39L440.82,-111.219L440.82,-102.479L438.289,-88.838L440.82,-87.765L440.82,-86.006L437.987,-87.206L434.266,-67.15C435.831,-66.942 437.152,-66.666 438.094,-66.307C438.537,-66.137 439.472,-65.746 440.821,-65.169L440.82,-65.165L440.82,-63.406L440.82,-59.239L438.402,-48.028L440.82,-46.953L440.82,-45.837L440.82,-45.18L440.82,-44.174C440.511,-42.315 440.558,-40.705 440.82,-39.294L440.82,-34.628C439.442,-37.191 438.375,-40.641 439.447,-45.479C439.468,-45.575 439.506,-45.664 439.555,-45.742L431,-49.546L426.789,-26.847C431.862,-27.298 436.644,-27.165 440.821,-26.625L440.821,-23.774C436.69,-24.34 431.892,-24.482 426.775,-24.001L429.351,-3.28C432.31,-3.502 436.559,-3.878 440.82,-4.271L440.82,-2.638C436.647,-2.253 432.496,-1.887 429.552,-1.665L432.455,21.693L440.821,21.277L440.821,22.903L432.656,23.309L434.983,42.032L440.821,41.592L440.821,43.221L435.184,43.645L437.66,63.565C437.662,63.584 437.663,63.604 437.663,63.624L440.821,63.01L440.821,64.666L430.996,66.572C432.224,75.418 432.612,80.283 432.612,83.006C432.612,86.025 432.134,86.414 431.805,86.683C431.546,86.894 431.151,87.083 430.631,87.253L433.219,115.513C435.819,115.234 438.359,114.962 440.82,114.699L440.82,117.466C440.796,117.498 440.772,117.53 440.748,117.562C438.391,117.814 435.962,118.074 433.477,118.341L434.004,124.097L435.783,123.977C435.321,124.553 434.857,125.127 434.391,125.699L434.153,125.716L434.175,125.964C433.698,126.548 433.217,127.13 432.734,127.71L431.892,118.511C427.207,119.014 422.336,119.539 417.374,120.075L418.091,133.888C421.821,133.481 425.516,133.084 428.399,132.776C427.867,133.381 427.333,133.982 426.796,134.581C423.938,134.887 420.996,135.205 418.175,135.512L418.414,140.126L421.841,139.947C421.295,140.521 420.748,141.091 420.197,141.659L417.702,141.789C417.264,141.811 416.89,141.467 416.865,141.022L416.588,135.685C409.837,136.423 404.033,137.078 402.147,137.341C402.246,138.907 402.313,140.145 402.339,140.95C402.347,141.158 402.349,141.361 402.349,141.564C402.349,147.981 399.07,152.252 396.875,155.108C396.536,155.551 396.214,155.969 395.947,156.343C395.235,157.338 394.744,160.755 394.434,164.78C393.877,165.214 393.318,165.646 392.757,166.075C393.074,161.231 393.66,156.785 394.66,155.385C394.945,154.989 395.274,154.561 395.623,154.106C397.741,151.346 400.943,147.169 400.745,141.005C400.716,140.09 400.633,138.611 400.51,136.721C400.269,133.015 399.874,127.73 399.428,122.02C394.825,122.52 390.24,123.019 385.745,123.51L387.939,142.494C387.943,142.527 387.946,142.559 387.946,142.591C387.946,142.769 387.889,142.936 387.791,143.072L378.682,172.167L378.385,176.286C377.828,176.653 377.27,177.017 376.71,177.38L377.046,172.714L368.701,171.424L359.618,179.303L360.449,180.276L362.72,178.565C362.856,178.461 363.022,178.406 363.193,178.406L375.109,178.406C374.249,178.953 373.387,179.494 372.52,180.03L363.455,180.03L361.498,181.505L364.365,184.863C363.89,185.132 363.414,185.4 362.937,185.667L360.211,182.475L352.888,187.993L354.466,190.181C353.983,190.427 353.5,190.67 353.016,190.913L351.134,188.303C350.874,187.944 350.948,187.434 351.302,187.169L359.162,181.246L358.403,180.358L356.892,181.668C356.882,181.677 356.872,181.686 356.862,181.695L344.081,192.783C344.539,193.363 344.999,193.946 345.461,194.531C344.585,194.932 343.705,195.329 342.823,195.721C342.586,195.421 342.349,195.122 342.113,194.823L340.548,196.717C339.483,197.177 338.415,197.63 337.342,198.076L341.094,193.534C324.573,172.625 310.714,155.139 307.198,150.704C304.508,153.971 301.186,157.278 296.926,160.453C292.91,163.446 280.108,176.366 266.91,190.022L290.098,205.388L296.037,211.097C294.931,211.341 293.822,211.577 292.71,211.806L289.06,208.298L286.068,213.081C285.362,213.206 284.655,213.329 283.947,213.448L287.815,207.266L264.914,192.091C256.21,201.118 247.518,210.263 241.234,216.902C239.921,216.896 238.611,216.879 237.303,216.852C243.535,210.276 253.855,199.411 264.159,188.759C264.123,188.738 264.088,188.714 264.055,188.686L259.339,184.805L241.969,204.03C241.682,204.369 241.179,204.406 240.845,204.114C240.514,203.822 240.474,203.31 240.761,202.968L258.096,183.782L247.397,174.975L230.664,195.789C230.664,195.789 231.438,206.223 232.205,216.695C231.647,216.672 231.09,216.648 230.534,216.621L229.043,196.588C228.867,196.457 228.753,196.257 228.726,196.036C228.697,195.816 228.761,195.593 228.899,195.42L246.156,173.954L222.739,154.68L192.372,192.911C205.038,203.003 214.255,210.363 216.283,212.037C218.022,213.473 219.175,214.727 219.908,215.889C218.583,215.769 217.261,215.638 215.942,215.498C215.539,215.109 215.071,214.695 214.529,214.247C212.511,212.581 203.29,205.218 190.617,195.121L179.697,208.868C178.709,208.61 177.723,208.345 176.739,208.075L188.419,193.37C181.818,188.112 174.389,182.197 166.617,176.009C165.116,174.814 163.606,173.611 162.09,172.405L153.115,192.232L170.112,206.152C168.729,205.73 167.351,205.296 165.978,204.85L152.427,193.752L150.028,199.053C149.533,198.853 149.039,198.652 148.545,198.45L151.147,192.704L138.397,182.263L133.284,191.566C132.804,191.33 132.326,191.093 131.849,190.854L137.137,181.231L132.736,177.626L126.699,188.199C126.227,187.949 125.757,187.697 125.287,187.444C125.292,187.434 125.297,187.425 125.303,187.415L131.48,176.598L127.85,173.625L121.861,185.564C121.395,185.303 120.93,185.041 120.466,184.777L136.785,152.251C134.279,150.254 131.817,148.291 129.416,146.377C126.825,149.619 122.613,157.221 122.206,161.597C121.875,165.15 117.646,170.649 113.914,175.499C112.916,176.797 111.946,178.057 111.121,179.194C110.666,178.909 110.213,178.623 109.76,178.335C110.6,177.174 111.592,175.884 112.659,174.497C116.079,170.053 120.333,164.524 120.62,161.443C121.074,156.569 125.398,148.844 128.162,145.377C126.783,144.277 125.425,143.194 124.092,142.131L109.18,163.222C108.925,163.586 108.428,163.667 108.071,163.407L105.754,161.714C105.171,163.063 103.836,166.555 104.359,169.225C104.638,170.649 105.223,173.2 105.832,175.781C105.182,175.349 104.534,174.915 103.888,174.477C103.429,172.503 103.021,170.686 102.798,169.545C102.132,166.156 103.879,161.955 104.43,160.746C104.43,160.746 102.978,159.685 102.969,159.678L88.895,149.393C88.722,149.265 88.606,149.074 88.571,148.859C88.539,148.644 88.591,148.423 88.719,148.248L104.514,126.482C97.737,121.048 93.333,117.485 92.644,116.852C89.429,113.902 85.769,113.541 79.716,113.894C78.942,113.94 76.44,114.179 72.611,114.566L74.965,132.89C74.97,132.927 74.973,132.961 74.973,132.996C74.973,133.399 74.681,133.748 74.277,133.8C73.842,133.857 73.444,133.545 73.387,133.1L71.027,114.728C68.952,114.94 66.562,115.187 63.907,115.464C65.159,127.266 66.258,137.658 66.902,143.817C66.301,143.211 65.703,142.603 65.108,141.992C64.45,135.719 63.448,126.244 62.322,115.63C60.749,115.795 59.094,115.969 57.364,116.152L59.553,136.093C58.941,135.421 58.332,134.746 57.727,134.068L55.779,116.319C52.192,116.699 48.315,117.111 44.223,117.548C44.203,117.521 44.183,117.494 44.163,117.468ZM444.381,-173.698C443.835,-173.846 443.265,-173.965 442.671,-174.049C442.461,-174.079 442.27,-174.194 442.142,-174.368C442.015,-174.543 441.961,-174.762 441.993,-174.977L442.247,-176.657C442.966,-175.676 443.677,-174.69 444.381,-173.698ZM489.853,-23.381L441.001,-45.101C440.931,-44.785 440.874,-44.477 440.825,-44.174L440.825,-45.18L440.825,-45.837L440.825,-46.953L461.465,-37.776L466.7,-52.03C455.926,-56.803 446.767,-60.839 441.646,-63.052L440.825,-59.24L440.825,-63.406L440.825,-65.165L440.826,-65.169L440.828,-65.168L453.16,-80.778L440.825,-86.006L440.825,-87.766L454.062,-82.155L463.431,-102.327L442.951,-113.941L440.825,-102.479L440.825,-111.22L441.02,-112.269L440.826,-111.981L440.825,-115.146L440.825,-117.002L440.825,-117.005L440.827,-117.004L448.257,-128.037C445.707,-129.481 443.206,-130.89 440.825,-132.221L440.825,-134.073C443.464,-132.602 446.27,-131.021 449.163,-129.382L456.668,-140.524L461.526,-145.829C461.989,-144.95 462.448,-144.068 462.901,-143.183L458.906,-138.826L451.61,-127.994C454.609,-126.291 457.676,-124.543 460.724,-122.805C464.285,-120.775 467.793,-118.776 471.086,-116.91C471.116,-116.894 471.146,-116.877 471.175,-116.859C472.615,-116.043 474.013,-115.253 475.356,-114.498C475.634,-113.728 475.908,-112.956 476.178,-112.182C474.568,-113.084 472.867,-114.043 471.1,-115.043L465.509,-103.007L481.811,-93.762C482.08,-92.74 482.343,-91.715 482.6,-90.688L476.044,-72.839L487.119,-68.145C487.215,-67.52 487.308,-66.894 487.398,-66.268L475.485,-71.317L468.723,-52.907C474.524,-50.337 480.751,-47.573 487.042,-44.776L489.17,-50.417C489.271,-49.152 489.362,-47.885 489.443,-46.616L488.504,-44.126C488.875,-43.962 489.245,-43.797 489.616,-43.632C489.647,-43.028 489.677,-42.424 489.704,-41.819C489.113,-42.082 488.522,-42.345 487.931,-42.607L482.569,-28.392L489.897,-25.134C489.885,-24.549 489.87,-23.965 489.853,-23.381ZM456.637,93.538C455.426,82.144 454.238,70.989 453.305,62.234C453.268,62.247 453.229,62.258 453.189,62.266L440.826,64.666L440.826,63.011L452.89,60.67C452.974,60.653 453.057,60.651 453.138,60.661C452.142,51.321 451.476,45.069 451.449,44.819C451.443,44.761 451.443,44.704 451.448,44.648L451.209,42.434L440.823,43.223L440.823,41.592L451.035,40.817L449.057,22.495L440.825,22.903L440.825,21.277L448.882,20.877L446.288,-3.15C444.531,-2.983 442.676,-2.809 440.825,-2.638L440.825,-4.271C442.617,-4.436 444.411,-4.605 446.113,-4.767L444.122,-23.204C443.08,-23.424 441.978,-23.615 440.825,-23.774L440.825,-26.625C441.856,-26.491 442.851,-26.332 443.804,-26.152L443.304,-30.778C443.099,-31.093 442.866,-31.433 442.619,-31.789C442.06,-32.598 441.414,-33.532 440.825,-34.628L440.825,-39.293C441.357,-36.433 442.772,-34.385 443.921,-32.726C444.223,-32.288 444.51,-31.873 444.757,-31.478C444.829,-31.363 444.871,-31.231 444.881,-31.095L445.451,-25.809C447.617,-25.316 449.527,-24.705 451.115,-24.014C452.612,-23.36 456.901,-21.534 462.837,-19.01C470.093,-15.921 479.482,-11.924 488.93,-7.876C488.84,-6.887 488.744,-5.899 488.642,-4.913C484.501,-6.689 480.379,-8.45 476.467,-10.12C475.027,-6.823 471.181,2.007 469.284,6.54C469.279,6.55 469.275,6.56 469.271,6.569C468.916,7.418 468.63,8.114 468.442,8.592C467.049,12.143 465.854,20.909 465.842,20.998C465.79,21.384 465.475,21.678 465.092,21.698L450.652,22.415L452.623,40.697L467.94,39.536C468.351,39.504 468.72,39.801 468.784,40.217L473.204,54.833L483.412,26.215C480.737,37.608 477.275,48.698 473.087,59.425L462.536,62.106L463.3,68.051C463.36,68.036 463.422,68.029 463.486,68.029L469.537,68.029C469.301,68.572 469.063,69.114 468.823,69.655L463.506,69.655L464.652,78.577C464.231,79.432 463.805,80.284 463.375,81.134L458.335,41.893L452.798,42.314L453.384,47.754C453.386,47.774 453.386,47.791 453.386,47.809C453.386,47.842 453.384,47.875 453.381,47.907C454.145,55.08 456.016,72.632 457.989,91.181C457.543,91.969 457.092,92.755 456.637,93.538ZM440.825,117.46L440.825,114.699C441.567,114.62 442.302,114.541 443.03,114.464C442.302,115.468 441.567,116.467 440.825,117.46ZM187.021,210.664L188.473,208.716C188.604,208.543 188.797,208.429 189.01,208.402C189.225,208.375 189.441,208.439 189.606,208.575L193.947,212.146C192.815,211.92 191.685,211.687 190.558,211.447L189.245,210.367L188.736,211.05C188.163,210.924 187.592,210.795 187.021,210.664ZM48.681,123.327L50.263,123.219C50.689,123.19 51.062,123.512 51.109,123.945L51.396,126.682C50.481,125.572 49.576,124.453 48.681,123.327ZM39.81,-87.781L29.979,-90.93L18.931,-74.527L14.532,-67.484C19.035,-67.68 29.144,-68.002 36.016,-67.331L39.81,-87.781ZM43.254,-115.659L23.878,-126.647L10.29,-105.265L28.337,-93.51L43.254,-115.659ZM43.487,-63.694C42.194,-64.248 41.299,-64.623 40.874,-64.785C40.012,-65.114 38.781,-65.367 37.309,-65.559L34.642,-51.184L40.253,-48.689L43.487,-63.694ZM28.474,-26.68L32.779,-49.886L11.503,-49.886L10.656,-45.154C10.639,-45.058 10.604,-44.965 10.555,-44.881L-2.853,-22.171L1.896,-18.698C6.899,-20.863 11.793,-22.79 15.919,-24.066C20.162,-25.378 24.4,-26.219 28.474,-26.68ZM31.101,-3.167L28.533,-23.833C24.707,-23.382 20.726,-22.579 16.729,-21.344C13.637,-20.388 10.065,-19.038 6.323,-17.486L9.161,0.719C16.491,-0.916 26.129,-2.931 29.793,-3.093C30.151,-3.109 30.592,-3.134 31.101,-3.167ZM36.732,42.151L34.401,23.388C34.401,23.388 23.626,23.923 23.621,23.923L12.861,24.458L15.864,43.724L36.732,42.151ZM34.2,21.772L31.302,-1.552C30.738,-1.515 30.252,-1.487 29.859,-1.47C28.494,-1.409 26.174,-1.063 23.388,-0.559L24.349,22.262L34.2,21.772ZM39.459,63.923C39.434,63.856 39.418,63.784 39.411,63.709L36.933,43.765L31.284,44.191C31.73,47.605 32.911,56.606 34.049,64.535C34.069,64.678 34.089,64.821 34.11,64.962L39.459,63.923ZM32.574,62.925C31.797,56.961 30.823,50.469 29.75,44.306L16.115,45.333L19.219,65.242L32.574,62.925ZM21.807,-0.266C17.953,0.465 13.454,1.425 9.411,2.325L12.61,22.845L22.758,22.341L21.807,-0.266ZM12.433,-64.123L4.555,-51.511L10.174,-51.511L12.433,-64.123ZM35.72,-65.735C28.926,-66.373 18.672,-66.034 14.36,-65.847L11.793,-51.511L33.081,-51.511L35.72,-65.735ZM207.688,-118.209C210.008,-116.454 213.689,-113.5 215.884,-110.887C223.949,-121.277 231.291,-130.731 236.988,-138.068L212.159,-140.308L207.688,-118.209ZM240.233,111.192C243.131,110.962 246.16,110.817 248.783,110.726L247.742,95.839C244.686,95.891 241.68,95.937 239.045,95.967L239.628,103.44L240.233,111.192ZM119.805,-163.857L115.637,-146.571L142.6,-138.555L148.829,-159.529C134.58,-161.661 122.778,-163.415 119.805,-163.857ZM150.464,-16.05C149.863,-15.133 149.392,-14.329 149.131,-13.744C148.66,-12.687 146.832,-8.028 144.795,-2.785L147.909,-0.479C147.993,-0.417 148.062,-0.34 148.116,-0.254L167.552,7.041C167.622,6.85 167.685,6.679 167.741,6.529C169.055,2.975 171.337,-0.289 173.168,-2.912C173.408,-3.257 173.641,-3.591 173.865,-3.914C171.371,-6.345 158.713,-12.415 150.464,-16.05ZM252.536,2.247C247.664,0.804 223.489,-6.367 205.232,-11.887L197.477,11.556L234.361,27.788L252.536,2.247ZM281.711,-69.367L283.52,-38.836C283.523,-38.819 283.523,-38.803 283.523,-38.787C283.523,-38.612 283.468,-38.441 283.364,-38.301L281.63,-35.865C283.592,-34.315 301.708,-24.413 303.934,-24.682C304.84,-24.79 305.578,-25.911 306.201,-27.636C307.721,-31.85 316.153,-49.714 318.057,-53.734C314.634,-55.182 310.876,-56.785 307.105,-58.401C305.866,-56.537 304.204,-54.808 302.34,-53.488C301.682,-53.022 301.002,-52.577 300.346,-52.147C297.948,-50.579 295.686,-49.099 295.189,-47.07C295.082,-46.635 294.649,-46.37 294.221,-46.48C293.795,-46.589 293.538,-47.03 293.642,-47.464C294.293,-50.118 296.814,-51.769 299.485,-53.516C300.13,-53.938 300.799,-54.375 301.432,-54.824C303.052,-55.97 304.502,-57.448 305.608,-59.043C295.099,-63.551 284.817,-68.016 281.711,-69.367ZM145.276,-137.759L161.224,-133.017C162.935,-140.834 164.747,-149.07 166.472,-156.882C161.452,-157.637 156.423,-158.391 151.617,-159.111L145.276,-137.759ZM174.286,-192.123L159.898,-186.992L152.085,-160.685C156.858,-159.97 161.845,-159.221 166.824,-158.472C170.176,-173.648 173.14,-186.976 174.286,-192.123ZM296.086,48.817C294.554,47.336 293.315,46.523 292.632,46.752C289.828,47.694 278.52,52.84 272.423,56.207L277.225,62.54L296.086,48.817ZM144.189,-1.225C141.923,4.62 139.54,10.81 138.559,13.362C139.293,13.856 139.996,14.379 140.671,14.955L142.047,15.632L146.445,0.734C146.347,0.614 146.284,0.467 146.265,0.313L144.189,-1.225ZM157.218,-24.689C155.58,-22.966 153.188,-19.973 151.39,-17.413C155.648,-15.526 170.814,-8.689 174.758,-5.244C175.191,-5.914 175.543,-6.517 175.776,-7.04C176.024,-7.601 176.34,-8.522 176.704,-9.586C177.053,-10.604 177.436,-11.723 177.862,-12.839L157.218,-24.689ZM160.245,-27.779C159.707,-27.196 159.095,-26.572 158.399,-25.876L178.47,-14.354C179.26,-16.207 180.182,-17.922 181.275,-18.997L160.245,-27.779ZM387.484,31.658C385.76,31.681 384.174,31.678 382.719,31.65C382.405,41.435 381.845,52.438 381.69,55.378L388.061,53.858C388.059,53.843 388.059,53.828 388.058,53.812C388.053,53.643 387.755,41.296 387.484,31.658ZM363.141,42.291C364.498,40.23 366.967,36.511 367.96,35.018C367.2,34.567 366.317,34.056 365.36,33.512L360.591,40.397L363.141,42.291ZM162.757,-132.562L184.455,-126.111L189.639,-153.375C187.699,-153.671 185.685,-153.977 183.618,-154.291L182.214,-143.473C182.16,-143.069 181.823,-142.767 181.425,-142.767L175.555,-142.767L174.498,-135.402C174.466,-135.171 174.337,-134.965 174.144,-134.838C173.951,-134.711 173.716,-134.674 173.496,-134.737L163.839,-137.5C163.475,-135.84 163.114,-134.192 162.757,-132.562ZM196.137,130.695L198.634,127.351L183.686,114.719L180.968,118.209L196.137,130.695ZM245.677,54.908C237.329,47.913 224.816,37.653 221.252,35.832C220.465,35.428 219.772,35.074 219.203,34.77C217.071,33.631 205.179,29.032 193.199,24.487L188.552,38.538L228.882,58.402C228.91,58.415 228.938,58.433 228.964,58.456L245.677,54.908ZM198.653,81.887C201.248,83.395 205.844,86.455 213.747,91.887C215.516,93.105 216.915,94.067 217.521,94.458C218.974,95.404 222.458,95.01 225.534,94.661C227.449,94.446 229.261,94.241 230.642,94.335C231.472,94.392 233.976,94.392 237.321,94.359L235.922,76.436C232.667,76.884 229.279,77.355 225.844,77.84L225.844,92.748C225.844,93.196 225.487,93.56 225.047,93.56C224.606,93.56 224.25,93.196 224.25,92.748L224.25,78.065C215.448,79.313 206.431,80.642 198.653,81.887ZM193.71,22.945C205.749,27.513 217.734,32.15 219.943,33.332C220.502,33.632 221.188,33.98 221.965,34.379C227.473,37.192 247.873,53.717 254.229,60.027C255.22,58.104 259.594,49.816 263.713,42.474L196.966,13.1L195.91,16.293C195.929,16.362 195.939,16.435 195.939,16.509C195.939,16.581 195.929,16.653 195.91,16.727C195.862,16.904 195.759,17.052 195.625,17.156L193.71,22.945ZM203.703,-12.349C193.621,-15.402 185.641,-17.865 184.264,-18.421C183.939,-18.553 183.635,-18.566 183.319,-18.46C183.265,-18.431 183.207,-18.408 183.148,-18.392C181.077,-17.427 179.28,-12.182 178.209,-9.051C177.83,-7.948 177.506,-6.997 177.226,-6.369C176.687,-5.149 175.657,-3.676 174.467,-1.969C173.899,-1.158 173.288,-0.282 172.678,0.642L196.009,10.91L203.703,-12.349ZM246.287,75.028C243.549,75.396 240.596,75.796 237.504,76.219L238.918,94.342C241.546,94.311 244.559,94.264 247.628,94.21L246.287,75.028ZM222.58,120.113C224.028,118.635 227.228,115.36 228.936,113.516C229.93,112.444 233.974,111.762 238.646,111.328L238.104,104.384L226.917,105.377C224.094,109.268 219.882,115.154 218.765,116.906L222.58,120.113ZM203.697,104.238L211.189,110.536L215.518,104.738L207.361,98.089L204.044,103.912C203.96,104.06 203.838,104.17 203.697,104.238ZM162.149,-129.781C161.68,-127.635 161.221,-125.531 160.776,-123.486C162.241,-123.078 165.532,-121.975 173.361,-119.291L176.964,-125.376L162.149,-129.781ZM267.288,-18.481L281.914,-39.034L280.397,-64.606L239.642,-58.092C238.047,-45.231 234.931,-27.296 234.169,-23.047C249.826,-20.917 266.416,-18.579 267.288,-18.481ZM182.043,-154.53C177.54,-155.213 172.811,-155.927 168.054,-156.644C166.788,-150.911 165.474,-144.947 164.187,-139.087L173.053,-136.551L174.078,-143.697C174.135,-144.096 174.471,-144.392 174.867,-144.392L180.727,-144.392L182.043,-154.53ZM223.128,96.546C223.171,96.647 223.192,96.756 223.192,96.866C223.192,97.037 223.138,97.21 223.029,97.359C223.029,97.359 217.252,105.097 217.244,105.107L212.419,111.57L217.532,115.869C217.743,115.542 218.029,115.116 218.382,114.6C219.102,113.551 220.117,112.106 221.401,110.302C223.589,107.233 225.828,104.147 225.85,104.115C225.986,103.929 226.194,103.81 226.422,103.791L237.977,102.764L237.448,95.984C234.002,96.017 231.408,96.015 230.535,95.956C229.295,95.871 227.553,96.067 225.707,96.277C224.845,96.374 223.977,96.472 223.128,96.546ZM184.084,-20.136C181.803,-21.816 179.208,-23.826 177.961,-25.133C175.417,-27.798 169.357,-30.842 166.867,-32.027C163.997,-33.393 163.549,-32.593 162.658,-30.998L162.593,-30.885C162.255,-30.28 161.86,-29.697 161.359,-29.068L182.96,-20.047C183.332,-20.153 183.708,-20.183 184.084,-20.136ZM122.136,-173.526L120.187,-165.442C121.852,-165.195 125.526,-164.649 130.496,-163.909L131.373,-168.694C131.455,-169.135 131.87,-169.426 132.304,-169.343C132.687,-169.27 132.954,-168.929 132.954,-168.545C132.954,-168.496 132.949,-168.445 132.939,-168.395L132.072,-163.674C136.944,-162.948 142.878,-162.063 149.296,-161.102L156.641,-185.831L122.136,-173.526ZM199.601,126.056L202.581,122.064L187.413,109.935L184.678,113.446L199.601,126.056ZM203.547,120.77L206.143,117.293C201.332,113.429 195.829,109.005 191.103,105.198L188.404,108.663L203.547,120.77ZM210.223,111.829L195.548,99.492L192.094,103.926C196.811,107.726 202.304,112.141 207.108,116.001L210.223,111.829ZM176.86,16.599C181.285,18.256 186.714,20.295 192.216,22.379L193.987,17.024C192.513,16.605 189.52,15.755 186.523,14.893C181.973,13.587 179.784,12.959 178.704,12.596L176.86,16.599ZM162.6,25.756L187.106,37.826L190.55,27.414L173.672,21.847C173.455,21.775 173.279,21.612 173.188,21.397C173.095,21.184 173.1,20.939 173.198,20.728L174.678,17.515C170.583,15.983 167.584,14.867 166.581,14.494C165.417,17.774 164.019,21.731 162.6,25.756ZM169.262,7.02C169.251,7.047 169.241,7.075 169.231,7.103C168.84,8.158 168.088,10.256 167.123,12.967C168.179,13.36 171.225,14.492 175.358,16.038L177.56,11.258C177.563,11.253 177.932,10.454 177.932,10.454L169.262,7.02ZM143.499,16.347L161.158,25.045C163.479,18.463 165.737,12.08 167.002,8.563L147.915,1.398L143.499,16.347ZM191.059,25.874L191.705,23.921C186.137,21.812 180.637,19.745 176.179,18.076L175.023,20.585L191.059,25.874ZM194.497,15.483L195.499,12.454L171.795,2.023C171.105,3.141 170.446,4.315 169.888,5.524L179.302,9.253C179.508,9.335 179.671,9.501 179.753,9.709C179.837,9.919 179.83,10.152 179.736,10.357L179.385,11.117C181.775,11.854 189.07,13.942 194.497,15.483ZM179.163,-233.277L153.732,-215.743L175.231,-195.474L181.198,-197.602L181.247,-197.62L192.403,-200.647C192.433,-201.036 192.455,-201.425 192.477,-201.807C192.601,-203.898 192.735,-206.163 194.131,-208.091L179.163,-233.277ZM150.273,-216.791L135.636,-230.591L126.379,-218.937L137.96,-208.301L150.273,-216.791ZM292.7,-152.381C290.425,-156.586 288.534,-160.192 287.369,-162.691C283.135,-171.757 280.737,-179.654 282.128,-188.761C276.8,-185.268 259.992,-174.263 247.073,-165.479C248.145,-161.239 248.99,-158.176 249.472,-156.948C250.026,-155.532 250.407,-154.317 250.744,-153.245C251.12,-152.048 253.339,-146.543 256.372,-139.164L292.7,-152.381ZM79.433,-140.136L76.668,-134.819L90.472,-125.897L92.127,-134.553L79.433,-140.136ZM138.293,-114.247L125.426,-70.923L144.214,-60.268C144.473,-60.121 144.622,-59.845 144.622,-59.558C144.622,-59.453 144.602,-59.347 144.563,-59.245L139.668,-47.289L159.906,-38.711C161.378,-40.613 162.921,-42.605 164.524,-44.674C164.556,-44.72 164.59,-44.764 164.626,-44.806C173.868,-56.738 185.094,-71.213 196.298,-85.652C196.289,-85.744 196.295,-85.839 196.318,-85.933L205.557,-116.275C204.917,-116.753 204.428,-117.106 204.18,-117.284L185.454,-122.851L181.022,-99.517C180.984,-99.454 180.93,-99.404 180.866,-99.366C180.722,-98.955 180.279,-98.731 179.869,-98.867L174.283,-100.62C172.889,-96.953 170.005,-88.14 170.995,-84.872C171.389,-83.577 171.262,-82.604 170.621,-81.98C169.179,-80.579 165.932,-81.638 160.755,-83.548L159.886,-83.868C155.105,-85.621 152.769,-89.765 153.304,-95.526C153.38,-96.347 154.22,-100.497 155.526,-106.667L138.293,-114.247ZM131.051,-99.671L135.717,-115.38L110.762,-126.356L107.931,-114.614L131.051,-99.671ZM110.457,-198.892C112.318,-197.145 113.916,-194.983 115.296,-192.675L136.6,-207.364L125.375,-217.673L110.457,-198.892ZM366.484,-233.037L346.402,-215.861L359.275,-199.387L379.959,-216.912L366.484,-233.037ZM191.106,-241.511L180.485,-234.188L195.264,-209.322C196.024,-209.982 197.003,-210.578 198.268,-211.083C200.552,-211.994 203.262,-212.892 205.974,-213.592L202.864,-231.692L191.106,-241.511ZM95.03,-149.737L85.846,-152.468L80.182,-141.576L92.439,-136.185L95.03,-149.737ZM222.299,-208.761C221.019,-210.528 218.794,-211.695 215.967,-212.034C212.139,-212.493 204.517,-210.522 199.285,-208.434C195.576,-206.954 195.45,-204.838 195.261,-201.636C195.257,-201.564 195.252,-201.492 195.248,-201.42L222.299,-208.761ZM78.822,-71.317L72.061,-52.907C77.862,-50.337 84.089,-47.573 90.38,-44.776L97.419,-63.435L78.822,-71.317ZM66.265,-37.126L84.445,-29.043L89.807,-43.257C83.522,-46.051 77.299,-48.814 71.501,-51.382L66.265,-37.126ZM86.171,-91.325L79.382,-72.839L97.991,-64.952L104.104,-81.155L86.171,-91.325ZM108.359,-92.437C102.295,-98.365 96.069,-103.824 92.679,-105.21C92.35,-105.344 91.945,-105.527 91.471,-105.753L86.736,-92.863L104.681,-82.687L108.359,-92.437ZM56.017,-184.854L75.957,-181.715L73.592,-196.308C67.4,-194.933 62.595,-194.141 57.97,-194.042L56.017,-184.854ZM123.951,-75.764C121.951,-78.313 115.984,-84.887 109.604,-91.211L106.087,-81.889L122.933,-72.336L123.951,-75.764ZM121.83,-233.588L115.85,-220.377L123.721,-220.107L129.311,-227.145C127.995,-227.959 125.993,-229.348 124.439,-231.089C123.341,-232.322 122.574,-233.088 121.83,-233.588ZM114.366,-188.601L98.927,-177.957L95.222,-174.094L99.103,-168.325L119.725,-175.68C119.313,-176.66 118.873,-177.822 118.391,-179.093C117.324,-181.906 116.023,-185.334 114.366,-188.601ZM51.217,-3.302L53.816,20.797L67.697,20.107C68.009,17.944 69.053,11.171 70.303,7.988C70.455,7.599 70.67,7.074 70.931,6.444L59.679,-4.125C58.583,-4.016 55.28,-3.69 51.217,-3.302ZM53.991,22.415L55.963,40.697L71.28,39.536C71.691,39.504 72.06,39.801 72.124,40.217L76.545,54.834L94.537,4.381L97.195,-2.675C91.338,-5.193 85.359,-7.75 79.805,-10.12C78.091,-6.196 72.969,5.566 71.783,8.592C70.39,12.143 69.192,20.909 69.182,20.998C69.128,21.384 68.813,21.678 68.43,21.698L53.991,22.415ZM85.907,-28.393L103.874,-20.404L109.228,-34.616C103.426,-37.2 97.332,-39.912 91.269,-42.607L85.907,-28.393ZM49.112,-22.82L51.043,-4.918C55.97,-5.389 59.783,-5.767 59.88,-5.776C60.105,-5.801 60.33,-5.724 60.496,-5.566L71.595,4.859C73.597,0.118 76.981,-7.648 78.334,-10.747C73.409,-12.848 68.866,-14.781 65.101,-16.384C59.16,-18.913 54.866,-20.74 53.359,-21.398C52.137,-21.93 50.71,-22.41 49.112,-22.82ZM97.928,-164.893L82.256,-159.304L86.445,-155.251L95.566,-152.539L97.928,-164.893ZM103.925,-202.638C104.564,-202.476 105.183,-202.266 105.781,-202.014L113.396,-218.835L101.754,-219.235C102.631,-212.543 103.562,-205.415 103.925,-202.638ZM74.44,-115.043L68.849,-103.006L85.328,-93.661L90.031,-106.466C86.572,-108.227 80.953,-111.356 74.44,-115.043ZM91.917,-124.964L106.512,-115.531L109.28,-127.008L93.625,-133.894L91.917,-124.964ZM105.858,-17.749L100.764,-4.228C106.711,-1.668 112.426,0.807 117.363,2.973L122.768,-10.23L105.858,-17.749ZM107.217,-201.306C107.575,-201.104 107.926,-200.886 108.269,-200.653L122.464,-218.524L115.125,-218.776L107.217,-201.306ZM234.084,-209.015L226.042,-206.833C226.099,-206.403 226.128,-205.943 226.128,-205.461C226.128,-200.691 223.562,-194.878 217.924,-193.387L217.125,-193.175C210.446,-191.404 202.876,-189.396 198.983,-190.985C198.799,-191.06 198.619,-191.144 198.443,-191.235L191.51,-154.733C202.498,-153.052 210.854,-151.743 212.77,-151.361L215.127,-163.008C215.132,-163.034 215.137,-163.06 215.143,-163.086L216.313,-168.87C216.375,-169.171 216.595,-169.411 216.887,-169.491L241.583,-176.255C239.199,-186.316 236.448,-198.445 234.084,-209.015ZM345.18,-214.816L313.812,-187.986L326.619,-171.718L358.049,-198.348L345.18,-214.816ZM239.138,134.034L242.814,137.124L257.621,117.775C257.757,117.582 257.97,117.461 258.202,117.443C258.435,117.424 258.662,117.51 258.828,117.679C261.667,120.574 272.07,123.843 278.821,123.214C279.39,123.161 279.979,123.05 280.586,122.891L266.511,99.573L239.138,134.034ZM221.573,151.632L235.985,133.488L233.601,131.483C233.581,131.517 233.559,131.55 233.534,131.581L219.143,149.632L221.573,151.632ZM282.154,122.39C284.157,121.651 286.289,120.518 288.414,119.331L273.065,91.322L267.573,98.236L282.154,122.39ZM317.364,102.188C318.482,101.65 320.614,100.755 323.235,99.74C323.28,99.721 323.325,99.703 323.372,99.687C328.219,97.817 334.688,95.558 339.536,94.383L333.162,82.909C333.131,82.854 333.107,82.796 333.09,82.736L309.742,89.432L317.364,102.188ZM244.203,-165.468C243.896,-166.689 243.573,-167.996 243.236,-169.374L216.594,-162.225L214.332,-151.045C220.287,-150.035 225.768,-151.683 231.052,-156.061C233.181,-157.826 238.147,-161.33 244.203,-165.468ZM402.654,80.162L401.599,73.743C401.595,73.724 401.592,73.704 401.589,73.684L400.9,69.49L373.483,74.245L374.928,82.746C384.776,81.817 395.821,80.755 402.654,80.162ZM303.911,110.537C308.475,107.78 313.236,104.801 315.986,103.004L307.96,89.574L305.008,88.17L297.866,91.345C297.767,91.39 297.659,91.414 297.55,91.414L292.688,91.414L303.911,110.537ZM343.81,-108.89L337.814,-91.626C338.984,-90.884 340.077,-90.176 341.01,-89.5C344.337,-87.087 363.737,-74.722 379.35,-64.822L388.486,-79.197L343.81,-108.89ZM377.832,-62.433C366.795,-69.431 353.881,-77.653 346.041,-82.752C346.208,-81.809 346.286,-80.763 346.286,-79.631C346.286,-74.705 344.822,-68.17 342.929,-61.584C342.924,-61.513 342.91,-61.443 342.885,-61.375C342.871,-61.336 342.856,-61.3 342.837,-61.265C342.046,-58.53 341.183,-55.79 340.324,-53.157C340.232,-52.875 340.144,-52.606 340.062,-52.354C340.055,-52.329 340.047,-52.305 340.039,-52.281C339.779,-51.481 339.579,-50.853 339.478,-50.48C338.56,-47.135 336.972,-46.842 334.819,-47.292L288.421,25.507C290.314,25.744 292.379,26.162 294.629,26.806C313.105,32.087 327.923,27.838 338.673,14.173C338.886,13.903 339.245,13.799 339.564,13.915L353.825,19.131L388.688,-36.72L374.125,-55.227C373.796,-55.486 373.717,-55.958 373.942,-56.313L377.832,-62.433ZM396.881,-182.401L408.9,-192.569L401.874,-201.325C401.874,-201.325 397.086,-197.602 397.084,-197.599L389.091,-191.384L396.881,-182.401ZM321.457,-100.761C319.109,-103.37 316.976,-106.435 315.318,-110.101C315.086,-110.613 314.835,-111.152 314.568,-111.715C311.675,-109.433 308.845,-107.2 306.147,-105.071C306.979,-103.526 307.544,-102.376 307.708,-101.835C308.531,-99.107 313.724,-94.633 318.65,-93.117C319.905,-96.533 320.921,-99.302 321.457,-100.761ZM300.155,-138.806C299.926,-139.22 299.698,-139.634 299.47,-140.047C297.368,-143.852 295.314,-147.571 293.472,-150.958L256.983,-137.678C261.732,-126.142 268.19,-110.674 272.769,-99.732C281.103,-97.761 287.875,-96.088 289.669,-95.664C293.329,-98.553 298.127,-102.339 303.495,-106.574C299.563,-113.544 292.422,-125.297 289.161,-130.596C288.93,-130.972 289.037,-131.469 289.403,-131.71L300.155,-138.806ZM401.47,-16.851C391.693,-12.709 381.053,-7.392 374.9,-4.23C376.464,-2.3 379.364,1.522 381.129,5.35C383.597,5.011 393.162,3.669 396.66,2.829C396.746,2.808 399.943,2.043 404.263,1.068L401.47,-16.851ZM403.885,87.65L402.918,81.771C401.734,81.903 385.012,83.799 375.257,84.676L376.255,90.548C377.877,90.377 379.488,90.207 381.071,90.039C381.078,90.038 381.085,90.037 381.091,90.037C384.29,89.697 387.374,89.367 390.196,89.066C392.905,88.777 395.373,88.513 397.442,88.295C397.451,88.294 397.46,88.293 397.469,88.292C400.278,87.995 402.348,87.78 403.282,87.698C403.468,87.681 403.669,87.666 403.885,87.65ZM406.906,66.799L414.308,65.514L411.866,49.844L402.836,51.999L406.906,66.799ZM373.097,-6.493C378.483,-9.276 387.72,-13.927 396.846,-17.95L392.282,-21.287C391.945,-21.535 391.849,-22.005 392.064,-22.366L405.776,-45.591L406.545,-49.886L400.202,-49.886L373.097,-6.493ZM395.451,-198.373L380.993,-215.675L360.268,-198.115L373.441,-181.257L395.451,-198.373ZM242.853,-170.951C242.562,-172.149 242.264,-173.393 241.958,-174.676L217.773,-168.052L216.954,-164.001L242.853,-170.951ZM333.338,-91.117C329.947,-93.299 326.139,-95.937 322.68,-99.459C322.06,-97.768 321.07,-95.072 319.895,-91.873C319.891,-91.86 319.886,-91.847 319.881,-91.834C318.518,-88.122 316.907,-83.738 315.337,-79.466L328.585,-75.44L330.276,-81.019L333.338,-91.117ZM304.763,-107.574C307.501,-109.735 310.372,-112 313.303,-114.312C310.174,-120.598 305.574,-128.988 300.938,-137.387L290.927,-130.781C292.83,-127.681 300.459,-115.209 304.763,-107.574ZM407.369,-66.647L389.821,-78.31L380.704,-63.963C388.96,-58.73 395.957,-54.312 398.62,-52.631L407.369,-66.647ZM432.382,-65.735C425.588,-66.373 415.334,-66.034 411.022,-65.847L408.454,-51.511L429.743,-51.511L432.382,-65.735ZM373.44,-3.476C371.864,-2.66 370.716,-2.055 370.131,-1.745L361.538,12.011C364.392,13.353 373.952,18.128 374.875,18.899L381.067,16.741C381.117,16.724 381.168,16.712 381.219,16.705C381.156,12.667 380.962,9.569 380.564,8.29C380.392,7.737 380.179,7.172 379.934,6.601C379.923,6.577 379.912,6.552 379.902,6.527C378.179,2.554 374.938,-1.642 373.44,-3.476ZM410.931,43.844L407.922,24.54L395.774,26.314L400.805,44.611C400.83,44.606 400.856,44.603 400.882,44.601L410.931,43.844ZM401.462,67.743L405.327,67.072L401.285,52.37L398.599,53.011L400.736,59.996C400.761,60.075 400.773,60.157 400.773,60.236C400.773,60.38 400.736,60.523 400.664,60.649C400.55,60.847 400.36,60.986 400.14,61.033L369.185,67.589C369.911,70.564 370.303,72.193 370.494,73.115L372.432,72.779L401.378,67.758C401.392,67.754 401.406,67.752 401.421,67.749C401.434,67.747 401.448,67.745 401.462,67.743ZM411.615,48.237L411.181,45.453L401.242,46.202L402.406,50.435L411.615,48.237ZM397.621,99.668C397.242,95.092 396.943,91.532 396.814,89.995C394.919,90.195 392.733,90.429 390.362,90.682C387.774,90.958 384.967,91.258 382.052,91.568L383.146,101.031L397.412,99.66C397.484,99.654 397.554,99.657 397.621,99.668ZM341.532,-85.715C340.572,-86.357 339.844,-86.855 339.394,-87.182C338.297,-87.979 336.971,-88.815 335.437,-89.784C335.206,-89.929 334.972,-90.077 334.736,-90.226L332.083,-81.477C332.244,-81.447 332.419,-81.414 332.608,-81.377C333.147,-81.272 333.834,-81.131 334.659,-80.954C334.682,-80.949 334.705,-80.944 334.728,-80.939C335.031,-80.874 335.353,-80.804 335.692,-80.73C337.154,-80.41 338.627,-80.076 339.456,-79.886L341.532,-85.715ZM418.469,-0.266C414.615,0.464 410.117,1.424 406.074,2.325L409.272,22.845L419.418,22.341L418.469,-0.266ZM357.976,178.594L367.338,170.472L357.768,159L354.987,159.81C354.704,159.892 354.4,159.808 354.197,159.592L351.438,156.676L343.638,156.676L338.702,159.561L356.44,179.926C356.44,179.926 357.972,178.597 357.976,178.594ZM399.205,119.187C398.818,114.283 398.407,109.213 398.033,104.666C398.033,104.662 398.033,104.659 398.033,104.655C397.936,103.476 397.842,102.332 397.751,101.236C397.691,101.258 397.627,101.272 397.56,101.278L383.332,102.645L385.418,120.687C389.947,120.193 394.567,119.691 399.205,119.187ZM121.175,136.192C125.364,139.536 129.859,143.121 134.521,146.837C135.153,142.287 136.675,133.701 137.973,127.264C137.91,127.256 137.847,127.24 137.785,127.216L134.76,126.024L128.183,133.536C127.913,133.845 127.458,133.897 127.129,133.657L124.452,131.721L121.175,136.192ZM123.153,130.781L118.302,127.272C118.289,127.265 118.279,127.257 118.269,127.248L110.915,121.341L107.574,125.319C111.167,128.197 115.347,131.538 119.921,135.191L123.153,130.781ZM200.484,149.143L206.435,141.26L196.411,133.009L190.56,140.846L200.484,149.143ZM138.063,153.269L128.592,172.148L132.29,175.177L142.694,156.958C141.138,155.719 139.593,154.488 138.063,153.269ZM174.464,164.76L176.736,160.25C176.701,160.231 176.667,160.21 176.634,160.186C175.565,159.391 149.779,140.225 146.876,137.25C144.059,134.363 140.508,133.43 138.334,133.775C138.178,134.629 138.025,135.485 137.874,136.332L174.464,164.76ZM98.986,102.423L97.009,91.096C96.984,90.952 96.999,90.804 97.049,90.668L98.511,86.706L92.295,82.551C92.057,82.392 91.924,82.115 91.936,81.826C91.953,81.536 92.119,81.279 92.372,81.148L95.836,79.351C94.904,77.673 92.774,73.522 92.121,69.655L80.712,69.655L86.067,103.043L98.986,102.423ZM341.113,94.029C342.269,93.792 343.29,93.639 344.12,93.598C345.839,93.511 348.582,93.291 351.974,92.984C351.991,92.981 352.009,92.978 352.027,92.976L354.455,92.738L352.992,85.526C352.988,85.507 352.984,85.488 352.98,85.468C352.977,85.454 352.974,85.439 352.972,85.424L351.479,78.061L346.199,78.977L334.651,82.289L340.658,93.075C340.709,93.167 340.968,93.688 341.113,94.029ZM214.567,145.865L217.903,148.611L232.297,130.554C232.324,130.52 232.354,130.489 232.385,130.461L228.908,127.538L214.567,145.865ZM177.21,162.862L185.184,169.411L193.351,158.593C190.29,155.936 186.967,153.054 183.613,150.15L183.61,150.153L177.21,162.862ZM133.547,176.206L137.927,179.794L148.108,161.271C146.72,160.165 145.337,159.064 143.961,157.968L133.547,176.206ZM135.975,147.996C140.349,151.482 144.853,155.07 149.374,158.671L153.103,150.207L137.56,138.129C136.85,142.222 136.256,145.935 135.975,147.996ZM65.874,62.106L66.638,68.051C66.697,68.036 66.76,68.029 66.824,68.029L79.744,68.029C79.764,68.028 79.784,68.028 79.804,68.029L91.94,68.029C91.924,67.707 91.923,67.391 91.936,67.082C92.129,62.983 93.172,57.364 93.631,55.052L77.353,59.189C77.276,59.255 77.185,59.308 77.083,59.341C76.945,59.386 76.804,59.391 76.672,59.362L65.874,62.106ZM66.844,69.655L71.223,103.755L84.465,103.119L79.096,69.655L66.844,69.655ZM289.809,118.546L289.843,118.527C290.937,117.908 291.984,117.319 293.003,116.778L276.212,87.36L274.145,89.962L289.809,118.546ZM368.506,92.989C368.601,94.678 368.935,99.109 369.19,102.372L381.558,101.184L380.465,91.737C376.545,92.152 372.471,92.58 368.506,92.989ZM208.648,140.993L213.325,144.843L227.679,126.505L222.727,122.342L219.479,126.645C219.451,126.723 219.41,126.798 219.357,126.867C219.307,126.932 219.25,126.987 219.187,127.032L208.648,140.993ZM150.668,159.701C156.632,164.452 162.608,169.209 168.332,173.767L169.47,174.673L172.825,168.013C172.837,167.988 172.849,167.964 172.862,167.939L173.724,166.229L154.404,151.218L150.668,159.701ZM194.324,157.303L199.512,150.431L189.595,142.138L184.58,148.854C187.935,151.759 191.26,154.642 194.324,157.303ZM160.802,171.379C157.002,168.354 153.176,165.307 149.378,162.283L139.187,180.825L151.835,191.184L160.802,171.379ZM177.469,158.793L182.227,149.347C182.246,149.305 182.271,149.265 182.301,149.225L182.397,149.097C177.001,144.426 171.598,139.762 167.15,135.947L159.745,145.453C167.525,151.394 176.411,158.007 177.469,158.793ZM63.263,41.773L65.666,60.485L75.802,57.909L70.666,41.211L63.263,41.773ZM294.424,116.037C295.475,115.479 296.802,114.733 298.289,113.872L279.658,84.586C278.812,85.157 278.013,85.644 277.301,86.038L294.424,116.037ZM95.345,54.616C95.056,56.027 93.74,62.656 93.527,67.161C93.305,72.019 97.586,79.188 97.628,79.26C97.744,79.453 97.776,79.685 97.717,79.903C97.658,80.123 97.509,80.306 97.311,80.408L94.319,81.959L99.917,85.704C100.229,85.911 100.357,86.315 100.226,86.669L98.618,91.031L101.595,108.113L125.307,70.935L125.277,70.865C125.265,70.839 125.254,70.813 125.244,70.786C124.959,70.118 124.684,69.474 124.422,68.858C123.213,66.025 122.261,63.785 121.904,63.06C121.436,62.103 120.894,60.714 121.612,59.695C121.945,59.224 122.465,58.921 123.257,58.774C123.26,58.761 123.264,58.748 123.268,58.734C123.307,58.612 124.058,53.815 125.132,47.046L95.345,54.616ZM133.172,125.399L130.002,124.149L125.405,130.42L127.468,131.912L133.172,125.399ZM152.376,-214.808L140.095,-206.34L158.445,-189.488L173.528,-194.867L152.376,-214.808ZM192.904,-197.84L182.069,-194.899L176.061,-192.756C175.163,-188.722 172.012,-174.562 168.405,-158.234C173.391,-157.484 178.344,-156.735 183.039,-156.023C183.047,-156.022 183.056,-156.02 183.065,-156.019C185.433,-155.66 187.735,-155.309 189.943,-154.972L197.018,-192.187C195.008,-193.843 193.606,-196.368 192.904,-197.84ZM172.757,-101.098L157.019,-106.037C155.763,-100.108 154.961,-96.144 154.89,-95.373C154.566,-91.869 155.261,-87.291 160.426,-85.397L161.297,-85.076C164.242,-83.99 168.689,-82.348 169.52,-83.156C169.676,-83.308 169.659,-83.782 169.473,-84.392C168.219,-88.529 171.813,-98.582 172.757,-101.098ZM195.651,-198.585C196.554,-196.817 198.136,-194.393 200.018,-193.625C203.062,-192.383 210.471,-194.348 216.422,-195.927L217.227,-196.14C221.711,-197.327 223.342,-202.365 223.342,-205.461C223.342,-205.694 223.333,-205.905 223.318,-206.094L195.651,-198.585ZM158.881,-37.387L139.054,-45.79L131.196,-26.598C138.477,-23.35 143.76,-20.991 145.588,-20.174C148.302,-23.707 152.975,-29.757 158.881,-37.387ZM253.602,-138.156C251.416,-143.635 249.662,-148.092 248.733,-150.572C246.282,-147.417 240.721,-140.258 233.374,-130.797L253.602,-138.156ZM204.016,-92.981C190.966,-76.164 177.351,-58.613 166.418,-44.498L194.284,-29.485C194.878,-29.26 201.408,-26.8 206.771,-26.511C209.2,-26.381 220.439,-24.91 232.588,-23.262C233.571,-28.825 239.601,-63.492 238.954,-70.297C238.598,-74.046 238.918,-82.333 239.346,-89.916L204.138,-92.96C204.097,-92.964 204.056,-92.971 204.016,-92.981ZM99.763,-1.57L97.173,5.304L78.674,57.179L125.409,45.301C127.013,35.214 129.206,21.582 130.866,12.216C127.051,10.267 114.01,4.564 99.763,-1.57ZM118.826,3.616C124.482,6.105 128.972,8.128 131.389,9.312C132.074,5.581 132.627,2.874 132.949,1.888C133.632,-0.2 134.505,-2.355 135.555,-4.545L124.229,-9.581L118.826,3.616ZM127.262,71.446C129.156,75.874 131.526,81.351 133.819,86.32L143.887,82.997L138.576,72.596C133.63,72.084 129.346,71.654 127.262,71.446ZM288.755,84.713L291.734,89.789L297.381,89.789L304.701,86.534C304.912,86.44 305.149,86.443 305.357,86.542L308.584,88.076L311.27,87.306L352.948,20.536L339.559,15.64C333.035,23.748 325.109,28.578 315.865,30.109L310.618,57.457C310.588,57.598 310.521,57.732 310.425,57.838L307.117,61.505C307.105,61.519 307.093,61.533 307.081,61.546L305.092,63.75L305.092,74.005C305.092,74.287 304.948,74.547 304.713,74.696L288.755,84.713ZM196.002,82.316C190.882,83.154 186.423,83.945 183.094,84.635C177.443,85.805 171.555,87.583 166.018,89.532C166.134,90.483 166.505,92.154 166.934,93.78C170.255,91.479 175.449,90.425 182.574,96.23C184.345,97.673 187.326,100.082 190.846,102.92L194.808,97.834C194.942,97.663 195.135,97.554 195.348,97.532C195.56,97.51 195.771,97.577 195.936,97.713L202.583,103.301C202.601,103.23 202.628,103.161 202.666,103.095L206.102,97.063L202.858,94.419C202.514,94.139 202.457,93.627 202.732,93.278C203.007,92.927 203.509,92.87 203.853,93.149L216.483,103.445L221.556,96.651C219.578,96.733 217.819,96.579 216.665,95.829C216.041,95.426 214.635,94.458 212.856,93.236C208.302,90.104 197.761,82.858 196.002,82.316ZM140.985,100.111C144.911,108.355 142.167,117.158 141.213,120.22C140.98,120.963 140.706,122.048 140.406,123.367L144.875,125.404L164.65,106.839C164.885,106.619 165.227,106.562 165.516,106.696L168.593,108.108C173.89,102.4 179.234,96.737 179.644,96.303C179.692,96.252 179.745,96.209 179.801,96.173C174.95,92.893 170.552,92.743 166.991,95.77C166.785,95.946 166.506,96.003 166.251,95.921C165.993,95.842 165.793,95.636 165.716,95.372C164.916,92.575 164.542,91.012 164.391,90.113C153.135,94.189 143.617,98.803 140.985,100.111ZM96.567,-149.28L93.937,-135.526L109.666,-128.609L113.44,-144.263L96.567,-149.28ZM138.196,-47.913L142.818,-59.201L124.953,-69.332L123.706,-65.133L123.691,-65.084L120.11,-55.578L138.196,-47.913ZM105.51,-80.358L99.463,-64.328L117.535,-56.669L121.053,-66.007L122.461,-70.746L105.51,-80.358ZM140.05,124.985C139.603,127.073 139.119,129.545 138.642,132.105C141.276,131.9 144.994,133.017 148.007,136.102C149.058,137.18 153.413,140.603 158.47,144.478L165.93,134.902C161.052,130.725 157.543,127.765 156.845,127.286C155.701,126.498 155.14,125.78 155.026,124.964C154.86,123.753 155.689,122.744 156.944,121.212C157.302,120.775 157.709,120.282 158.134,119.73C158.137,119.726 158.14,119.722 158.144,119.717C159.273,118.25 163.222,113.911 167.435,109.358L165.343,108.398L145.568,126.963C145.335,127.183 144.994,127.24 144.704,127.107L140.05,124.985ZM134.506,87.799C136.474,92.001 138.342,95.704 139.752,97.896C139.918,98.155 140.078,98.416 140.229,98.678C142.426,97.585 149.707,94.046 158.847,90.471L155.987,80.713L134.506,87.799ZM91.842,-44.126C97.902,-41.432 103.996,-38.72 109.8,-36.135L116.964,-55.152L98.891,-62.811L91.842,-44.126ZM280.969,83.661L299.67,113.058L302.535,111.358L287.136,85.121L281.511,83.253C281.329,83.392 281.149,83.528 280.969,83.661ZM160.341,89.893C167.326,87.219 175.255,84.598 182.777,83.041C183.102,82.973 183.439,82.905 183.786,82.835L181.8,73.666C178.356,74.417 168.587,76.367 163.692,75.498C162.318,75.253 159.424,74.884 155.819,74.465L157.278,79.442L160.341,89.893ZM185.352,82.529C188.263,81.972 191.754,81.366 195.623,80.731C195.697,80.7 195.777,80.68 195.86,80.672C195.897,80.669 195.938,80.669 195.984,80.672C207.883,78.728 223.263,76.534 236.354,74.737C236.425,74.708 236.502,74.69 236.583,74.683C236.634,74.679 236.684,74.68 236.733,74.685C240.318,74.193 243.726,73.732 246.837,73.315C246.878,73.305 246.92,73.298 246.964,73.295C246.977,73.294 246.989,73.293 247.001,73.293C254.138,72.336 259.692,71.614 262.202,71.29L253.458,61.524C253.442,61.506 253.427,61.488 253.413,61.469C252.959,61.067 250.544,58.999 247.208,56.193C247.138,56.237 247.059,56.271 246.975,56.292L205.158,65.166L200.716,68.742C200.553,68.876 200.345,68.935 200.134,68.913C199.908,68.887 192.242,68.021 181.958,66.853L185.352,82.529ZM99.671,-165.515L97.103,-152.082L114.106,-147.027L118.423,-164.928C118.428,-164.952 118.434,-164.976 118.44,-165L120.342,-172.886L99.671,-165.515ZM144.468,-135.038L138.758,-115.813L155.869,-108.287C156.771,-112.527 157.861,-117.579 159.057,-123.079C159.56,-125.394 160.082,-127.789 160.616,-130.236L144.468,-135.038ZM165.413,-43.201C156.711,-31.967 149.827,-23.062 146.475,-18.692C146.466,-18.68 146.456,-18.667 146.447,-18.655C145.46,-17.368 144.783,-16.48 144.461,-16.048C139.823,-9.815 136.366,-3.435 134.461,2.4C134.132,3.409 133.558,6.211 132.849,10.062L133.442,10.384C134.773,11.105 136.017,11.779 137.185,12.487C139.321,6.929 146.636,-12.07 147.681,-14.417C148.036,-15.213 148.694,-16.304 149.512,-17.514C149.516,-17.521 149.521,-17.528 149.526,-17.536C151.626,-20.641 154.764,-24.525 156.495,-26.251C156.515,-26.272 156.536,-26.293 156.557,-26.312C157.725,-27.473 158.682,-28.431 159.443,-29.29L159.445,-29.293C160.239,-30.185 160.782,-30.925 161.21,-31.691L161.272,-31.803C162.445,-33.897 163.648,-35.352 167.54,-33.499C170.73,-31.981 176.471,-29.023 179.102,-26.266C181.299,-23.966 188.284,-19.101 189.119,-18.522C192.77,-17.371 198.362,-15.662 204.759,-13.726C204.833,-13.724 204.908,-13.71 204.982,-13.685C205.038,-13.666 205.091,-13.641 205.14,-13.611C224.424,-7.779 250.759,0.029 253.531,0.85L266.226,-16.99C262.215,-17.538 247.331,-19.627 233.389,-21.521C233.276,-21.497 233.157,-21.497 233.037,-21.527C232.976,-21.542 232.918,-21.564 232.865,-21.592C220.58,-23.258 209.145,-24.755 206.687,-24.887C200.844,-25.201 193.962,-27.872 193.672,-27.985C193.64,-27.998 193.613,-28.01 193.583,-28.025L165.413,-43.201ZM198.934,-89.049C204.099,-95.704 209.224,-102.308 214.114,-108.607C212.439,-110.776 209.257,-113.424 206.908,-115.246L198.934,-89.049ZM215.178,-107.362C211.934,-103.182 208.587,-98.87 205.195,-94.499L239.439,-91.54C239.756,-96.9 240.107,-101.702 240.282,-103.996C236.604,-104.619 233.774,-104.963 232.352,-104.873L231.857,-104.841C224.832,-104.391 218.684,-103.998 215.178,-107.362ZM185.987,-125.655L205.18,-119.949L205.395,-119.885L205.578,-119.755C205.631,-119.718 205.88,-119.543 206.272,-119.258L210.735,-141.305C210.739,-141.33 210.745,-141.355 210.75,-141.38L212.448,-149.77C210.617,-150.137 202.244,-151.448 191.206,-153.136L185.987,-125.655ZM111.784,-33.478L106.43,-19.268L123.383,-11.731L129.122,-25.749C124.061,-28.006 118.133,-30.649 111.784,-33.478ZM111.148,-127.956L136.182,-116.946L141.792,-135.833L114.97,-143.808L111.148,-127.956ZM179.614,-100.647L183.922,-123.307L178.547,-124.905L174.393,-117.894C174.2,-117.568 173.811,-117.423 173.457,-117.544C169.204,-119.003 162.617,-121.234 160.433,-121.908C159.277,-116.587 158.226,-111.715 157.357,-107.632L157.365,-107.629L179.614,-100.647ZM116.676,-190.194C118.516,-186.643 119.905,-182.983 120.992,-180.119C121.496,-178.788 121.953,-177.582 122.363,-176.62L156.73,-188.876L138.735,-205.403L116.676,-190.194ZM248.092,-152.364L248.088,-152.379C247.767,-153.406 247.403,-154.57 246.883,-155.892C246.41,-157.098 245.619,-159.919 244.624,-163.809C238.836,-159.846 234.12,-156.51 232.057,-154.8C226.376,-150.092 220.457,-148.334 214.009,-149.451L212.483,-141.907L237.949,-139.608C238.017,-139.597 238.081,-139.578 238.141,-139.552C243.071,-145.9 246.613,-150.46 248.092,-152.364ZM306.469,-60.438C306.741,-60.937 306.977,-61.442 307.171,-61.946C307.755,-63.462 313.932,-80.271 318.091,-91.594C312.967,-93.214 307.245,-97.844 306.186,-101.357C306.052,-101.799 305.584,-102.755 304.878,-104.07C297.493,-98.243 291.217,-93.291 287.552,-90.396C285.391,-88.689 283.104,-87.144 280.74,-85.741L281.603,-71.179C283.069,-70.542 294.67,-65.5 306.469,-60.438ZM381.777,6.9C381.889,7.201 381.992,7.501 382.084,7.798C382.252,8.341 382.391,9.095 382.504,10.019C384.083,11.123 385.673,12.794 386.852,14.825L391.018,13.473C391.11,13.381 391.226,13.31 391.359,13.272C391.474,13.238 391.592,13.232 391.703,13.251L405.466,8.786L404.514,2.674C401.486,3.356 398.819,3.98 397.026,4.41C393.594,5.233 384.804,6.481 381.777,6.9ZM240.4,-75.279C248.239,-76.734 262.207,-79.433 274.822,-85.743C273.862,-88.097 272.102,-92.413 269.924,-97.764C260.477,-99.93 249.658,-102.329 241.884,-103.717C241.7,-101.289 241.339,-96.332 241.019,-90.887C241.041,-90.813 241.052,-90.735 241.052,-90.654C241.052,-90.63 241.052,-90.605 241.05,-90.58C241.042,-90.49 241.02,-90.404 240.986,-90.325C240.683,-85.098 240.424,-79.491 240.4,-75.279ZM277.94,-87.395C280.701,-88.945 283.364,-90.687 285.844,-92.645C286.277,-92.987 286.746,-93.357 287.248,-93.754C284.309,-94.42 279.536,-95.544 273.985,-96.828C275.83,-92.423 277.249,-89.04 277.94,-87.395ZM286.655,25.335L286.658,25.331L325.37,-35.409L314.618,-42.634C311.725,-36.404 308.548,-29.436 307.696,-27.075C306.869,-24.788 305.785,-23.429 304.335,-23.11C301.318,-22.447 283.389,-32.467 280.695,-34.55L235.861,28.448L264.512,41.056C267.231,36.253 269.731,32.085 270.927,30.731C273.148,28.213 277.864,24.724 286.655,25.335ZM409.092,-64.117L401.217,-51.511L406.836,-51.511L409.092,-64.117ZM333.647,-79.509C332.792,-79.688 332.072,-79.832 331.608,-79.912C331.608,-79.912 329.874,-74.192 329.872,-74.188L327.91,-67.716L332.015,-66.215L333.647,-79.509ZM397.122,-50.231C394.377,-51.963 387.399,-56.369 379.185,-61.575L375.679,-56.058L389.572,-38.136L397.122,-50.231ZM314.776,-77.94C311.77,-69.764 309.04,-62.354 308.653,-61.351C308.454,-60.834 308.216,-60.317 307.944,-59.805C311.915,-58.104 315.861,-56.421 319.404,-54.923C319.433,-54.912 319.461,-54.9 319.49,-54.887C320.362,-54.519 321.21,-54.161 322.027,-53.818L328.114,-73.888L314.776,-77.94ZM279.196,-84.852C265.219,-77.026 249.004,-73.982 240.429,-72.394C240.452,-71.654 240.489,-71.001 240.54,-70.454C240.722,-68.541 240.413,-64.606 239.845,-59.769L280.301,-66.234L279.196,-84.852ZM381.237,18.398L375.4,20.433C375.35,21.452 374.878,22.855 374.254,24.7C374.091,25.19 373.915,25.705 373.74,26.247C373.308,27.565 372.57,28.24 371.866,28.58C372.983,29.175 375.527,29.776 381.1,29.977C381.201,25.889 381.259,21.873 381.237,18.398ZM382.708,12.243C382.871,14.627 382.935,17.618 382.935,20.837C382.935,23.401 382.87,26.602 382.769,30.023C384.158,30.05 385.708,30.055 387.438,30.033C387.315,25.758 387.202,22.239 387.13,20.931C387.038,19.261 386.53,17.663 385.788,16.234C385.77,16.204 385.754,16.172 385.738,16.14C384.922,14.598 383.834,13.258 382.708,12.243ZM407.672,22.936L405.719,10.41L392.574,14.674L395.341,24.736L407.672,22.936ZM373.337,82.896L371.913,74.517L353.05,77.789L354.417,84.532C356.401,84.467 364.209,83.755 373.337,82.896ZM368.933,73.386C368.332,70.771 366.204,62.111 364.729,56.153C364.714,56.089 364.704,56.022 364.704,55.955L362.824,45.771C362.229,46.67 361.654,47.33 360.834,47.509C360.26,47.635 359.658,47.487 359.045,47.069C357.481,46.007 353.279,44.747 351.294,44.747C351.126,44.747 350.965,44.695 350.829,44.596L344.21,39.753L315.212,86.175L345.808,77.4C345.835,77.393 345.863,77.385 345.89,77.383L351.943,76.333C351.962,76.33 351.981,76.326 352,76.323L368.933,73.386ZM229.454,125.892L236.988,132.226L252.863,112.239C248.215,112.332 243.524,112.555 239.612,112.882C239.597,112.884 239.582,112.886 239.567,112.887C239.554,112.888 239.541,112.889 239.528,112.889C234.492,113.314 230.761,113.913 230.094,114.632C228.414,116.444 225.314,119.62 223.815,121.151L229.14,125.628C229.197,125.655 229.252,125.689 229.303,125.731C229.362,125.779 229.413,125.833 229.454,125.892ZM329.999,-42.672L333.205,-47.703C333.154,-47.717 333.102,-47.731 333.051,-47.746C332.809,-47.815 332.554,-47.885 332.289,-47.957C331.384,-48.203 327.855,-49.627 323.035,-51.641L321.198,-45.583L329.999,-42.672ZM267.506,93.805L274.489,85.014L263.516,72.757C262.055,72.945 256.068,73.718 247.87,74.816L249.224,94.182C257.255,94.037 265.287,93.857 267.506,93.805ZM374.665,90.715L373.663,84.816C373.348,84.843 373.043,84.868 372.75,84.891C367.269,85.332 362.898,85.661 359.758,85.874C357.887,86.002 356.437,86.086 355.445,86.129C355.186,86.14 354.954,86.15 354.746,86.157L356.049,92.582L366.949,91.512C367.069,91.5 367.187,91.489 367.299,91.48L367.561,91.453C367.578,91.451 367.596,91.449 367.615,91.447C369.939,91.208 372.307,90.962 374.665,90.715ZM254.172,110.593L266.187,95.466C262.92,95.543 256.14,95.69 249.338,95.811L250.378,110.675C251.886,110.632 253.194,110.607 254.172,110.593ZM400.854,50.805L391.055,15.167L387.599,16.288C388.221,17.695 388.633,19.23 388.721,20.839C388.803,22.311 388.939,26.24 389.085,30.796C389.085,30.804 389.085,30.812 389.085,30.82C389.367,39.662 389.681,50.851 389.686,51.02C389.686,51.027 389.664,52.755 389.655,53.478L397.075,51.707C397.147,51.65 397.23,51.605 397.323,51.575C397.455,51.533 397.59,51.528 397.717,51.554L400.854,50.805ZM360.671,13.401L356.655,19.828C359.723,22.235 368.823,27.668 370.795,27.244C371.228,27.15 371.849,26.892 372.228,25.732C372.406,25.187 372.581,24.665 372.75,24.173C373.212,22.793 373.776,21.128 373.821,20.38C373.774,20.316 373.737,20.243 373.71,20.164C373.704,20.145 373.698,20.125 373.693,20.106C372.507,19.55 363.067,14.568 360.671,13.401ZM364.057,43.815L366.298,55.854C366.379,56.184 366.661,57.32 367.044,58.874L380.076,55.764C380.156,54.241 380.579,46.112 380.892,36.956C378.784,37.368 372.482,38.42 370.532,36.68C370.337,36.506 369.918,36.22 369.331,35.851C368.272,37.445 365.268,41.967 364.057,43.815ZM218.562,125.196L221.497,121.308L211.453,112.863L208.36,117.006C213.134,120.841 217.055,123.987 218.562,125.196ZM326.239,-36.772L329.1,-41.262L319.96,-44.281C319.544,-44.417 319.314,-44.872 319.443,-45.295L321.555,-52.261C320.899,-52.536 320.224,-52.82 319.532,-53.112C318.851,-51.672 317.188,-48.153 315.308,-44.118L326.239,-36.772ZM276.449,84.792C277.186,84.231 278.121,83.565 279.277,82.789C279.314,82.753 279.355,82.719 279.4,82.689C279.444,82.66 279.489,82.636 279.536,82.617C279.975,82.324 280.444,82.017 280.945,81.694L303.755,62.836L305.507,60.893C304.54,59.404 303.516,57.915 302.483,56.492L270.387,78.021L276.449,84.792ZM268.738,-100.679C264.277,-111.65 258.514,-125.865 254.197,-136.665L231.839,-128.528C231.745,-128.478 231.645,-128.45 231.545,-128.441C227.143,-122.773 222.184,-116.385 216.92,-109.605C219.497,-106.9 224.918,-107.246 231.683,-107.679L232.176,-107.711C236.377,-107.979 254.012,-104.118 268.738,-100.679ZM368.798,66.011L398.954,59.625L397.042,53.382L367.433,60.449C367.76,61.777 368.127,63.269 368.493,64.763C368.6,65.199 368.701,65.614 368.798,66.011ZM341.596,-62.709C343.733,-70.301 345.777,-79.728 344.055,-84.049C343.651,-84.313 343.266,-84.566 342.903,-84.806L340.715,-78.659C340.577,-78.274 340.181,-78.053 339.79,-78.144C338.401,-78.465 336.724,-78.843 335.212,-79.173L333.551,-65.653L341.596,-62.709ZM338.754,-53.486L338.815,-53.671C339.38,-55.404 340.249,-58.069 341.148,-61.146L327.438,-66.161L323.507,-53.198C328.32,-51.184 331.834,-49.762 332.7,-49.527C332.97,-49.455 333.227,-49.383 333.472,-49.314C333.89,-49.197 334.264,-49.093 334.6,-49.006C334.638,-48.998 334.676,-48.988 334.714,-48.977C336.768,-48.46 337.325,-48.669 337.944,-50.918C338.012,-51.171 338.116,-51.51 338.25,-51.933C336.88,-52.253 334.476,-53.145 333.707,-55.535C333.568,-55.963 333.799,-56.421 334.214,-56.561C334.633,-56.701 335.083,-56.468 335.222,-56.042C335.77,-54.336 337.741,-53.702 338.754,-53.486ZM314.196,30.348C308.08,31.088 301.407,30.431 294.201,28.37C281.632,24.774 275.25,28.261 272.109,31.817C270.951,33.129 268.389,37.442 265.613,42.373C265.611,42.388 265.608,42.403 265.601,42.419C265.566,42.501 265.52,42.574 265.464,42.638C260.749,51.027 255.477,61.071 255.418,61.196C255.408,61.219 255.396,61.24 255.384,61.262L256.686,62.716C259.532,61.71 265.825,59.244 267.583,57.45C268.103,56.92 269.248,56.164 270.776,55.284C270.817,55.258 270.859,55.234 270.902,55.212C277.145,51.638 289.506,46.092 292.134,45.208C295.865,43.956 303.573,55.009 306.618,59.662L309.106,56.903L314.196,30.348ZM180.284,66.663C171.752,65.694 161.677,64.546 152.607,63.506L155.323,72.771C159.264,73.226 162.468,73.63 163.966,73.897C168.524,74.706 178.088,72.806 181.456,72.077L180.284,66.663ZM355.811,21.181L353.36,25.104C355.787,26.394 361.075,29.227 365.363,31.648C365.444,31.672 365.522,31.71 365.595,31.762C365.62,31.78 365.643,31.799 365.664,31.818C368.541,33.447 370.915,34.864 371.579,35.458C372.694,36.453 377.703,35.96 380.948,35.288C380.987,34.068 381.024,32.836 381.058,31.604C374.3,31.36 370.778,30.462 369.771,28.781C366.086,28.055 358.783,23.448 355.811,21.181ZM168.785,110.27C167.395,111.771 166.032,113.251 164.786,114.615C165.931,115.891 170.677,119.629 175.222,122.976L178.738,118.462L168.785,110.27ZM173.025,105.71C172.004,106.804 170.943,107.943 169.883,109.085L179.729,117.19L182.461,113.683L173.025,105.71ZM136.274,-5.999C138.135,-9.642 140.464,-13.364 143.191,-17.031C143.443,-17.369 143.912,-17.986 144.575,-18.853C142.564,-19.751 137.481,-22.021 130.582,-25.098L124.843,-11.081L136.274,-5.999ZM214.994,129.922L217.59,126.483C216.095,125.284 212.174,122.137 207.395,118.299L204.801,121.773L214.994,129.922ZM352.505,26.472L349.125,31.884L359.302,39.441L363.957,32.719C359.87,30.421 354.97,27.774 352.505,26.472ZM154.098,74.268C149.906,73.791 145.004,73.267 140.474,72.794L145.425,82.49L155.531,79.156L154.098,74.268ZM112.356,-34.996C118.716,-32.163 124.658,-29.514 129.736,-27.249L137.583,-46.413L119.538,-54.061L112.356,-34.996ZM283.041,82.052L287.564,83.552L303.501,73.55L303.501,65.137L283.041,82.052ZM210.781,135.504L214.02,131.212L203.835,123.067L200.828,127.093L210.781,135.504ZM168.141,134.675C172.59,138.488 177.98,143.141 183.365,147.801C183.365,147.801 188.826,140.487 188.829,140.482L195.171,131.989L179.976,119.482L168.141,134.675ZM150.885,63.308C139.074,61.951 129.307,60.812 127.477,60.551C123.783,60.021 123.051,60.44 122.906,60.643C122.867,60.699 122.699,61.046 123.331,62.333C123.706,63.097 124.619,65.243 125.881,68.21C126.073,68.659 126.273,69.128 126.481,69.616C126.653,69.594 126.833,69.627 126.993,69.724C127.028,69.746 127.062,69.77 127.093,69.796C130.868,70.171 143.892,71.477 153.601,72.575L150.885,63.308ZM207.407,139.972L209.807,136.793L199.862,128.388L197.377,131.716L207.407,139.972ZM348.267,33.258L345.067,38.381L351.556,43.129C353.92,43.223 358.176,44.527 359.928,45.717C360.171,45.881 360.364,45.95 360.5,45.92C360.918,45.829 361.49,44.903 362.041,44.007C362.114,43.889 362.188,43.769 362.264,43.648L359.027,41.245C359.02,41.24 348.267,33.258 348.267,33.258ZM257.851,64.018L269.3,76.806L301.522,55.191C300.034,53.212 298.557,51.412 297.227,49.984L277.527,64.317C277.178,64.572 276.695,64.498 276.433,64.154L271.016,57.008C269.9,57.667 269.084,58.219 268.709,58.601C266.697,60.653 260.458,63.069 257.851,64.018ZM179.807,64.974C179.807,64.974 181.032,65.113 181.044,65.114C190.747,66.216 198.345,67.074 199.986,67.26L204.309,63.78C204.398,63.706 204.505,63.654 204.616,63.627L226.425,58.996L188.033,40.106L179.817,64.945C179.814,64.955 179.81,64.964 179.807,64.974ZM163.049,63.066C168.242,63.659 173.456,64.252 178.27,64.799C178.254,64.68 178.264,64.555 178.305,64.433L186.587,39.395L162.048,27.322C159.302,35.119 156.581,42.871 155.425,46.166C158.8,54.027 162.161,61.188 163.049,63.066ZM124.801,58.672C125.595,58.686 126.551,58.777 127.701,58.942C129.963,59.265 144.476,60.943 159.939,62.71C157.497,57.577 149.362,40.208 146.11,29.845C142.598,18.654 138.928,16.578 132.318,12.995C129.525,28.675 125.281,55.87 124.801,58.672ZM180.998,97.039C180.967,97.182 180.899,97.318 180.792,97.431C180.747,97.477 179.675,98.614 178.028,100.366L187.152,107.662L189.855,104.192C186.333,101.354 183.351,98.944 181.579,97.5C181.385,97.342 181.191,97.188 180.998,97.039ZM163.731,115.774C162.083,117.588 160.725,119.115 159.913,120.084L170.881,128.547L174.23,124.248C167.467,119.278 164.794,116.931 163.731,115.774ZM176.921,101.546C176.074,102.449 175.129,103.458 174.127,104.53L183.453,112.41L186.161,108.934L176.921,101.546ZM158.907,121.344C158.645,121.672 158.396,121.975 158.166,122.255C157.256,123.366 156.533,124.241 156.605,124.736C156.634,124.948 156.855,125.33 157.736,125.936C158.465,126.438 162.01,129.426 166.921,133.63L169.89,129.819L158.907,121.344ZM143.826,18.357C145.638,20.833 147.252,24.153 148.765,28.976C150.083,33.181 152.242,38.647 154.497,43.988C155.853,40.125 158.223,33.375 160.606,26.613L143.826,18.357ZM156.528,-256.892L136.641,-231.856L151.629,-217.726L177.168,-235.334C174.296,-237.408 168.075,-242.058 165.622,-245.138C163.228,-248.145 158.563,-254.231 156.528,-256.892ZM77.615,-181.454L81.508,-180.841C81.535,-180.837 81.562,-180.831 81.59,-180.824L92.439,-177.884C92.622,-177.834 92.783,-177.719 92.892,-177.558L93.614,-176.484L97.131,-180.151L113.004,-191.095C109.638,-196.793 104.985,-201.295 98.301,-199.934C89.739,-198.191 81.952,-197.279 75.798,-196.808C75.58,-196.757 75.363,-196.708 75.148,-196.658L77.615,-181.454ZM327.186,-237.843C315.971,-228.089 306.691,-220.131 304.132,-218.304C300.866,-215.973 297.733,-214.267 294.125,-212.99L312.813,-189.254L344.186,-216.088L327.186,-237.843ZM306.985,-224.208L286.841,-247.883L256.385,-225.248L265.76,-211.943C270.741,-212.195 275.25,-212.476 278.254,-212.772C289.764,-213.908 295.891,-215.892 302.533,-220.634C303.35,-221.217 304.89,-222.46 306.985,-224.208ZM278.053,-209.897C275.809,-209.688 272.832,-209.486 269.492,-209.297L242.523,-184.483C244.027,-177.995 245.46,-171.95 246.657,-167.139C261.121,-176.957 280.089,-189.329 282.529,-190.939C282.876,-192.556 283.343,-194.216 283.939,-195.931C287.161,-205.208 283.382,-207.134 279.727,-208.996C279.137,-209.296 278.574,-209.584 278.053,-209.897ZM266.966,-209.16C255.737,-208.575 241.707,-208.135 237.176,-207.995C238.743,-201.001 240.457,-193.426 242.105,-186.287L266.966,-209.16ZM218.922,-260.689L192.483,-242.46L204.101,-232.758C204.25,-232.635 204.349,-232.462 204.381,-232.27L207.526,-213.971C210.822,-214.726 214.002,-215.133 216.294,-214.858C220.363,-214.37 223.513,-212.452 225.13,-209.529L233.464,-211.791C230.863,-223.452 228.847,-232.685 228.523,-234.171C228.071,-235.322 224.994,-243.161 222.167,-251.076C216.51,-246.897 209.825,-241.179 209.725,-241.095C209.389,-240.806 208.887,-240.851 208.602,-241.194C208.32,-241.538 208.362,-242.05 208.701,-242.339C209.112,-242.691 215.879,-248.479 221.605,-252.662C220.61,-255.485 219.672,-258.262 218.922,-260.689ZM133.585,-232.525L125.009,-240.609L122.507,-235.082C123.429,-234.501 124.346,-233.61 125.619,-232.183C127.106,-230.515 129.107,-229.164 130.326,-228.422L133.585,-232.525ZM258.076,-230.024C255.231,-233.412 246.936,-243.301 242.098,-249.193L229.85,-238.476C230.629,-236.455 231.131,-235.181 231.154,-235.124L231.221,-234.902C231.275,-234.649 233.267,-225.519 235.93,-213.566L253.957,-226.964C253.994,-227.008 254.036,-227.049 254.084,-227.085C254.14,-227.129 254.2,-227.164 254.262,-227.19L258.076,-230.024ZM292.504,-212.454C289.718,-211.598 286.624,-210.96 282.972,-210.46C286.452,-208.377 289.948,-204.713 286.567,-194.981C282.575,-183.493 284.76,-174.891 289.886,-163.914C291.043,-161.433 292.948,-157.806 295.243,-153.567L325.236,-170.879L312.091,-187.575C312.084,-187.584 292.504,-212.454 292.504,-212.454ZM236.984,-210.828C241.19,-210.959 253.27,-211.338 263.864,-211.849L255.098,-224.291L236.984,-210.828ZM79.697,-157.859L62.245,-138.826L54.949,-127.994C57.949,-126.291 61.016,-124.543 64.064,-122.805C67.625,-120.775 71.133,-118.776 74.426,-116.909C74.457,-116.893 74.487,-116.876 74.516,-116.858C81.739,-112.766 87.92,-109.32 91.349,-107.613C91.37,-107.603 91.39,-107.593 91.41,-107.582C92.178,-107.201 92.804,-106.909 93.27,-106.719C96.93,-105.222 103.451,-99.504 109.716,-93.36C109.816,-93.297 109.899,-93.215 109.962,-93.119C116.034,-87.148 121.829,-80.822 124.5,-77.612L130.572,-98.058L106.631,-113.531C106.607,-113.545 106.584,-113.56 106.561,-113.576L90.627,-123.874C90.612,-123.883 90.598,-123.892 90.584,-123.902L75.193,-133.849C74.842,-134.077 74.72,-134.542 74.916,-134.917L78.34,-141.501C78.358,-141.54 78.378,-141.577 78.399,-141.614L84.455,-153.258L79.697,-157.859ZM68.166,-101.535L58.874,-81.531L77.91,-73.463L84.763,-92.123L68.166,-101.535ZM46.612,-115.617L67.453,-103.798L73.044,-115.834C69.926,-117.602 66.63,-119.481 63.287,-121.387C60.243,-123.122 57.123,-124.901 54.043,-126.649L46.612,-115.617ZM94.086,-172.909L84.798,-163.224L97.544,-167.769L94.086,-172.909ZM249.38,-242.92C253.414,-238.077 257.578,-233.115 259.367,-230.984L285.006,-250.039L273.951,-263.032L249.605,-243.051C249.536,-242.993 249.459,-242.95 249.38,-242.92ZM58.032,-80.128L45.693,-64.511C50.846,-62.283 59.929,-58.28 70.599,-53.555L77.351,-71.94L58.032,-80.128ZM53.442,-172.737C55.403,-171.371 56.906,-169.814 58.028,-168.65C58.538,-168.122 58.978,-167.666 59.335,-167.36C60.951,-165.967 62.681,-165.587 64.202,-166.286C65.158,-166.8 70.33,-173.519 75.152,-180.197L55.679,-183.263L53.442,-172.737ZM232.882,-256.245C231.604,-256.175 230.228,-255.788 228.696,-255.213C227.716,-254.844 226.237,-253.945 224.53,-252.768C226.171,-248.157 227.938,-243.464 229.234,-240.079L241.076,-250.441C240.178,-251.542 239.462,-252.431 239.011,-253.012C237.105,-255.467 235.205,-256.333 233.019,-256.251C232.998,-256.249 232.977,-256.247 232.955,-256.245C232.93,-256.244 232.906,-256.244 232.882,-256.245ZM349.399,-142.786C355.07,-147.259 358.8,-150.201 359.094,-150.433L381.006,-168.97C381.006,-168.97 372.678,-179.627 372.671,-179.636L359.043,-197.076L327.618,-170.45L349.399,-142.786ZM382.232,-170.007L395.654,-181.363L387.821,-190.396L374.434,-179.986L382.232,-170.007ZM426.944,-139.712C424.819,-140.777 423.296,-141.455 422.592,-141.607C420.419,-142.078 401.043,-145.937 390.377,-136.383C388.811,-134.98 387.443,-133.677 386.251,-132.478L412.887,-118.111C412.971,-118.065 413.044,-118.005 413.105,-117.936L419.143,-127.438L406.145,-134.809C405.762,-135.027 405.623,-135.522 405.836,-135.914C406.051,-136.306 406.536,-136.448 406.92,-136.229L420.012,-128.805L426.944,-139.712ZM430.86,21.772L427.962,-1.552C427.399,-1.515 426.914,-1.487 426.522,-1.47C425.157,-1.409 422.836,-1.063 420.05,-0.559L421.008,22.262L430.86,21.772ZM406.085,-103.901L390.691,-79.678L408.229,-68.025L413.255,-76.077L424.095,-92.17L406.085,-103.901ZM429.235,62.925C428.459,56.961 427.484,50.469 426.411,44.306L412.777,45.333L415.88,65.242L429.235,62.925ZM427.761,-3.167L425.193,-23.833C421.368,-23.382 417.387,-22.579 413.391,-21.344C410.299,-20.388 406.728,-19.038 402.986,-17.487L405.823,0.718C413.153,-0.917 422.789,-2.931 426.453,-3.093C426.811,-3.109 427.251,-3.134 427.761,-3.167ZM436.472,-87.781L426.641,-90.929L415.594,-74.527L411.195,-67.484C415.7,-67.68 425.807,-68.002 432.678,-67.331L436.472,-87.781ZM436.119,63.923C436.094,63.856 436.078,63.784 436.071,63.709L433.593,43.765L427.947,44.191C428.392,47.605 429.573,56.606 430.709,64.535C430.729,64.678 430.75,64.821 430.77,64.962L436.119,63.923ZM430.3,101.121L429.067,87.645C425.387,88.369 418.733,88.674 410.78,88.967C408.496,89.05 406.439,89.126 404.896,89.214C404.873,89.216 404.85,89.218 404.826,89.218C404.289,89.25 403.815,89.283 403.418,89.319C402.581,89.392 400.808,89.574 398.397,89.827C398.562,91.785 399.013,97.144 399.554,103.723L430.3,101.121ZM385.146,-131.344C381.302,-127.322 379.579,-124.638 378.941,-123.509L405.608,-106.14L412.269,-116.621C412.221,-116.636 412.174,-116.656 412.129,-116.681L385.43,-131.082C385.311,-131.147 385.216,-131.238 385.146,-131.344ZM440.149,-63.694C438.855,-64.248 437.959,-64.623 437.537,-64.785C436.674,-65.114 435.443,-65.367 433.971,-65.559L431.304,-51.184L436.915,-48.689L440.149,-63.694ZM433.392,42.152L431.061,23.388C431.061,23.388 420.289,23.923 420.284,23.923L409.524,24.458L412.526,43.724L433.392,42.152ZM399.803,-169.523C403.681,-171.342 410.64,-169.583 412.359,-169.102L420.513,-175.014L414.329,-182.775L408.552,-188.581L398.155,-179.785C398.467,-177.765 399.143,-173.432 399.803,-169.523ZM431.633,115.683L430.448,102.739L399.686,105.342C400.041,109.663 400.425,114.411 400.789,119.015C411.305,117.873 421.871,116.731 431.633,115.683ZM402.04,135.718C402.208,135.695 402.398,135.67 402.608,135.642C403.504,135.526 404.785,135.375 406.321,135.197C408.829,134.907 412.251,134.525 416.504,134.061L415.788,120.247C410.911,120.774 405.955,121.311 401.011,121.848C401.424,127.131 401.794,132.058 402.04,135.718ZM333.111,-126.343C327.825,-122.173 322.246,-117.772 316.82,-113.492C317.193,-112.716 317.537,-111.981 317.849,-111.292C322.211,-101.65 330.333,-96.353 336.441,-92.494L342.566,-109.995L333.91,-120.998C333.818,-121.115 333.759,-121.254 333.739,-121.402L333.111,-126.343ZM315.547,-116.083C327.238,-125.305 339.585,-135.045 348.137,-141.791L326.247,-169.595L296.014,-152.147C297.825,-148.82 299.839,-145.173 301.9,-141.442C306.909,-132.37 312.056,-123.051 315.547,-116.083ZM429.764,85.853C430.227,85.728 430.572,85.592 430.773,85.444C431.335,84.473 431.025,78.64 430.174,70.763L403.303,74.278L405.486,87.556C406.946,87.482 408.75,87.415 410.721,87.344C416.582,87.127 425.774,86.789 429.415,85.941C429.502,85.896 429.599,85.867 429.702,85.857C429.722,85.855 429.743,85.854 429.764,85.853ZM439.915,-115.659L420.54,-126.646L406.952,-105.265L424.998,-93.511L439.915,-115.659ZM429.995,69.149C429.828,67.668 429.643,66.126 429.442,64.539L402.471,69.217L403.039,72.673L429.995,69.149ZM425.136,-26.68L429.441,-49.886L408.163,-49.886L407.315,-45.154C407.298,-45.058 407.263,-44.965 407.214,-44.881L393.809,-22.171L398.558,-18.698C403.561,-20.863 408.455,-22.79 412.582,-24.066C416.825,-25.378 421.062,-26.219 425.136,-26.68ZM343.499,-134.538C340.706,-132.335 337.698,-129.962 334.57,-127.494L335.29,-121.838L344.048,-110.708C344.068,-110.683 344.086,-110.657 344.102,-110.63C344.135,-110.612 344.168,-110.593 344.2,-110.57L389.355,-80.565L397.954,-94.096L343.499,-134.538ZM326.533,127.39C327.389,127.194 328.274,127.038 329.188,126.921C330.529,126.75 335.17,126.223 342.027,125.459L339.719,95.999C335.15,97.123 329.083,99.241 324.432,101.02L326.533,127.39ZM363.254,123.113C369.656,122.41 376.616,121.648 383.834,120.86L381.745,102.797L369.065,104.015L363.254,123.113ZM265.241,187.642C270.89,181.809 276.491,176.088 281.367,171.222C281.132,171.279 280.875,171.227 280.674,171.059L238.136,135.296L223.742,153.417L247.686,173.126C247.722,173.147 247.757,173.172 247.791,173.2C247.822,173.226 247.851,173.254 247.878,173.284L265.055,187.422C265.131,187.485 265.193,187.56 265.241,187.642ZM281.95,170.641C288.074,164.541 292.982,159.871 295.28,158.159C303.897,151.735 308.51,144.711 311.883,138.688C312.048,138.393 312.216,138.104 312.388,137.821L297.935,136.02C297.683,135.991 297.46,135.837 297.336,135.613L289.191,120.749C285.684,122.709 282.129,124.539 278.965,124.833C272.649,125.419 262.436,122.677 258.395,119.45L244.044,138.158L281.686,169.805C281.877,169.966 281.976,170.198 281.976,170.433C281.976,170.503 281.968,170.573 281.95,170.641ZM343.612,125.283C346.668,124.943 350.111,124.561 353.856,124.148L351.377,94.667C348.301,94.942 345.808,95.137 344.199,95.218C343.401,95.258 342.412,95.408 341.29,95.641L343.612,125.283ZM214.344,160.732L220.57,152.895L207.676,142.281L201.717,150.174L214.344,160.732ZM105.767,127.487L90.481,148.552L98.93,154.728L113.479,133.658C110.69,131.428 108.103,129.359 105.767,127.487ZM313.373,136.305C316.342,132.05 320.172,129.241 324.967,127.803L322.88,101.621C320.023,102.744 317.943,103.648 317.504,103.939C317.498,103.943 317.491,103.947 317.485,103.951C314.753,105.761 309.204,109.236 304.042,112.344L304.035,112.348C302.574,113.228 301.143,114.078 299.817,114.852C299.813,114.855 299.81,114.857 299.806,114.859C297.648,116.119 295.765,117.179 294.47,117.839C293.244,118.465 291.966,119.186 290.613,119.95L290.586,119.965L298.529,134.46L313.373,136.305ZM92.085,112.933C92.921,113.422 93.724,114.017 94.51,114.738C95.164,115.339 99.579,118.909 106.32,124.314L110.204,119.69C110.482,119.361 110.967,119.311 111.301,119.581L119.239,125.961L124.106,129.481L129.089,122.682C129.302,122.39 129.68,122.281 130.015,122.412L138.298,125.675C138.861,122.966 139.359,120.796 139.693,119.728C142.155,111.836 142.002,105.412 139.219,100.154C139.211,100.14 139.203,100.125 139.196,100.111C138.956,99.661 138.697,99.22 138.419,98.787C135.208,93.793 129.928,81.731 126.07,72.72L101.865,110.694C101.798,110.816 101.7,110.92 101.58,110.993C101.502,111.042 101.414,111.077 101.321,111.096C101.317,111.097 101.313,111.097 101.308,111.098L92.085,112.933ZM63.608,112.64C66.232,112.365 68.601,112.12 70.665,111.909L61.672,41.893L56.137,42.314L56.724,47.754L56.724,47.809C56.724,47.841 56.722,47.873 56.719,47.905C57.78,57.854 60.97,87.786 63.608,112.64ZM355.442,123.973C357.398,123.757 359.43,123.534 361.527,123.303L367.654,103.176C367.607,102.575 367.422,100.2 367.246,97.821C367.142,96.443 367.043,95.068 366.976,94.032C366.954,93.7 366.934,93.403 366.922,93.152C361.838,93.672 356.995,94.153 352.965,94.523L355.442,123.973ZM100.223,155.674L103.274,157.904L118.251,137.469C117.05,136.51 115.877,135.574 114.736,134.662L100.223,155.674ZM207.778,169L213.342,161.994L200.745,151.462L195.54,158.358C201.146,163.227 205.73,167.217 207.778,169ZM325.22,168.933C330.434,175.52 336.546,183.247 343.081,191.518L355.226,180.98L337.177,160.256L331.96,161.541L328.463,163.734L327.696,166.878C327.651,167.063 327.542,167.229 327.389,167.34L325.22,168.933ZM104.568,158.85L108.353,161.616L122.837,141.13C121.706,140.227 120.595,139.34 119.505,138.47L104.568,158.85ZM198.659,180.479L206.775,170.262C204.789,168.533 200.2,164.54 194.566,159.648L186.426,170.431L198.659,180.479ZM308.981,148.428C310.607,150.48 316.285,157.644 324.218,167.667L326.221,166.197L326.996,163.02C327.045,162.811 327.171,162.633 327.349,162.522L331.235,160.089C331.306,160.044 331.383,160.01 331.465,159.991L337.157,158.589L343.031,155.159C343.153,155.09 343.289,155.053 343.427,155.053L351.774,155.053C351.99,155.053 352.198,155.142 352.349,155.301L355.011,158.111L357.823,157.296C358.124,157.209 358.446,157.308 358.649,157.551L368.874,169.808L377.387,171.124L386.327,142.422L384.16,123.683C356.655,126.685 332.871,129.317 329.534,129.742C322.702,130.613 317.72,134.001 314.303,140.099C312.828,142.732 311.126,145.548 308.981,148.428ZM72.249,111.748C76.191,111.348 78.768,111.102 79.558,111.056C81.869,110.921 83.903,110.89 85.738,111.056L84.724,104.734L71.431,105.372L72.249,111.748ZM190.175,191.16L194.316,185.947L173.821,169.592L170.749,175.691C177.658,181.192 184.25,186.44 190.175,191.16ZM195.32,184.683L197.657,181.741L184.961,171.292C184.916,171.269 184.872,171.241 184.83,171.208C184.778,171.167 184.732,171.121 184.692,171.071L176.48,164.312L174.562,168.12L195.32,184.683ZM87.386,111.27C88.339,111.435 89.238,111.67 90.097,111.991C90.204,111.777 90.403,111.614 90.652,111.563L100.248,109.653L99.265,104.021C99.217,104.033 99.167,104.04 99.116,104.043L86.326,104.657L87.386,111.27ZM464.826,-101.536L455.534,-81.532L474.572,-73.463L481.425,-92.122L464.826,-101.536ZM462.927,-37.126L481.107,-29.042L486.469,-43.257C480.184,-46.051 473.961,-48.814 468.163,-51.382L462.927,-37.126ZM442.353,-64.512C447.506,-62.284 456.59,-58.281 467.26,-53.555L474.013,-71.94L454.692,-80.129L442.353,-64.512ZM443.274,-115.616L464.114,-103.798L469.704,-115.834C466.586,-117.602 463.29,-119.481 459.947,-121.387C456.904,-123.122 453.784,-124.901 450.704,-126.649L443.274,-115.616ZM447.879,-3.302L450.477,20.798L464.359,20.107C464.671,17.944 465.715,11.171 466.965,7.988C467.117,7.6 467.331,7.075 467.592,6.446L456.339,-4.125C455.245,-4.016 451.942,-3.69 447.879,-3.302ZM445.774,-22.82L447.704,-4.918C452.631,-5.389 456.443,-5.767 456.539,-5.776C456.767,-5.801 456.99,-5.724 457.155,-5.566L468.257,4.861C470.258,0.12 473.643,-7.647 474.997,-10.747C470.072,-12.848 465.528,-14.781 461.763,-16.384C455.822,-18.913 451.528,-20.74 450.021,-21.398C448.8,-21.93 447.372,-22.41 445.774,-22.82ZM472.462,57.909L467.326,41.211L459.925,41.773L462.328,60.485L472.462,57.909Z" style="fill:white;fill-opacity:0.1;"/>
                </g>
                <path d="M244.058,245.448C252.144,225.435 265.89,213.711 280.445,213.711C295,213.711 304.096,221.19 304.096,233.521C304.096,243.831 295.202,253.736 284.084,262.63C278.424,267.28 272.763,272.131 267.305,277.185C256.187,287.697 247.09,303.869 247.09,322.264C247.09,327.722 247.697,332.776 248.708,337.425L307.734,337.425C309.755,307.305 378.057,288.101 378.057,227.457C378.057,203.607 369.368,184.208 351.989,169.457C334.611,154.706 312.382,147.229 285.499,147.229C236.37,147.229 199.381,172.69 183.009,217.956L244.058,245.448ZM308.326,418.285C316.209,410.805 320.049,401.304 320.049,390.186C320.049,379.068 316.209,369.567 308.326,361.885C300.443,354.204 290.944,350.363 279.422,350.363C267.901,350.363 258.402,354.204 250.721,361.885C242.838,369.567 238.998,379.068 238.998,390.186C238.998,401.304 242.838,410.805 250.721,418.285C258.402,425.966 267.901,429.807 279.422,429.807C290.944,429.807 300.443,425.966 308.326,418.285Z" style="fill:white;fill-rule:nonzero;"/>
            </g>
        </g>
    </g>
    <defs>
        <linearGradient id="_Linear1" x1="0" y1="0" x2="1" y2="0" gradientUnits="userSpaceOnUse" gradientTransform="matrix(0,1,1,0,1,-1)"><stop offset="0" style="stop-color:rgb(245,178,22);stop-opacity:1"/><stop offset="1" style="stop-color:rgb(255,48,69);stop-opacity:1"/></linearGradient>
    </defs>
</svg>
